%TF.GenerationSoftware,KiCad,Pcbnew,8.0.8*%
%TF.CreationDate,2025-04-25T11:22:14-07:00*%
%TF.ProjectId,MainBoard_BrooksP5Mini,4d61696e-426f-4617-9264-5f42726f6f6b,rev?*%
%TF.SameCoordinates,Original*%
%TF.FileFunction,Soldermask,Top*%
%TF.FilePolarity,Negative*%
%FSLAX46Y46*%
G04 Gerber Fmt 4.6, Leading zero omitted, Abs format (unit mm)*
G04 Created by KiCad (PCBNEW 8.0.8) date 2025-04-25 11:22:14*
%MOMM*%
%LPD*%
G01*
G04 APERTURE LIST*
G04 Aperture macros list*
%AMRoundRect*
0 Rectangle with rounded corners*
0 $1 Rounding radius*
0 $2 $3 $4 $5 $6 $7 $8 $9 X,Y pos of 4 corners*
0 Add a 4 corners polygon primitive as box body*
4,1,4,$2,$3,$4,$5,$6,$7,$8,$9,$2,$3,0*
0 Add four circle primitives for the rounded corners*
1,1,$1+$1,$2,$3*
1,1,$1+$1,$4,$5*
1,1,$1+$1,$6,$7*
1,1,$1+$1,$8,$9*
0 Add four rect primitives between the rounded corners*
20,1,$1+$1,$2,$3,$4,$5,0*
20,1,$1+$1,$4,$5,$6,$7,0*
20,1,$1+$1,$6,$7,$8,$9,0*
20,1,$1+$1,$8,$9,$2,$3,0*%
G04 Aperture macros list end*
%ADD10C,0.010000*%
%ADD11C,1.700000*%
%ADD12R,1.700000X1.700000*%
%ADD13O,1.700000X1.700000*%
%ADD14RoundRect,0.218750X0.256250X-0.218750X0.256250X0.218750X-0.256250X0.218750X-0.256250X-0.218750X0*%
%ADD15RoundRect,0.200000X0.275000X-0.200000X0.275000X0.200000X-0.275000X0.200000X-0.275000X-0.200000X0*%
%ADD16RoundRect,0.200000X-0.275000X0.200000X-0.275000X-0.200000X0.275000X-0.200000X0.275000X0.200000X0*%
%ADD17C,0.650000*%
%ADD18O,1.204000X2.304000*%
%ADD19O,1.204000X2.004000*%
%ADD20RoundRect,0.225000X0.225000X0.250000X-0.225000X0.250000X-0.225000X-0.250000X0.225000X-0.250000X0*%
%ADD21C,1.524000*%
%ADD22RoundRect,0.200000X0.200000X0.275000X-0.200000X0.275000X-0.200000X-0.275000X0.200000X-0.275000X0*%
%ADD23O,2.304000X1.204000*%
%ADD24O,2.004000X1.204000*%
G04 APERTURE END LIST*
D10*
%TO.C,J3*%
X172150000Y-24880000D02*
X171450000Y-24880000D01*
X171450000Y-23630000D01*
X172150000Y-23630000D01*
X172150000Y-24880000D01*
G36*
X172150000Y-24880000D02*
G01*
X171450000Y-24880000D01*
X171450000Y-23630000D01*
X172150000Y-23630000D01*
X172150000Y-24880000D01*
G37*
X172950000Y-24880000D02*
X172250000Y-24880000D01*
X172250000Y-23630000D01*
X172950000Y-23630000D01*
X172950000Y-24880000D01*
G36*
X172950000Y-24880000D02*
G01*
X172250000Y-24880000D01*
X172250000Y-23630000D01*
X172950000Y-23630000D01*
X172950000Y-24880000D01*
G37*
X173450000Y-24880000D02*
X173050000Y-24880000D01*
X173050000Y-23630000D01*
X173450000Y-23630000D01*
X173450000Y-24880000D01*
G36*
X173450000Y-24880000D02*
G01*
X173050000Y-24880000D01*
X173050000Y-23630000D01*
X173450000Y-23630000D01*
X173450000Y-24880000D01*
G37*
X173950000Y-24880000D02*
X173550000Y-24880000D01*
X173550000Y-23630000D01*
X173950000Y-23630000D01*
X173950000Y-24880000D01*
G36*
X173950000Y-24880000D02*
G01*
X173550000Y-24880000D01*
X173550000Y-23630000D01*
X173950000Y-23630000D01*
X173950000Y-24880000D01*
G37*
X174450000Y-24880000D02*
X174050000Y-24880000D01*
X174050000Y-23630000D01*
X174450000Y-23630000D01*
X174450000Y-24880000D01*
G36*
X174450000Y-24880000D02*
G01*
X174050000Y-24880000D01*
X174050000Y-23630000D01*
X174450000Y-23630000D01*
X174450000Y-24880000D01*
G37*
X174950000Y-24880000D02*
X174550000Y-24880000D01*
X174550000Y-23630000D01*
X174950000Y-23630000D01*
X174950000Y-24880000D01*
G36*
X174950000Y-24880000D02*
G01*
X174550000Y-24880000D01*
X174550000Y-23630000D01*
X174950000Y-23630000D01*
X174950000Y-24880000D01*
G37*
X175450000Y-24880000D02*
X175050000Y-24880000D01*
X175050000Y-23630000D01*
X175450000Y-23630000D01*
X175450000Y-24880000D01*
G36*
X175450000Y-24880000D02*
G01*
X175050000Y-24880000D01*
X175050000Y-23630000D01*
X175450000Y-23630000D01*
X175450000Y-24880000D01*
G37*
X175950000Y-24880000D02*
X175550000Y-24880000D01*
X175550000Y-23630000D01*
X175950000Y-23630000D01*
X175950000Y-24880000D01*
G36*
X175950000Y-24880000D02*
G01*
X175550000Y-24880000D01*
X175550000Y-23630000D01*
X175950000Y-23630000D01*
X175950000Y-24880000D01*
G37*
X176450000Y-24880000D02*
X176050000Y-24880000D01*
X176050000Y-23630000D01*
X176450000Y-23630000D01*
X176450000Y-24880000D01*
G36*
X176450000Y-24880000D02*
G01*
X176050000Y-24880000D01*
X176050000Y-23630000D01*
X176450000Y-23630000D01*
X176450000Y-24880000D01*
G37*
X176950000Y-24880000D02*
X176550000Y-24880000D01*
X176550000Y-23630000D01*
X176950000Y-23630000D01*
X176950000Y-24880000D01*
G36*
X176950000Y-24880000D02*
G01*
X176550000Y-24880000D01*
X176550000Y-23630000D01*
X176950000Y-23630000D01*
X176950000Y-24880000D01*
G37*
X177750000Y-24880000D02*
X177050000Y-24880000D01*
X177050000Y-23630000D01*
X177750000Y-23630000D01*
X177750000Y-24880000D01*
G36*
X177750000Y-24880000D02*
G01*
X177050000Y-24880000D01*
X177050000Y-23630000D01*
X177750000Y-23630000D01*
X177750000Y-24880000D01*
G37*
X178550000Y-24880000D02*
X177850000Y-24880000D01*
X177850000Y-23630000D01*
X178550000Y-23630000D01*
X178550000Y-24880000D01*
G36*
X178550000Y-24880000D02*
G01*
X177850000Y-24880000D01*
X177850000Y-23630000D01*
X178550000Y-23630000D01*
X178550000Y-24880000D01*
G37*
%TD*%
D11*
%TO.C,U34*%
X231000000Y-72000000D03*
X241000000Y-72000000D03*
%TD*%
%TO.C,U35*%
X230000000Y-36000003D03*
X240000000Y-36000003D03*
%TD*%
%TO.C,U31*%
X196700000Y-43050002D03*
X206700000Y-43050002D03*
%TD*%
%TO.C,U30*%
X197700000Y-79000000D03*
X207700000Y-79000000D03*
%TD*%
%TO.C,U27*%
X165500000Y-52500003D03*
X175500000Y-52500003D03*
%TD*%
%TO.C,U26*%
X166500000Y-88450001D03*
X176500000Y-88450001D03*
%TD*%
%TO.C,U22*%
X136200000Y-102000000D03*
X146200000Y-102000000D03*
%TD*%
%TO.C,U23*%
X135200000Y-66000000D03*
X145200000Y-66000000D03*
%TD*%
%TO.C,U32*%
X112700000Y-130000000D03*
X122700000Y-130000000D03*
%TD*%
%TO.C,U28*%
X98200000Y-63000000D03*
X108200000Y-63000000D03*
%TD*%
%TO.C,U24*%
X67900000Y-49500003D03*
X77900000Y-49500003D03*
%TD*%
%TO.C,U2*%
X36700000Y-40050002D03*
X46700000Y-40050002D03*
%TD*%
%TO.C,U21*%
X89000000Y-30000000D03*
X99000000Y-30000000D03*
%TD*%
%TO.C,U25*%
X110000000Y-37000000D03*
X120000000Y-37000000D03*
%TD*%
%TO.C,U29*%
X131300000Y-37050002D03*
X141300000Y-37050002D03*
%TD*%
%TO.C,U33*%
X151700000Y-30000000D03*
X161700000Y-30000000D03*
%TD*%
D12*
%TO.C,J2*%
X51960000Y-71500000D03*
D13*
X54500000Y-71500000D03*
X51960000Y-74040000D03*
X54500000Y-74040000D03*
X51960000Y-76580000D03*
X54500000Y-76580000D03*
%TD*%
D14*
%TO.C,D4*%
X172000000Y-27787500D03*
X172000000Y-26212500D03*
%TD*%
D15*
%TO.C,R1*%
X176500000Y-27650000D03*
X176500000Y-26000000D03*
%TD*%
D16*
%TO.C,R15*%
X173500000Y-26175000D03*
X173500000Y-27825000D03*
%TD*%
D17*
%TO.C,J3*%
X177890000Y-23180000D03*
X172110000Y-23180000D03*
D18*
X179320000Y-23680000D03*
X170680000Y-23680000D03*
D19*
X179320000Y-19500000D03*
X170680000Y-19500000D03*
%TD*%
D14*
%TO.C,D3*%
X178000000Y-27787500D03*
X178000000Y-26212500D03*
%TD*%
D20*
%TO.C,C40*%
X82275000Y-79500000D03*
X80725000Y-79500000D03*
%TD*%
D21*
%TO.C,U36*%
X269490000Y-116800000D03*
X269490000Y-118800000D03*
X269490000Y-120800000D03*
X269490000Y-122800000D03*
X269310000Y-126600000D03*
X269310000Y-128600000D03*
X269310000Y-130600000D03*
X269310000Y-132600000D03*
X269310000Y-134600000D03*
X270790000Y-143540000D03*
X268790000Y-143540000D03*
X266790000Y-143540000D03*
X264790000Y-143540000D03*
X262790000Y-143540000D03*
X260790000Y-143540000D03*
X258790000Y-143540000D03*
X256790000Y-143540000D03*
X254250000Y-143560000D03*
X252250000Y-143560000D03*
X250250000Y-143560000D03*
X248250000Y-143560000D03*
X246250000Y-143560000D03*
X244250000Y-143560000D03*
X242250000Y-143560000D03*
X240250000Y-143560000D03*
X235900000Y-143300000D03*
X235900000Y-141300000D03*
X235900000Y-139300000D03*
X235900000Y-137300000D03*
X235900000Y-131750000D03*
X235900000Y-129250000D03*
X235900000Y-125750000D03*
X235900000Y-123250000D03*
X235900000Y-119710000D03*
X235900000Y-117710000D03*
X235900000Y-115710000D03*
X235900000Y-113710000D03*
X235900000Y-111710000D03*
X235900000Y-109710000D03*
X235900000Y-107710000D03*
X249330000Y-108350000D03*
X251330000Y-108350000D03*
X253330000Y-108350000D03*
X255330000Y-108350000D03*
X257330000Y-108350000D03*
X259330000Y-108350000D03*
X261330000Y-108350000D03*
X263330000Y-108350000D03*
X265330000Y-108350000D03*
X269490000Y-111500000D03*
X269490000Y-114000000D03*
%TD*%
D22*
%TO.C,R32*%
X82000000Y-78000000D03*
X80350000Y-78000000D03*
%TD*%
D17*
%TO.C,J1*%
X26720000Y-100130000D03*
X26720000Y-94350000D03*
D23*
X27220000Y-101560000D03*
X27220000Y-92920000D03*
D24*
X23040000Y-101560000D03*
X23040000Y-92920000D03*
%TD*%
M02*
