M48
; DRILL file {KiCad 8.0.8} date 2025-04-25T11:22:19-0700
; FORMAT={-:-/ absolute / inch / decimal}
; #@! TF.CreationDate,2025-04-25T11:22:19-07:00
; #@! TF.GenerationSoftware,Kicad,Pcbnew,8.0.8
; #@! TF.FileFunction,NonPlated,1,2,NPTH
FMAT,2
INCH
; #@! TA.AperFunction,NonPlated,NPTH,ComponentDrill
T1C0.0256
; #@! TA.AperFunction,NonPlated,NPTH,ComponentDrill
T2C0.0591
%
G90
G05
T1
X1.052Y-3.7146
X1.052Y-3.9421
X6.776Y-0.9126
X7.0035Y-0.9126
T2
X1.4449Y-1.5768
X1.8386Y-1.5768
X2.6732Y-1.9488
X3.0669Y-1.9488
X3.5039Y-1.1811
X3.8661Y-2.4803
X3.8976Y-1.1811
X4.2598Y-2.4803
X4.3307Y-1.4567
X4.437Y-5.1181
X4.7244Y-1.4567
X4.8307Y-5.1181
X5.1693Y-1.4587
X5.3228Y-2.5984
X5.3622Y-4.0157
X5.563Y-1.4587
X5.7165Y-2.5984
X5.7559Y-4.0157
X5.9724Y-1.1811
X6.3661Y-1.1811
X6.5157Y-2.0669
X6.5551Y-3.4823
X6.9094Y-2.0669
X6.9488Y-3.4823
X7.7441Y-1.6949
X7.7835Y-3.1102
X8.1378Y-1.6949
X8.1772Y-3.1102
X9.0551Y-1.4173
X9.0945Y-2.8346
X9.4488Y-1.4173
X9.4882Y-2.8346
M30
