%TF.GenerationSoftware,KiCad,Pcbnew,8.0.8*%
%TF.CreationDate,2025-04-25T11:22:14-07:00*%
%TF.ProjectId,MainBoard_BrooksP5Mini,4d61696e-426f-4617-9264-5f42726f6f6b,rev?*%
%TF.SameCoordinates,Original*%
%TF.FileFunction,Paste,Bot*%
%TF.FilePolarity,Positive*%
%FSLAX46Y46*%
G04 Gerber Fmt 4.6, Leading zero omitted, Abs format (unit mm)*
G04 Created by KiCad (PCBNEW 8.0.8) date 2025-04-25 11:22:14*
%MOMM*%
%LPD*%
G01*
G04 APERTURE LIST*
G04 Aperture macros list*
%AMRoundRect*
0 Rectangle with rounded corners*
0 $1 Rounding radius*
0 $2 $3 $4 $5 $6 $7 $8 $9 X,Y pos of 4 corners*
0 Add a 4 corners polygon primitive as box body*
4,1,4,$2,$3,$4,$5,$6,$7,$8,$9,$2,$3,0*
0 Add four circle primitives for the rounded corners*
1,1,$1+$1,$2,$3*
1,1,$1+$1,$4,$5*
1,1,$1+$1,$6,$7*
1,1,$1+$1,$8,$9*
0 Add four rect primitives between the rounded corners*
20,1,$1+$1,$2,$3,$4,$5,0*
20,1,$1+$1,$4,$5,$6,$7,0*
20,1,$1+$1,$6,$7,$8,$9,0*
20,1,$1+$1,$8,$9,$2,$3,0*%
%AMRotRect*
0 Rectangle, with rotation*
0 The origin of the aperture is its center*
0 $1 length*
0 $2 width*
0 $3 Rotation angle, in degrees counterclockwise*
0 Add horizontal line*
21,1,$1,$2,0,0,$3*%
G04 Aperture macros list end*
%ADD10RoundRect,0.225000X0.225000X0.250000X-0.225000X0.250000X-0.225000X-0.250000X0.225000X-0.250000X0*%
%ADD11R,1.500000X0.550000*%
%ADD12R,0.550000X1.500000*%
%ADD13RoundRect,0.200000X-0.275000X0.200000X-0.275000X-0.200000X0.275000X-0.200000X0.275000X0.200000X0*%
%ADD14RoundRect,0.225000X0.250000X-0.225000X0.250000X0.225000X-0.250000X0.225000X-0.250000X-0.225000X0*%
%ADD15R,1.000000X0.599999*%
%ADD16RoundRect,0.225000X-0.250000X0.225000X-0.250000X-0.225000X0.250000X-0.225000X0.250000X0.225000X0*%
%ADD17RoundRect,0.200000X-0.200000X-0.275000X0.200000X-0.275000X0.200000X0.275000X-0.200000X0.275000X0*%
%ADD18RoundRect,0.225000X-0.225000X-0.250000X0.225000X-0.250000X0.225000X0.250000X-0.225000X0.250000X0*%
%ADD19RoundRect,0.200000X0.200000X0.275000X-0.200000X0.275000X-0.200000X-0.275000X0.200000X-0.275000X0*%
%ADD20RoundRect,0.225000X-0.017678X0.335876X-0.335876X0.017678X0.017678X-0.335876X0.335876X-0.017678X0*%
%ADD21RoundRect,0.200000X0.275000X-0.200000X0.275000X0.200000X-0.275000X0.200000X-0.275000X-0.200000X0*%
%ADD22R,0.355600X1.422400*%
%ADD23RoundRect,0.218750X0.218750X0.256250X-0.218750X0.256250X-0.218750X-0.256250X0.218750X-0.256250X0*%
%ADD24R,1.000000X1.700000*%
%ADD25R,1.150000X0.600000*%
%ADD26R,1.150000X0.300000*%
%ADD27RoundRect,0.225000X-0.335876X-0.017678X-0.017678X-0.335876X0.335876X0.017678X0.017678X0.335876X0*%
%ADD28RotRect,1.400000X1.200000X45.000000*%
%ADD29RoundRect,0.079500X0.079500X0.100500X-0.079500X0.100500X-0.079500X-0.100500X0.079500X-0.100500X0*%
%ADD30RoundRect,0.218750X-0.256250X0.218750X-0.256250X-0.218750X0.256250X-0.218750X0.256250X0.218750X0*%
G04 APERTURE END LIST*
D10*
%TO.C,C30*%
X84275000Y-89000000D03*
X82725000Y-89000000D03*
%TD*%
D11*
%TO.C,U20*%
X48800000Y-102500000D03*
X48800000Y-101700000D03*
X48800000Y-100900000D03*
X48800000Y-100100000D03*
X48800000Y-99300000D03*
X48800000Y-98500000D03*
X48800000Y-97700000D03*
X48800000Y-96900000D03*
X48800000Y-96100000D03*
X48800000Y-95300000D03*
X48800000Y-94500000D03*
D12*
X50500000Y-92800000D03*
X51300000Y-92800000D03*
X52100000Y-92800000D03*
X52900000Y-92800000D03*
X53700000Y-92800000D03*
X54500000Y-92800000D03*
X55300000Y-92800000D03*
X56100000Y-92800000D03*
X56900000Y-92800000D03*
X57700000Y-92800000D03*
X58500000Y-92800000D03*
D11*
X60200000Y-94500000D03*
X60200000Y-95300000D03*
X60200000Y-96100000D03*
X60200000Y-96900000D03*
X60200000Y-97700000D03*
X60200000Y-98500000D03*
X60200000Y-99300000D03*
X60200000Y-100100000D03*
X60200000Y-100900000D03*
X60200000Y-101700000D03*
X60200000Y-102500000D03*
D12*
X58500000Y-104200000D03*
X57700000Y-104200000D03*
X56900000Y-104200000D03*
X56100000Y-104200000D03*
X55300000Y-104200000D03*
X54500000Y-104200000D03*
X53700000Y-104200000D03*
X52900000Y-104200000D03*
X52100000Y-104200000D03*
X51300000Y-104200000D03*
X50500000Y-104200000D03*
%TD*%
D13*
%TO.C,R12*%
X184000000Y-59675000D03*
X184000000Y-61325000D03*
%TD*%
D14*
%TO.C,C24*%
X181500000Y-74775000D03*
X181500000Y-73225000D03*
%TD*%
D15*
%TO.C,U15*%
X157900000Y-29049999D03*
X157900000Y-30949998D03*
X155500000Y-30000000D03*
%TD*%
D16*
%TO.C,C41*%
X82500000Y-73225000D03*
X82500000Y-74775000D03*
%TD*%
D15*
%TO.C,U4*%
X171700000Y-51549999D03*
X171700000Y-53449998D03*
X169300000Y-52500000D03*
%TD*%
%TO.C,U18*%
X137500000Y-36099999D03*
X137500000Y-37999998D03*
X135100000Y-37050000D03*
%TD*%
D14*
%TO.C,C7*%
X50800000Y-91000000D03*
X50800000Y-89450000D03*
%TD*%
D15*
%TO.C,U12*%
X142400000Y-101049999D03*
X142400000Y-102949998D03*
X140000000Y-102000000D03*
%TD*%
D13*
%TO.C,R31*%
X79500000Y-73175000D03*
X79500000Y-74825000D03*
%TD*%
D17*
%TO.C,R8*%
X178500000Y-61500000D03*
X180150000Y-61500000D03*
%TD*%
D10*
%TO.C,C17*%
X188275000Y-63500000D03*
X186725000Y-63500000D03*
%TD*%
D18*
%TO.C,C14*%
X178725000Y-60000000D03*
X180275000Y-60000000D03*
%TD*%
D15*
%TO.C,U6*%
X236200000Y-35049999D03*
X236200000Y-36949998D03*
X233800000Y-36000000D03*
%TD*%
D19*
%TO.C,R25*%
X82825000Y-80500000D03*
X81175000Y-80500000D03*
%TD*%
D20*
%TO.C,C10*%
X53060140Y-86108489D03*
X51964124Y-87204505D03*
%TD*%
D21*
%TO.C,R18*%
X183000000Y-75000000D03*
X183000000Y-73350000D03*
%TD*%
D22*
%TO.C,U3*%
X74725001Y-79655200D03*
X75374999Y-79655200D03*
X76025001Y-79655200D03*
X76674999Y-79655200D03*
X77324998Y-79655200D03*
X77974999Y-79655200D03*
X78624998Y-79655200D03*
X79274999Y-79655200D03*
X79274999Y-85344800D03*
X78625001Y-85344800D03*
X77974999Y-85344800D03*
X77325001Y-85344800D03*
X76675002Y-85344800D03*
X76025001Y-85344800D03*
X75375002Y-85344800D03*
X74725001Y-85344800D03*
%TD*%
D17*
%TO.C,R29*%
X73675000Y-74500000D03*
X75325000Y-74500000D03*
%TD*%
D19*
%TO.C,R14*%
X191825000Y-64000000D03*
X190175000Y-64000000D03*
%TD*%
%TO.C,R3*%
X31365000Y-98040000D03*
X29715000Y-98040000D03*
%TD*%
D23*
%TO.C,D5*%
X31787500Y-102000000D03*
X30212500Y-102000000D03*
%TD*%
D21*
%TO.C,R20*%
X186000000Y-75825000D03*
X186000000Y-74175000D03*
%TD*%
D19*
%TO.C,R9*%
X31500000Y-99500000D03*
X29850000Y-99500000D03*
%TD*%
D24*
%TO.C,SW_RESET1*%
X42900000Y-86350000D03*
X42900000Y-92650000D03*
X46700000Y-86350000D03*
X46700000Y-92650000D03*
%TD*%
D21*
%TO.C,R19*%
X184500000Y-78825000D03*
X184500000Y-77175000D03*
%TD*%
D25*
%TO.C,J1*%
X27795000Y-100440000D03*
X27795000Y-99640000D03*
D26*
X27795000Y-98490000D03*
X27795000Y-97490000D03*
X27795000Y-96990000D03*
X27795000Y-95990000D03*
D25*
X27795000Y-94040000D03*
X27795000Y-94840000D03*
D26*
X27795000Y-95490000D03*
X27795000Y-96490000D03*
X27795000Y-97990000D03*
X27795000Y-98990000D03*
%TD*%
D16*
%TO.C,C3*%
X51300000Y-106225000D03*
X51300000Y-107775000D03*
%TD*%
D14*
%TO.C,C9*%
X177000000Y-69775000D03*
X177000000Y-68225000D03*
%TD*%
D27*
%TO.C,C8*%
X55964124Y-86108489D03*
X57060140Y-87204505D03*
%TD*%
D13*
%TO.C,R11*%
X182000000Y-59175000D03*
X182000000Y-60825000D03*
%TD*%
D18*
%TO.C,C11*%
X44525000Y-99000000D03*
X46075000Y-99000000D03*
%TD*%
D14*
%TO.C,C25*%
X186500000Y-78775000D03*
X186500000Y-77225000D03*
%TD*%
D16*
%TO.C,C39*%
X81000000Y-73225000D03*
X81000000Y-74775000D03*
%TD*%
%TO.C,C4*%
X58800000Y-106225000D03*
X58800000Y-107775000D03*
%TD*%
%TO.C,C34*%
X69500000Y-76725000D03*
X69500000Y-78275000D03*
%TD*%
D10*
%TO.C,C16*%
X187275000Y-60500000D03*
X185725000Y-60500000D03*
%TD*%
D15*
%TO.C,U11*%
X141400000Y-65049999D03*
X141400000Y-66949998D03*
X139000000Y-66000000D03*
%TD*%
%TO.C,U10*%
X104400000Y-62049999D03*
X104400000Y-63949998D03*
X102000000Y-63000000D03*
%TD*%
D16*
%TO.C,C2*%
X70000000Y-83500000D03*
X70000000Y-85050000D03*
%TD*%
D17*
%TO.C,R7*%
X61975000Y-102500000D03*
X63625000Y-102500000D03*
%TD*%
D15*
%TO.C,U14*%
X237200000Y-70999999D03*
X237200000Y-72899998D03*
X234800000Y-71950000D03*
%TD*%
D28*
%TO.C,Y2*%
X53168629Y-88868629D03*
X54724264Y-87312994D03*
X55855635Y-88444365D03*
X54300000Y-90000000D03*
%TD*%
D21*
%TO.C,R26*%
X79500000Y-91325000D03*
X79500000Y-89675000D03*
%TD*%
D15*
%TO.C,U19*%
X203900000Y-78049999D03*
X203900000Y-79949998D03*
X201500000Y-79000000D03*
%TD*%
D14*
%TO.C,C32*%
X81000000Y-91275000D03*
X81000000Y-89725000D03*
%TD*%
D15*
%TO.C,U16*%
X95200000Y-29049999D03*
X95200000Y-30949998D03*
X92800000Y-30000000D03*
%TD*%
D14*
%TO.C,C20*%
X178000000Y-72775000D03*
X178000000Y-71225000D03*
%TD*%
D22*
%TO.C,U1*%
X180569801Y-65130199D03*
X181219799Y-65130199D03*
X181869801Y-65130199D03*
X182519799Y-65130199D03*
X183169798Y-65130199D03*
X183819799Y-65130199D03*
X184469798Y-65130199D03*
X185119799Y-65130199D03*
X185119799Y-70819799D03*
X184469801Y-70819799D03*
X183819799Y-70819799D03*
X183169801Y-70819799D03*
X182519802Y-70819799D03*
X181869801Y-70819799D03*
X181219802Y-70819799D03*
X180569801Y-70819799D03*
%TD*%
D19*
%TO.C,R13*%
X187325000Y-62000000D03*
X185675000Y-62000000D03*
%TD*%
D15*
%TO.C,U13*%
X172700000Y-87499999D03*
X172700000Y-89399998D03*
X170300000Y-88450000D03*
%TD*%
D29*
%TO.C,D2*%
X31885000Y-91540000D03*
X31195000Y-91540000D03*
%TD*%
D18*
%TO.C,C15*%
X181225000Y-57500000D03*
X182775000Y-57500000D03*
%TD*%
D17*
%TO.C,R34*%
X71675000Y-83500000D03*
X73325000Y-83500000D03*
%TD*%
D15*
%TO.C,U7*%
X118900000Y-129049999D03*
X118900000Y-130949998D03*
X116500000Y-130000000D03*
%TD*%
D10*
%TO.C,C31*%
X83775000Y-82000000D03*
X82225000Y-82000000D03*
%TD*%
D19*
%TO.C,R5*%
X34865000Y-91540000D03*
X33215000Y-91540000D03*
%TD*%
D15*
%TO.C,U17*%
X116200000Y-36049999D03*
X116200000Y-37949998D03*
X113800000Y-37000000D03*
%TD*%
D18*
%TO.C,C1*%
X71725000Y-85500000D03*
X73275000Y-85500000D03*
%TD*%
D13*
%TO.C,R27*%
X178500000Y-68175000D03*
X178500000Y-69825000D03*
%TD*%
D10*
%TO.C,C18*%
X191775000Y-62500000D03*
X190225000Y-62500000D03*
%TD*%
D14*
%TO.C,C19*%
X176500000Y-73275000D03*
X176500000Y-71725000D03*
%TD*%
D17*
%TO.C,R2*%
X29715000Y-96540000D03*
X31365000Y-96540000D03*
%TD*%
D30*
%TO.C,D6*%
X30000000Y-91712500D03*
X30000000Y-93287500D03*
%TD*%
D15*
%TO.C,U9*%
X42900000Y-39099999D03*
X42900000Y-40999998D03*
X40500000Y-40050000D03*
%TD*%
D14*
%TO.C,C6*%
X62300000Y-94775000D03*
X62300000Y-93225000D03*
%TD*%
D18*
%TO.C,C37*%
X73725000Y-76000000D03*
X75275000Y-76000000D03*
%TD*%
D15*
%TO.C,U8*%
X74100000Y-48549999D03*
X74100000Y-50449998D03*
X71700000Y-49500000D03*
%TD*%
D16*
%TO.C,C38*%
X76000000Y-71225000D03*
X76000000Y-72775000D03*
%TD*%
D13*
%TO.C,R30*%
X77500000Y-73175000D03*
X77500000Y-74825000D03*
%TD*%
D17*
%TO.C,R10*%
X32215000Y-93540000D03*
X33865000Y-93540000D03*
%TD*%
D14*
%TO.C,C12*%
X175500000Y-69775000D03*
X175500000Y-68225000D03*
%TD*%
D21*
%TO.C,R6*%
X48800000Y-87825000D03*
X48800000Y-86175000D03*
%TD*%
D19*
%TO.C,R24*%
X84325000Y-87500000D03*
X82675000Y-87500000D03*
%TD*%
%TO.C,R33*%
X83325000Y-76500000D03*
X81675000Y-76500000D03*
%TD*%
D16*
%TO.C,C26*%
X187500000Y-72725000D03*
X187500000Y-74275000D03*
%TD*%
D15*
%TO.C,U5*%
X202900000Y-42099999D03*
X202900000Y-43999998D03*
X200500000Y-43050000D03*
%TD*%
D10*
%TO.C,C5*%
X46075000Y-97500000D03*
X44525000Y-97500000D03*
%TD*%
D28*
%TO.C,*%
X53168629Y-88868629D03*
%TD*%
D16*
%TO.C,C33*%
X71000000Y-77500000D03*
X71000000Y-79050000D03*
%TD*%
M02*
