%TF.GenerationSoftware,KiCad,Pcbnew,8.0.8*%
%TF.CreationDate,2025-02-16T17:42:49-08:00*%
%TF.ProjectId,MainBoard_RP2040,4d61696e-426f-4617-9264-5f5250323034,rev?*%
%TF.SameCoordinates,Original*%
%TF.FileFunction,Paste,Bot*%
%TF.FilePolarity,Positive*%
%FSLAX46Y46*%
G04 Gerber Fmt 4.6, Leading zero omitted, Abs format (unit mm)*
G04 Created by KiCad (PCBNEW 8.0.8) date 2025-02-16 17:42:49*
%MOMM*%
%LPD*%
G01*
G04 APERTURE LIST*
G04 Aperture macros list*
%AMRoundRect*
0 Rectangle with rounded corners*
0 $1 Rounding radius*
0 $2 $3 $4 $5 $6 $7 $8 $9 X,Y pos of 4 corners*
0 Add a 4 corners polygon primitive as box body*
4,1,4,$2,$3,$4,$5,$6,$7,$8,$9,$2,$3,0*
0 Add four circle primitives for the rounded corners*
1,1,$1+$1,$2,$3*
1,1,$1+$1,$4,$5*
1,1,$1+$1,$6,$7*
1,1,$1+$1,$8,$9*
0 Add four rect primitives between the rounded corners*
20,1,$1+$1,$2,$3,$4,$5,0*
20,1,$1+$1,$4,$5,$6,$7,0*
20,1,$1+$1,$6,$7,$8,$9,0*
20,1,$1+$1,$8,$9,$2,$3,0*%
%AMRotRect*
0 Rectangle, with rotation*
0 The origin of the aperture is its center*
0 $1 length*
0 $2 width*
0 $3 Rotation angle, in degrees counterclockwise*
0 Add horizontal line*
21,1,$1,$2,0,0,$3*%
G04 Aperture macros list end*
%ADD10R,1.500000X0.550000*%
%ADD11R,0.550000X1.500000*%
%ADD12R,1.000000X0.599999*%
%ADD13RoundRect,0.225000X0.250000X-0.225000X0.250000X0.225000X-0.250000X0.225000X-0.250000X-0.225000X0*%
%ADD14RoundRect,0.225000X-0.017678X0.335876X-0.335876X0.017678X0.017678X-0.335876X0.335876X-0.017678X0*%
%ADD15RoundRect,0.200000X0.200000X0.275000X-0.200000X0.275000X-0.200000X-0.275000X0.200000X-0.275000X0*%
%ADD16R,1.000000X1.700000*%
%ADD17R,1.150000X0.600000*%
%ADD18R,1.150000X0.300000*%
%ADD19RoundRect,0.225000X-0.250000X0.225000X-0.250000X-0.225000X0.250000X-0.225000X0.250000X0.225000X0*%
%ADD20RoundRect,0.225000X-0.335876X-0.017678X-0.017678X-0.335876X0.335876X0.017678X0.017678X0.335876X0*%
%ADD21RoundRect,0.225000X-0.225000X-0.250000X0.225000X-0.250000X0.225000X0.250000X-0.225000X0.250000X0*%
%ADD22RoundRect,0.200000X-0.200000X-0.275000X0.200000X-0.275000X0.200000X0.275000X-0.200000X0.275000X0*%
%ADD23R,0.355600X1.422400*%
%ADD24RotRect,1.400000X1.200000X45.000000*%
%ADD25RoundRect,0.079500X0.079500X0.100500X-0.079500X0.100500X-0.079500X-0.100500X0.079500X-0.100500X0*%
%ADD26RoundRect,0.200000X0.275000X-0.200000X0.275000X0.200000X-0.275000X0.200000X-0.275000X-0.200000X0*%
%ADD27RoundRect,0.225000X0.225000X0.250000X-0.225000X0.250000X-0.225000X-0.250000X0.225000X-0.250000X0*%
G04 APERTURE END LIST*
D10*
%TO.C,U20*%
X48800000Y-102500000D03*
X48800000Y-101700000D03*
X48800000Y-100900000D03*
X48800000Y-100100000D03*
X48800000Y-99300000D03*
X48800000Y-98500000D03*
X48800000Y-97700000D03*
X48800000Y-96900000D03*
X48800000Y-96100000D03*
X48800000Y-95300000D03*
X48800000Y-94500000D03*
D11*
X50500000Y-92800000D03*
X51300000Y-92800000D03*
X52100000Y-92800000D03*
X52900000Y-92800000D03*
X53700000Y-92800000D03*
X54500000Y-92800000D03*
X55300000Y-92800000D03*
X56100000Y-92800000D03*
X56900000Y-92800000D03*
X57700000Y-92800000D03*
X58500000Y-92800000D03*
D10*
X60200000Y-94500000D03*
X60200000Y-95300000D03*
X60200000Y-96100000D03*
X60200000Y-96900000D03*
X60200000Y-97700000D03*
X60200000Y-98500000D03*
X60200000Y-99300000D03*
X60200000Y-100100000D03*
X60200000Y-100900000D03*
X60200000Y-101700000D03*
X60200000Y-102500000D03*
D11*
X58500000Y-104200000D03*
X57700000Y-104200000D03*
X56900000Y-104200000D03*
X56100000Y-104200000D03*
X55300000Y-104200000D03*
X54500000Y-104200000D03*
X53700000Y-104200000D03*
X52900000Y-104200000D03*
X52100000Y-104200000D03*
X51300000Y-104200000D03*
X50500000Y-104200000D03*
%TD*%
D12*
%TO.C,U4*%
X171700000Y-51550002D03*
X171700000Y-53450001D03*
X169300000Y-52500003D03*
%TD*%
%TO.C,U12*%
X142400000Y-101049999D03*
X142400000Y-102949998D03*
X140000000Y-102000000D03*
%TD*%
D13*
%TO.C,C7*%
X50800000Y-91000000D03*
X50800000Y-89450000D03*
%TD*%
D14*
%TO.C,C10*%
X53060140Y-86108489D03*
X51964124Y-87204505D03*
%TD*%
D12*
%TO.C,U6*%
X236200000Y-35050002D03*
X236200000Y-36950001D03*
X233800000Y-36000003D03*
%TD*%
D15*
%TO.C,R3*%
X31365000Y-98040000D03*
X29715000Y-98040000D03*
%TD*%
%TO.C,R9*%
X31500000Y-99500000D03*
X29850000Y-99500000D03*
%TD*%
D16*
%TO.C,SW_RESET1*%
X42900000Y-86350000D03*
X42900000Y-92650000D03*
X46700000Y-86350000D03*
X46700000Y-92650000D03*
%TD*%
D17*
%TO.C,J1*%
X27795000Y-100440000D03*
X27795000Y-99640000D03*
D18*
X27795000Y-98490000D03*
X27795000Y-97490000D03*
X27795000Y-96990000D03*
X27795000Y-95990000D03*
D17*
X27795000Y-94040000D03*
X27795000Y-94840000D03*
D18*
X27795000Y-95490000D03*
X27795000Y-96490000D03*
X27795000Y-97990000D03*
X27795000Y-98990000D03*
%TD*%
D19*
%TO.C,C3*%
X51300000Y-106225000D03*
X51300000Y-107775000D03*
%TD*%
D20*
%TO.C,C8*%
X55964124Y-86108489D03*
X57060140Y-87204505D03*
%TD*%
D21*
%TO.C,C11*%
X44525000Y-99000000D03*
X46075000Y-99000000D03*
%TD*%
D19*
%TO.C,C4*%
X58800000Y-106225000D03*
X58800000Y-107775000D03*
%TD*%
D12*
%TO.C,U8*%
X74100000Y-48550002D03*
X74100000Y-50450001D03*
X71700000Y-49500003D03*
%TD*%
%TO.C,U14*%
X237200000Y-71000000D03*
X237200000Y-72899999D03*
X234800000Y-71950001D03*
%TD*%
%TO.C,U7*%
X118900000Y-129049999D03*
X118900000Y-130949998D03*
X116500000Y-130000000D03*
%TD*%
D22*
%TO.C,R7*%
X61975000Y-102500000D03*
X63625000Y-102500000D03*
%TD*%
D12*
%TO.C,U13*%
X172700000Y-87500000D03*
X172700000Y-89399999D03*
X170300000Y-88450001D03*
%TD*%
%TO.C,U10*%
X104400000Y-62049999D03*
X104400000Y-63949998D03*
X102000000Y-63000000D03*
%TD*%
D23*
%TO.C,U1*%
X180569801Y-65130199D03*
X181219799Y-65130199D03*
X181869801Y-65130199D03*
X182519799Y-65130199D03*
X183169798Y-65130199D03*
X183819799Y-65130199D03*
X184469798Y-65130199D03*
X185119799Y-65130199D03*
X185119799Y-70819799D03*
X184469801Y-70819799D03*
X183819799Y-70819799D03*
X183169801Y-70819799D03*
X182519802Y-70819799D03*
X181869801Y-70819799D03*
X181219802Y-70819799D03*
X180569801Y-70819799D03*
%TD*%
D24*
%TO.C,Y2*%
X53168629Y-88868629D03*
X54724264Y-87312994D03*
X55855635Y-88444365D03*
X54300000Y-90000000D03*
%TD*%
D12*
%TO.C,U16*%
X95200000Y-29049999D03*
X95200000Y-30949998D03*
X92800000Y-30000000D03*
%TD*%
%TO.C,U18*%
X137500000Y-36100001D03*
X137500000Y-38000000D03*
X135100000Y-37050002D03*
%TD*%
D25*
%TO.C,D2*%
X31885000Y-91540000D03*
X31195000Y-91540000D03*
%TD*%
D12*
%TO.C,U19*%
X203900000Y-78049999D03*
X203900000Y-79949998D03*
X201500000Y-79000000D03*
%TD*%
%TO.C,U11*%
X141400000Y-65049999D03*
X141400000Y-66949998D03*
X139000000Y-66000000D03*
%TD*%
D15*
%TO.C,R5*%
X34865000Y-91540000D03*
X33215000Y-91540000D03*
%TD*%
D12*
%TO.C,U15*%
X157900000Y-29049999D03*
X157900000Y-30949998D03*
X155500000Y-30000000D03*
%TD*%
D23*
%TO.C,U3*%
X74725001Y-79655200D03*
X75374999Y-79655200D03*
X76025001Y-79655200D03*
X76674999Y-79655200D03*
X77324998Y-79655200D03*
X77974999Y-79655200D03*
X78624998Y-79655200D03*
X79274999Y-79655200D03*
X79274999Y-85344800D03*
X78625001Y-85344800D03*
X77974999Y-85344800D03*
X77325001Y-85344800D03*
X76675002Y-85344800D03*
X76025001Y-85344800D03*
X75375002Y-85344800D03*
X74725001Y-85344800D03*
%TD*%
D22*
%TO.C,R2*%
X29715000Y-96540000D03*
X31365000Y-96540000D03*
%TD*%
D13*
%TO.C,C6*%
X62300000Y-94775000D03*
X62300000Y-93225000D03*
%TD*%
D22*
%TO.C,R10*%
X32215000Y-93540000D03*
X33865000Y-93540000D03*
%TD*%
D12*
%TO.C,U9*%
X42900000Y-39100001D03*
X42900000Y-41000000D03*
X40500000Y-40050002D03*
%TD*%
D26*
%TO.C,R6*%
X48800000Y-87825000D03*
X48800000Y-86175000D03*
%TD*%
D12*
%TO.C,U17*%
X116200000Y-36049999D03*
X116200000Y-37949998D03*
X113800000Y-37000000D03*
%TD*%
D27*
%TO.C,C5*%
X46075000Y-97500000D03*
X44525000Y-97500000D03*
%TD*%
D12*
%TO.C,U5*%
X202900000Y-42100001D03*
X202900000Y-44000000D03*
X200500000Y-43050002D03*
%TD*%
D24*
%TO.C,*%
X53168629Y-88868629D03*
%TD*%
M02*
