%TF.GenerationSoftware,KiCad,Pcbnew,8.0.8*%
%TF.CreationDate,2025-02-16T17:42:49-08:00*%
%TF.ProjectId,MainBoard_RP2040,4d61696e-426f-4617-9264-5f5250323034,rev?*%
%TF.SameCoordinates,Original*%
%TF.FileFunction,Soldermask,Bot*%
%TF.FilePolarity,Negative*%
%FSLAX46Y46*%
G04 Gerber Fmt 4.6, Leading zero omitted, Abs format (unit mm)*
G04 Created by KiCad (PCBNEW 8.0.8) date 2025-02-16 17:42:49*
%MOMM*%
%LPD*%
G01*
G04 APERTURE LIST*
G04 Aperture macros list*
%AMRoundRect*
0 Rectangle with rounded corners*
0 $1 Rounding radius*
0 $2 $3 $4 $5 $6 $7 $8 $9 X,Y pos of 4 corners*
0 Add a 4 corners polygon primitive as box body*
4,1,4,$2,$3,$4,$5,$6,$7,$8,$9,$2,$3,0*
0 Add four circle primitives for the rounded corners*
1,1,$1+$1,$2,$3*
1,1,$1+$1,$4,$5*
1,1,$1+$1,$6,$7*
1,1,$1+$1,$8,$9*
0 Add four rect primitives between the rounded corners*
20,1,$1+$1,$2,$3,$4,$5,0*
20,1,$1+$1,$4,$5,$6,$7,0*
20,1,$1+$1,$6,$7,$8,$9,0*
20,1,$1+$1,$8,$9,$2,$3,0*%
%AMRotRect*
0 Rectangle, with rotation*
0 The origin of the aperture is its center*
0 $1 length*
0 $2 width*
0 $3 Rotation angle, in degrees counterclockwise*
0 Add horizontal line*
21,1,$1,$2,0,0,$3*%
G04 Aperture macros list end*
%ADD10C,0.010000*%
%ADD11C,1.530000*%
%ADD12O,1.800000X1.800000*%
%ADD13O,1.500000X1.500000*%
%ADD14O,1.700000X1.700000*%
%ADD15R,1.700000X1.700000*%
%ADD16R,1.500000X0.550000*%
%ADD17R,0.550000X1.500000*%
%ADD18R,1.000000X0.599999*%
%ADD19RoundRect,0.225000X0.250000X-0.225000X0.250000X0.225000X-0.250000X0.225000X-0.250000X-0.225000X0*%
%ADD20RoundRect,0.225000X-0.017678X0.335876X-0.335876X0.017678X0.017678X-0.335876X0.335876X-0.017678X0*%
%ADD21RoundRect,0.100000X0.130000X0.100000X-0.130000X0.100000X-0.130000X-0.100000X0.130000X-0.100000X0*%
%ADD22RoundRect,0.200000X0.200000X0.275000X-0.200000X0.275000X-0.200000X-0.275000X0.200000X-0.275000X0*%
%ADD23R,1.000000X1.700000*%
%ADD24C,0.650000*%
%ADD25O,2.304000X1.204000*%
%ADD26O,2.004000X1.204000*%
%ADD27RoundRect,0.225000X-0.250000X0.225000X-0.250000X-0.225000X0.250000X-0.225000X0.250000X0.225000X0*%
%ADD28RoundRect,0.225000X-0.335876X-0.017678X-0.017678X-0.335876X0.335876X0.017678X0.017678X0.335876X0*%
%ADD29RoundRect,0.225000X-0.225000X-0.250000X0.225000X-0.250000X0.225000X0.250000X-0.225000X0.250000X0*%
%ADD30RoundRect,0.200000X-0.200000X-0.275000X0.200000X-0.275000X0.200000X0.275000X-0.200000X0.275000X0*%
%ADD31R,0.355600X1.422400*%
%ADD32RotRect,1.400000X1.200000X45.000000*%
%ADD33RoundRect,0.200000X0.275000X-0.200000X0.275000X0.200000X-0.275000X0.200000X-0.275000X-0.200000X0*%
%ADD34RoundRect,0.225000X0.225000X0.250000X-0.225000X0.250000X-0.225000X-0.250000X0.225000X-0.250000X0*%
G04 APERTURE END LIST*
D10*
%TO.C,J1*%
X28420000Y-94390000D02*
X27170000Y-94390000D01*
X27170000Y-93690000D01*
X28420000Y-93690000D01*
X28420000Y-94390000D01*
G36*
X28420000Y-94390000D02*
G01*
X27170000Y-94390000D01*
X27170000Y-93690000D01*
X28420000Y-93690000D01*
X28420000Y-94390000D01*
G37*
X28420000Y-95190000D02*
X27170000Y-95190000D01*
X27170000Y-94490000D01*
X28420000Y-94490000D01*
X28420000Y-95190000D01*
G36*
X28420000Y-95190000D02*
G01*
X27170000Y-95190000D01*
X27170000Y-94490000D01*
X28420000Y-94490000D01*
X28420000Y-95190000D01*
G37*
X28420000Y-95690000D02*
X27170000Y-95690000D01*
X27170000Y-95290000D01*
X28420000Y-95290000D01*
X28420000Y-95690000D01*
G36*
X28420000Y-95690000D02*
G01*
X27170000Y-95690000D01*
X27170000Y-95290000D01*
X28420000Y-95290000D01*
X28420000Y-95690000D01*
G37*
X28420000Y-96190000D02*
X27170000Y-96190000D01*
X27170000Y-95790000D01*
X28420000Y-95790000D01*
X28420000Y-96190000D01*
G36*
X28420000Y-96190000D02*
G01*
X27170000Y-96190000D01*
X27170000Y-95790000D01*
X28420000Y-95790000D01*
X28420000Y-96190000D01*
G37*
X28420000Y-96690000D02*
X27170000Y-96690000D01*
X27170000Y-96290000D01*
X28420000Y-96290000D01*
X28420000Y-96690000D01*
G36*
X28420000Y-96690000D02*
G01*
X27170000Y-96690000D01*
X27170000Y-96290000D01*
X28420000Y-96290000D01*
X28420000Y-96690000D01*
G37*
X28420000Y-97190000D02*
X27170000Y-97190000D01*
X27170000Y-96790000D01*
X28420000Y-96790000D01*
X28420000Y-97190000D01*
G36*
X28420000Y-97190000D02*
G01*
X27170000Y-97190000D01*
X27170000Y-96790000D01*
X28420000Y-96790000D01*
X28420000Y-97190000D01*
G37*
X28420000Y-97690000D02*
X27170000Y-97690000D01*
X27170000Y-97290000D01*
X28420000Y-97290000D01*
X28420000Y-97690000D01*
G36*
X28420000Y-97690000D02*
G01*
X27170000Y-97690000D01*
X27170000Y-97290000D01*
X28420000Y-97290000D01*
X28420000Y-97690000D01*
G37*
X28420000Y-98190000D02*
X27170000Y-98190000D01*
X27170000Y-97790000D01*
X28420000Y-97790000D01*
X28420000Y-98190000D01*
G36*
X28420000Y-98190000D02*
G01*
X27170000Y-98190000D01*
X27170000Y-97790000D01*
X28420000Y-97790000D01*
X28420000Y-98190000D01*
G37*
X28420000Y-98690000D02*
X27170000Y-98690000D01*
X27170000Y-98290000D01*
X28420000Y-98290000D01*
X28420000Y-98690000D01*
G36*
X28420000Y-98690000D02*
G01*
X27170000Y-98690000D01*
X27170000Y-98290000D01*
X28420000Y-98290000D01*
X28420000Y-98690000D01*
G37*
X28420000Y-99190000D02*
X27170000Y-99190000D01*
X27170000Y-98790000D01*
X28420000Y-98790000D01*
X28420000Y-99190000D01*
G36*
X28420000Y-99190000D02*
G01*
X27170000Y-99190000D01*
X27170000Y-98790000D01*
X28420000Y-98790000D01*
X28420000Y-99190000D01*
G37*
X28420000Y-99990000D02*
X27170000Y-99990000D01*
X27170000Y-99290000D01*
X28420000Y-99290000D01*
X28420000Y-99990000D01*
G36*
X28420000Y-99990000D02*
G01*
X27170000Y-99990000D01*
X27170000Y-99290000D01*
X28420000Y-99290000D01*
X28420000Y-99990000D01*
G37*
X28420000Y-100790000D02*
X27170000Y-100790000D01*
X27170000Y-100090000D01*
X28420000Y-100090000D01*
X28420000Y-100790000D01*
G36*
X28420000Y-100790000D02*
G01*
X27170000Y-100790000D01*
X27170000Y-100090000D01*
X28420000Y-100090000D01*
X28420000Y-100790000D01*
G37*
%TD*%
D11*
%TO.C,U31*%
X196700000Y-43050002D03*
X206700000Y-43050002D03*
%TD*%
%TO.C,U29*%
X165500000Y-52500003D03*
X175500000Y-52500003D03*
%TD*%
%TO.C,U23*%
X151700000Y-30000000D03*
X161700000Y-30000000D03*
%TD*%
%TO.C,U35*%
X166500000Y-88450001D03*
X176500000Y-88450001D03*
%TD*%
%TO.C,U30*%
X197700000Y-79000000D03*
X207700000Y-79000000D03*
%TD*%
%TO.C,U27*%
X131300000Y-37050002D03*
X141300000Y-37050002D03*
%TD*%
%TO.C,U22*%
X110000000Y-37000000D03*
X120000000Y-37000000D03*
%TD*%
D12*
%TO.C,U37*%
X258275000Y-96500000D03*
D13*
X258575000Y-99530000D03*
X263425000Y-99530000D03*
D12*
X263725000Y-96500000D03*
D14*
X252110000Y-96370000D03*
X252110000Y-98910000D03*
D15*
X252110000Y-101450000D03*
D14*
X252110000Y-103990000D03*
X252110000Y-106530000D03*
X252110000Y-109070000D03*
X252110000Y-111610000D03*
D15*
X252110000Y-114150000D03*
D14*
X252110000Y-116690000D03*
X252110000Y-119230000D03*
X252110000Y-121770000D03*
X252110000Y-124310000D03*
D15*
X252110000Y-126850000D03*
D14*
X252110000Y-129390000D03*
X252110000Y-131930000D03*
X252110000Y-134470000D03*
X252110000Y-137010000D03*
D15*
X252110000Y-139550000D03*
D14*
X252110000Y-142090000D03*
X252110000Y-144630000D03*
X269890000Y-144630000D03*
X269890000Y-142090000D03*
D15*
X269890000Y-139550000D03*
D14*
X269890000Y-137010000D03*
X269890000Y-134470000D03*
X269890000Y-131930000D03*
X269890000Y-129390000D03*
D15*
X269890000Y-126850000D03*
D14*
X269890000Y-124310000D03*
X269890000Y-121770000D03*
X269890000Y-119230000D03*
X269890000Y-116690000D03*
D15*
X269890000Y-114150000D03*
D14*
X269890000Y-111610000D03*
X269890000Y-109070000D03*
X269890000Y-106530000D03*
X269890000Y-103990000D03*
D15*
X269890000Y-101450000D03*
D14*
X269890000Y-98910000D03*
X269890000Y-96370000D03*
X258460000Y-144400000D03*
D15*
X261000000Y-144400000D03*
D14*
X263540000Y-144400000D03*
%TD*%
D11*
%TO.C,U21*%
X89000000Y-30000000D03*
X99000000Y-30000000D03*
%TD*%
%TO.C,U26*%
X231000000Y-71950001D03*
X241000000Y-71950001D03*
%TD*%
%TO.C,U2*%
X36700000Y-40050002D03*
X46700000Y-40050002D03*
%TD*%
%TO.C,U24*%
X67900000Y-49500003D03*
X77900000Y-49500003D03*
%TD*%
%TO.C,U33*%
X112700000Y-130000000D03*
X122700000Y-130000000D03*
%TD*%
%TO.C,U32*%
X135200000Y-66000000D03*
X145200000Y-66000000D03*
%TD*%
%TO.C,U25*%
X230000000Y-36000003D03*
X240000000Y-36000003D03*
%TD*%
%TO.C,U28*%
X98200000Y-63000000D03*
X108200000Y-63000000D03*
%TD*%
%TO.C,U34*%
X136200000Y-101949998D03*
X146200000Y-101949998D03*
%TD*%
D16*
%TO.C,U20*%
X48800000Y-102500000D03*
X48800000Y-101700000D03*
X48800000Y-100900000D03*
X48800000Y-100100000D03*
X48800000Y-99300000D03*
X48800000Y-98500000D03*
X48800000Y-97700000D03*
X48800000Y-96900000D03*
X48800000Y-96100000D03*
X48800000Y-95300000D03*
X48800000Y-94500000D03*
D17*
X50500000Y-92800000D03*
X51300000Y-92800000D03*
X52100000Y-92800000D03*
X52900000Y-92800000D03*
X53700000Y-92800000D03*
X54500000Y-92800000D03*
X55300000Y-92800000D03*
X56100000Y-92800000D03*
X56900000Y-92800000D03*
X57700000Y-92800000D03*
X58500000Y-92800000D03*
D16*
X60200000Y-94500000D03*
X60200000Y-95300000D03*
X60200000Y-96100000D03*
X60200000Y-96900000D03*
X60200000Y-97700000D03*
X60200000Y-98500000D03*
X60200000Y-99300000D03*
X60200000Y-100100000D03*
X60200000Y-100900000D03*
X60200000Y-101700000D03*
X60200000Y-102500000D03*
D17*
X58500000Y-104200000D03*
X57700000Y-104200000D03*
X56900000Y-104200000D03*
X56100000Y-104200000D03*
X55300000Y-104200000D03*
X54500000Y-104200000D03*
X53700000Y-104200000D03*
X52900000Y-104200000D03*
X52100000Y-104200000D03*
X51300000Y-104200000D03*
X50500000Y-104200000D03*
%TD*%
D18*
%TO.C,U4*%
X171700000Y-51550002D03*
X171700000Y-53450001D03*
X169300000Y-52500003D03*
%TD*%
%TO.C,U12*%
X142400000Y-101049999D03*
X142400000Y-102949998D03*
X140000000Y-102000000D03*
%TD*%
D19*
%TO.C,C7*%
X50800000Y-91000000D03*
X50800000Y-89450000D03*
%TD*%
D20*
%TO.C,C10*%
X53060140Y-86108489D03*
X51964124Y-87204505D03*
%TD*%
D18*
%TO.C,U6*%
X236200000Y-35050002D03*
X236200000Y-36950001D03*
X233800000Y-36000003D03*
%TD*%
D21*
%TO.C,*%
X31860000Y-91540000D03*
%TD*%
D22*
%TO.C,R3*%
X31365000Y-98040000D03*
X29715000Y-98040000D03*
%TD*%
%TO.C,R9*%
X31500000Y-99500000D03*
X29850000Y-99500000D03*
%TD*%
D23*
%TO.C,SW_RESET1*%
X42900000Y-86350000D03*
X42900000Y-92650000D03*
X46700000Y-86350000D03*
X46700000Y-92650000D03*
%TD*%
D24*
%TO.C,J1*%
X26720000Y-100130000D03*
X26720000Y-94350000D03*
D25*
X27220000Y-101560000D03*
X27220000Y-92920000D03*
D26*
X23040000Y-101560000D03*
X23040000Y-92920000D03*
%TD*%
D27*
%TO.C,C3*%
X51300000Y-106225000D03*
X51300000Y-107775000D03*
%TD*%
D28*
%TO.C,C8*%
X55964124Y-86108489D03*
X57060140Y-87204505D03*
%TD*%
D29*
%TO.C,C11*%
X44525000Y-99000000D03*
X46075000Y-99000000D03*
%TD*%
D27*
%TO.C,C4*%
X58800000Y-106225000D03*
X58800000Y-107775000D03*
%TD*%
D18*
%TO.C,U8*%
X74100000Y-48550002D03*
X74100000Y-50450001D03*
X71700000Y-49500003D03*
%TD*%
%TO.C,U14*%
X237200000Y-71000000D03*
X237200000Y-72899999D03*
X234800000Y-71950001D03*
%TD*%
%TO.C,U7*%
X118900000Y-129049999D03*
X118900000Y-130949998D03*
X116500000Y-130000000D03*
%TD*%
D30*
%TO.C,R7*%
X61975000Y-102500000D03*
X63625000Y-102500000D03*
%TD*%
D18*
%TO.C,U13*%
X172700000Y-87500000D03*
X172700000Y-89399999D03*
X170300000Y-88450001D03*
%TD*%
%TO.C,U10*%
X104400000Y-62049999D03*
X104400000Y-63949998D03*
X102000000Y-63000000D03*
%TD*%
D31*
%TO.C,U1*%
X180569801Y-65130199D03*
X181219799Y-65130199D03*
X181869801Y-65130199D03*
X182519799Y-65130199D03*
X183169798Y-65130199D03*
X183819799Y-65130199D03*
X184469798Y-65130199D03*
X185119799Y-65130199D03*
X185119799Y-70819799D03*
X184469801Y-70819799D03*
X183819799Y-70819799D03*
X183169801Y-70819799D03*
X182519802Y-70819799D03*
X181869801Y-70819799D03*
X181219802Y-70819799D03*
X180569801Y-70819799D03*
%TD*%
D32*
%TO.C,Y2*%
X53168629Y-88868629D03*
X54724264Y-87312994D03*
X55855635Y-88444365D03*
X54300000Y-90000000D03*
%TD*%
D18*
%TO.C,U16*%
X95200000Y-29049999D03*
X95200000Y-30949998D03*
X92800000Y-30000000D03*
%TD*%
%TO.C,U18*%
X137500000Y-36100001D03*
X137500000Y-38000000D03*
X135100000Y-37050002D03*
%TD*%
D21*
%TO.C,D2*%
X31860000Y-91540000D03*
X31220000Y-91540000D03*
%TD*%
D18*
%TO.C,U19*%
X203900000Y-78049999D03*
X203900000Y-79949998D03*
X201500000Y-79000000D03*
%TD*%
%TO.C,U11*%
X141400000Y-65049999D03*
X141400000Y-66949998D03*
X139000000Y-66000000D03*
%TD*%
D22*
%TO.C,R5*%
X34865000Y-91540000D03*
X33215000Y-91540000D03*
%TD*%
D18*
%TO.C,U15*%
X157900000Y-29049999D03*
X157900000Y-30949998D03*
X155500000Y-30000000D03*
%TD*%
D31*
%TO.C,U3*%
X74725001Y-79655200D03*
X75374999Y-79655200D03*
X76025001Y-79655200D03*
X76674999Y-79655200D03*
X77324998Y-79655200D03*
X77974999Y-79655200D03*
X78624998Y-79655200D03*
X79274999Y-79655200D03*
X79274999Y-85344800D03*
X78625001Y-85344800D03*
X77974999Y-85344800D03*
X77325001Y-85344800D03*
X76675002Y-85344800D03*
X76025001Y-85344800D03*
X75375002Y-85344800D03*
X74725001Y-85344800D03*
%TD*%
D30*
%TO.C,R2*%
X29715000Y-96540000D03*
X31365000Y-96540000D03*
%TD*%
D19*
%TO.C,C6*%
X62300000Y-94775000D03*
X62300000Y-93225000D03*
%TD*%
D30*
%TO.C,R10*%
X32215000Y-93540000D03*
X33865000Y-93540000D03*
%TD*%
D18*
%TO.C,U9*%
X42900000Y-39100001D03*
X42900000Y-41000000D03*
X40500000Y-40050002D03*
%TD*%
D33*
%TO.C,R6*%
X48800000Y-87825000D03*
X48800000Y-86175000D03*
%TD*%
D18*
%TO.C,U17*%
X116200000Y-36049999D03*
X116200000Y-37949998D03*
X113800000Y-37000000D03*
%TD*%
D34*
%TO.C,C5*%
X46075000Y-97500000D03*
X44525000Y-97500000D03*
%TD*%
D18*
%TO.C,U5*%
X202900000Y-42100001D03*
X202900000Y-44000000D03*
X200500000Y-43050002D03*
%TD*%
D32*
%TO.C,*%
X53168629Y-88868629D03*
%TD*%
M02*
