%TF.GenerationSoftware,KiCad,Pcbnew,8.0.8*%
%TF.CreationDate,2025-02-16T17:42:49-08:00*%
%TF.ProjectId,MainBoard_RP2040,4d61696e-426f-4617-9264-5f5250323034,rev?*%
%TF.SameCoordinates,Original*%
%TF.FileFunction,Soldermask,Top*%
%TF.FilePolarity,Negative*%
%FSLAX46Y46*%
G04 Gerber Fmt 4.6, Leading zero omitted, Abs format (unit mm)*
G04 Created by KiCad (PCBNEW 8.0.8) date 2025-02-16 17:42:49*
%MOMM*%
%LPD*%
G01*
G04 APERTURE LIST*
G04 Aperture macros list*
%AMRoundRect*
0 Rectangle with rounded corners*
0 $1 Rounding radius*
0 $2 $3 $4 $5 $6 $7 $8 $9 X,Y pos of 4 corners*
0 Add a 4 corners polygon primitive as box body*
4,1,4,$2,$3,$4,$5,$6,$7,$8,$9,$2,$3,0*
0 Add four circle primitives for the rounded corners*
1,1,$1+$1,$2,$3*
1,1,$1+$1,$4,$5*
1,1,$1+$1,$6,$7*
1,1,$1+$1,$8,$9*
0 Add four rect primitives between the rounded corners*
20,1,$1+$1,$2,$3,$4,$5,0*
20,1,$1+$1,$4,$5,$6,$7,0*
20,1,$1+$1,$6,$7,$8,$9,0*
20,1,$1+$1,$8,$9,$2,$3,0*%
G04 Aperture macros list end*
%ADD10C,1.530000*%
%ADD11O,1.800000X1.800000*%
%ADD12O,1.500000X1.500000*%
%ADD13O,1.700000X1.700000*%
%ADD14R,3.500000X1.700000*%
%ADD15R,1.700000X1.700000*%
%ADD16R,1.700000X3.500000*%
%ADD17RoundRect,0.381000X0.381000X-2.619000X0.381000X2.619000X-0.381000X2.619000X-0.381000X-2.619000X0*%
%ADD18C,0.650000*%
%ADD19O,2.304000X1.204000*%
%ADD20O,2.004000X1.204000*%
G04 APERTURE END LIST*
D10*
%TO.C,U31*%
X196700000Y-43050002D03*
X206700000Y-43050002D03*
%TD*%
%TO.C,U29*%
X165500000Y-52500003D03*
X175500000Y-52500003D03*
%TD*%
%TO.C,U23*%
X151700000Y-30000000D03*
X161700000Y-30000000D03*
%TD*%
%TO.C,U35*%
X166500000Y-88450001D03*
X176500000Y-88450001D03*
%TD*%
%TO.C,U30*%
X197700000Y-79000000D03*
X207700000Y-79000000D03*
%TD*%
%TO.C,U27*%
X131300000Y-37050002D03*
X141300000Y-37050002D03*
%TD*%
%TO.C,U22*%
X110000000Y-37000000D03*
X120000000Y-37000000D03*
%TD*%
D11*
%TO.C,U37*%
X258275000Y-96500000D03*
D12*
X258575000Y-99530000D03*
X263425000Y-99530000D03*
D11*
X263725000Y-96500000D03*
D13*
X252110000Y-96370000D03*
D14*
X251210000Y-96370000D03*
D13*
X252110000Y-98910000D03*
D14*
X251210000Y-98910000D03*
D15*
X252110000Y-101450000D03*
D14*
X251210000Y-101450000D03*
D13*
X252110000Y-103990000D03*
D14*
X251210000Y-103990000D03*
D13*
X252110000Y-106530000D03*
D14*
X251210000Y-106530000D03*
D13*
X252110000Y-109070000D03*
D14*
X251210000Y-109070000D03*
D13*
X252110000Y-111610000D03*
D14*
X251210000Y-111610000D03*
D15*
X252110000Y-114150000D03*
D14*
X251210000Y-114150000D03*
D13*
X252110000Y-116690000D03*
D14*
X251210000Y-116690000D03*
D13*
X252110000Y-119230000D03*
D14*
X251210000Y-119230000D03*
D13*
X252110000Y-121770000D03*
D14*
X251210000Y-121770000D03*
D13*
X252110000Y-124310000D03*
D14*
X251210000Y-124310000D03*
D15*
X252110000Y-126850000D03*
D14*
X251210000Y-126850000D03*
D13*
X252110000Y-129390000D03*
D14*
X251210000Y-129390000D03*
D13*
X252110000Y-131930000D03*
D14*
X251210000Y-131930000D03*
D13*
X252110000Y-134470000D03*
D14*
X251210000Y-134470000D03*
D13*
X252110000Y-137010000D03*
D14*
X251210000Y-137010000D03*
D15*
X252110000Y-139550000D03*
D14*
X251210000Y-139550000D03*
D13*
X252110000Y-142090000D03*
D14*
X251210000Y-142090000D03*
D13*
X252110000Y-144630000D03*
D14*
X251210000Y-144630000D03*
D13*
X269890000Y-144630000D03*
D14*
X270790000Y-144630000D03*
D13*
X269890000Y-142090000D03*
D14*
X270790000Y-142090000D03*
D15*
X269890000Y-139550000D03*
D14*
X270790000Y-139550000D03*
D13*
X269890000Y-137010000D03*
D14*
X270790000Y-137010000D03*
D13*
X269890000Y-134470000D03*
D14*
X270790000Y-134470000D03*
D13*
X269890000Y-131930000D03*
D14*
X270790000Y-131930000D03*
D13*
X269890000Y-129390000D03*
D14*
X270790000Y-129390000D03*
D15*
X269890000Y-126850000D03*
D14*
X270790000Y-126850000D03*
D13*
X269890000Y-124310000D03*
D14*
X270790000Y-124310000D03*
D13*
X269890000Y-121770000D03*
D14*
X270790000Y-121770000D03*
D13*
X269890000Y-119230000D03*
D14*
X270790000Y-119230000D03*
D13*
X269890000Y-116690000D03*
D14*
X270790000Y-116690000D03*
D15*
X269890000Y-114150000D03*
D14*
X270790000Y-114150000D03*
D13*
X269890000Y-111610000D03*
D14*
X270790000Y-111610000D03*
D13*
X269890000Y-109070000D03*
D14*
X270790000Y-109070000D03*
D13*
X269890000Y-106530000D03*
D14*
X270790000Y-106530000D03*
D13*
X269890000Y-103990000D03*
D14*
X270790000Y-103990000D03*
D15*
X269890000Y-101450000D03*
D14*
X270790000Y-101450000D03*
D13*
X269890000Y-98910000D03*
D14*
X270790000Y-98910000D03*
D13*
X269890000Y-96370000D03*
D14*
X270790000Y-96370000D03*
D13*
X258460000Y-144400000D03*
D16*
X258460000Y-145300000D03*
D15*
X261000000Y-144400000D03*
D16*
X261000000Y-145300000D03*
D13*
X263540000Y-144400000D03*
D16*
X263540000Y-145300000D03*
%TD*%
D10*
%TO.C,U21*%
X89000000Y-30000000D03*
X99000000Y-30000000D03*
%TD*%
%TO.C,U26*%
X231000000Y-71950001D03*
X241000000Y-71950001D03*
%TD*%
%TO.C,U2*%
X36700000Y-40050002D03*
X46700000Y-40050002D03*
%TD*%
%TO.C,U24*%
X67900000Y-49500003D03*
X77900000Y-49500003D03*
%TD*%
%TO.C,U33*%
X112700000Y-130000000D03*
X122700000Y-130000000D03*
%TD*%
%TO.C,U32*%
X135200000Y-66000000D03*
X145200000Y-66000000D03*
%TD*%
D17*
%TO.C,U1*%
X258500000Y-84500000D03*
X261200000Y-84500000D03*
X263800000Y-84500000D03*
X266300000Y-84500000D03*
%TD*%
D10*
%TO.C,U25*%
X230000000Y-36000003D03*
X240000000Y-36000003D03*
%TD*%
%TO.C,U28*%
X98200000Y-63000000D03*
X108200000Y-63000000D03*
%TD*%
%TO.C,U34*%
X136200000Y-101949998D03*
X146200000Y-101949998D03*
%TD*%
D18*
%TO.C,J1*%
X26720000Y-100130000D03*
X26720000Y-94350000D03*
D19*
X27220000Y-101560000D03*
X27220000Y-92920000D03*
D20*
X23040000Y-101560000D03*
X23040000Y-92920000D03*
%TD*%
M02*
