M48
; DRILL file {KiCad 8.0.8} date 2025-04-29T22:55:41-0700
; FORMAT={-:-/ absolute / inch / decimal}
; #@! TF.CreationDate,2025-04-29T22:55:41-07:00
; #@! TF.GenerationSoftware,Kicad,Pcbnew,8.0.8
; #@! TF.FileFunction,Plated,1,2,PTH
FMAT,2
INCH
; #@! TA.AperFunction,Plated,PTH,ViaDrill
T1C0.0118
; #@! TA.AperFunction,Plated,PTH,ViaDrill
T2C0.0236
; #@! TA.AperFunction,Plated,PTH,ComponentDrill
T3C0.0236
; #@! TA.AperFunction,Plated,PTH,ComponentDrill
T4C0.0300
; #@! TA.AperFunction,Plated,PTH,ComponentDrill
T5C0.0394
%
G90
G05
T1
X1.2106Y-3.6516
X1.2894Y-4.0453
X1.3189Y-3.7402
X1.3189Y-3.937
X1.3583Y-2.0079
X1.3583Y-2.0669
X1.3583Y-2.1457
X1.378Y-3.4843
X1.4173Y-2.0079
X1.4173Y-2.0669
X1.4173Y-2.1457
X1.4173Y-3.7402
X1.4764Y-2.0079
X1.4764Y-2.0669
X1.4764Y-2.1457
X1.4764Y-3.7992
X1.5551Y-3.8583
X1.5748Y-3.5433
X1.6929Y-3.7992
X1.7126Y-3.2677
X1.7323Y-3.7598
X1.811Y-3.7205
X1.811Y-4.2126
X1.8307Y-3.7598
X1.8701Y-3.9173
X1.9488Y-3.0315
X1.9488Y-3.6614
X1.9685Y-3.1693
X1.9882Y-3.2874
X1.9882Y-3.4252
X2.0079Y-4.2913
X2.0669Y-3.8976
X2.0669Y-4.0157
X2.0669Y-4.1732
X2.1063Y-4.1732
X2.126Y-3.7205
X2.1457Y-4.1732
X2.185Y-3.8976
X2.185Y-3.9961
X2.2638Y-3.7205
X2.2638Y-4.2126
X2.2835Y-1.811
X2.2835Y-1.8701
X2.2835Y-1.9291
X2.2835Y-3.5827
X2.3228Y-3.6024
X2.3425Y-1.811
X2.3425Y-1.8701
X2.3425Y-1.9291
X2.3622Y-3.6614
X2.4016Y-1.811
X2.4016Y-1.8701
X2.4016Y-1.9291
X2.4213Y-3.3268
X2.4369Y-3.8542
X2.4398Y-3.8178
X2.4409Y-3.6024
X2.4409Y-3.7795
X2.5197Y-3.8976
X2.5197Y-3.937
X2.5197Y-3.9764
X2.5394Y-3.7008
X2.5591Y-4.3504
X2.5787Y-3.3465
X2.6181Y-3.6417
X2.6181Y-4.4882
X2.6378Y-3.6024
X2.6575Y-3.4055
X2.6575Y-4.0157
X2.6969Y-3.189
X2.7336Y-3.5984
X2.7362Y-3.7402
X2.7559Y-3.4055
X2.7559Y-3.6417
X2.8346Y-4.7244
X2.8543Y-3.1496
X2.874Y-3.563
X2.8937Y-3.622
X2.8937Y-3.7402
X2.9134Y-4.7835
X2.9331Y-3.4449
X2.9685Y-3.5984
X2.9724Y-3.4449
X2.9921Y-3.5433
X3.0118Y-3.4449
X3.0512Y-3.6811
X3.0709Y-3.4449
X3.1102Y-3.0118
X3.1211Y-3.7992
X3.1211Y-4.2628
X3.189Y-3.4449
X3.189Y-4.4685
X3.248Y-2.7362
X3.2874Y-2.8543
X3.3071Y-2.6575
X3.3465Y-2.1063
X3.3465Y-2.185
X3.3465Y-2.2638
X3.3661Y-2.815
X3.4252Y-2.1063
X3.4252Y-2.185
X3.4252Y-2.2638
X3.5039Y-2.1063
X3.5039Y-2.185
X3.5039Y-2.2638
X3.6024Y-4.2717
X3.6024Y-4.3307
X3.6024Y-4.3898
X3.6614Y-4.2717
X3.6614Y-4.3307
X3.6614Y-4.3898
X3.7008Y-1.7323
X3.7205Y-1.437
X3.7205Y-4.2717
X3.7205Y-4.3307
X3.7205Y-4.3898
X3.878Y-2.0079
X3.937Y-3.1496
X4.1929Y-1.9291
X4.2717Y-4.9213
X4.2717Y-5.2559
X4.4882Y-2.5197
X4.4882Y-2.6181
X4.5866Y-2.2047
X4.5866Y-2.5197
X4.5866Y-2.6181
X4.5866Y-2.6772
X4.5866Y-2.7559
X4.685Y-2.6772
X4.685Y-2.7559
X4.7047Y-2.2835
X4.7638Y-1.9291
X5.0394Y-2.3622
X5.0394Y-2.4213
X5.0394Y-2.4606
X5.0591Y-5.0197
X5.0787Y-2.3622
X5.0787Y-2.4213
X5.0787Y-2.4606
X5.1181Y-2.3622
X5.1181Y-2.4213
X5.1181Y-2.4606
X5.1772Y-3.9173
X5.4331Y-4.8228
X5.4331Y-4.9016
X5.4331Y-5.0
X5.4921Y-4.8228
X5.4921Y-4.9016
X5.4921Y-5.0
X5.5512Y-4.8228
X5.5512Y-4.9016
X5.5512Y-5.0
X5.7874Y-4.4094
X5.9449Y-3.4449
X6.0236Y-2.0669
X6.0236Y-2.1457
X6.0236Y-2.2244
X6.0236Y-2.3031
X6.0236Y-4.1732
X6.0433Y-1.5157
X6.1024Y-2.0669
X6.1024Y-2.1457
X6.1024Y-2.2244
X6.1024Y-2.3031
X6.1811Y-2.0669
X6.1811Y-2.1457
X6.1811Y-2.2244
X6.1811Y-2.3031
X6.2598Y-2.0669
X6.2598Y-2.1457
X6.2598Y-2.2244
X6.2598Y-2.3031
X6.4764Y-3.7992
X6.7815Y-1.1909
X6.9094Y-2.5787
X6.9094Y-2.6378
X6.9094Y-2.9724
X6.9094Y-3.0315
X6.9685Y-2.5197
X6.9685Y-2.5787
X6.9685Y-2.6378
X6.9685Y-2.9724
X6.9685Y-3.0315
X6.998Y-1.1909
X7.0276Y-2.5197
X7.0276Y-2.5787
X7.0276Y-2.6378
X7.0276Y-2.9724
X7.0669Y-2.815
X7.0669Y-2.8543
X7.0669Y-2.8937
X7.0866Y-2.5
X7.1063Y-1.6535
X7.1063Y-1.7126
X7.1063Y-1.7717
X7.126Y-3.2087
X7.1654Y-1.6535
X7.1654Y-1.7126
X7.1654Y-1.7717
X7.2244Y-1.6535
X7.2244Y-1.7126
X7.2244Y-1.7717
X7.2638Y-3.4646
X7.2638Y-3.5236
X7.2638Y-3.5827
X7.3228Y-3.4646
X7.3228Y-3.5236
X7.3228Y-3.5827
X7.3819Y-3.4646
X7.3819Y-3.5236
X7.3819Y-3.5827
X7.4409Y-2.3228
X7.5Y-2.8937
X7.5Y-2.9724
X7.5Y-3.0512
X7.5394Y-2.3819
X7.5787Y-2.8937
X7.5787Y-2.9724
X7.5787Y-3.0512
X7.6378Y-3.3661
X7.6575Y-2.8937
X7.6575Y-2.9724
X7.6575Y-3.0512
X7.8346Y-2.0669
X7.8543Y-4.7736
X7.9724Y-2.4606
X7.9724Y-2.5984
X8.002Y-5.0886
X8.1004Y-4.3701
X8.2087Y-4.8917
X8.4055Y-2.8937
X8.4055Y-2.9528
X8.4055Y-3.0118
X8.4252Y-1.437
X8.4252Y-1.4961
X8.4252Y-1.5551
X8.4363Y-5.3629
X8.4646Y-1.437
X8.4646Y-1.4961
X8.4646Y-1.5551
X8.4646Y-2.8937
X8.4646Y-2.9528
X8.4646Y-3.0118
X8.5039Y-1.437
X8.5039Y-1.4961
X8.5039Y-1.5551
X8.5236Y-2.8937
X8.5236Y-2.9528
X8.5236Y-3.0118
X8.5236Y-4.311
X8.5236Y-5.3937
X8.5433Y-5.3346
X8.5531Y-4.7736
X8.563Y-4.6063
X8.6417Y-5.2756
X8.6949Y-5.2461
X8.7008Y-5.3051
X8.7008Y-5.4331
X8.7008Y-5.748
X8.7598Y-2.5197
X8.7598Y-2.6181
X8.7598Y-2.7165
X8.7598Y-5.3543
X8.7795Y-4.5079
X8.7795Y-4.9606
X8.8091Y-5.46
X8.8091Y-5.5512
X8.8189Y-5.5906
X8.8287Y-5.6791
X8.8386Y-5.3937
X8.8484Y-4.7539
X8.8622Y-5.1476
X8.8681Y-5.7283
X8.878Y-2.5197
X8.878Y-2.6181
X8.878Y-2.7165
X8.878Y-5.2165
X8.8819Y-5.0787
X8.8976Y-4.813
X8.8976Y-5.6594
X8.9075Y-4.3701
X8.9075Y-4.5571
X8.9075Y-5.5118
X8.937Y-4.7835
X8.937Y-4.8819
X8.9665Y-4.1634
X8.9665Y-4.6457
X8.9961Y-2.5197
X8.9961Y-2.6181
X8.9961Y-2.7165
X9.0453Y-5.2953
X9.065Y-5.5217
X9.124Y-5.7087
X9.3012Y-5.6594
X9.3701Y-5.7382
X9.498Y-2.372
X9.5276Y-5.7382
X9.7146Y-5.6988
X9.8327Y-4.8819
X9.9016Y-5.7972
X10.0Y-4.2913
X10.0394Y-4.9213
X10.1083Y-4.2717
T2
X2.1063Y-1.4961
X2.7559Y-3.1496
X6.7323Y-3.0906
X6.752Y-3.2087
T4
X9.1762Y-4.2156
X9.1762Y-4.314
X9.1762Y-4.4124
X9.1762Y-4.5108
X9.1762Y-4.6093
X9.1762Y-4.7077
X9.1762Y-4.8061
X9.1762Y-4.9045
X9.1762Y-5.003
X9.1781Y-5.1014
X9.1781Y-5.2018
X9.373Y-4.0187
X9.373Y-5.3967
X9.4715Y-4.0187
X9.4715Y-5.3967
X9.5699Y-4.0187
X9.5699Y-5.3967
X9.6683Y-4.0187
X9.6683Y-5.3967
X9.7667Y-4.0187
X9.7667Y-5.3967
X9.8652Y-4.0187
X9.8652Y-5.3967
X9.9636Y-4.0187
X9.9636Y-5.3967
X10.062Y-4.0187
X10.062Y-5.3967
X10.1604Y-4.0187
X10.1604Y-5.3967
X10.2589Y-4.0187
X10.2589Y-5.3967
X10.3573Y-4.0187
X10.3573Y-5.3967
X10.5541Y-4.2156
X10.5541Y-4.314
X10.5541Y-4.4124
X10.5541Y-4.5108
X10.5541Y-4.6093
X10.5541Y-4.7077
X10.5541Y-4.8061
X10.5541Y-4.9045
X10.5541Y-5.003
X10.5541Y-5.1014
X10.5541Y-5.1998
T5
X2.0457Y-2.815
X2.0457Y-2.915
X2.0457Y-3.015
X2.1457Y-2.815
X2.1457Y-2.915
X2.1457Y-3.015
X7.0157Y-5.1476
X7.1157Y-5.1476
X7.2157Y-5.1476
X7.3157Y-5.1476
X10.123Y-3.2776
X10.223Y-3.2776
X10.323Y-3.2776
X10.423Y-3.2776
X10.523Y-3.2776
X10.623Y-3.2776
X10.723Y-3.2776
X10.7579Y-3.5236
T3
G00X0.8913Y-3.6583
M15
G01X0.9228Y-3.6583
M16
G05
G00X0.8913Y-3.9984
M15
G01X0.9228Y-3.9984
M16
G05
G00X1.05Y-3.6583
M15
G01X1.0933Y-3.6583
M16
G05
G00X1.05Y-3.9984
M15
G01X1.0933Y-3.9984
M16
G05
G00X6.7197Y-0.7835
M15
G01X6.7197Y-0.752
M16
G05
G00X6.7197Y-0.9539
M15
G01X6.7197Y-0.9106
M16
G05
G00X7.0598Y-0.7835
M15
G01X7.0598Y-0.752
M16
G05
G00X7.0598Y-0.9539
M15
G01X7.0598Y-0.9106
M16
G05
M30
