%TF.GenerationSoftware,KiCad,Pcbnew,8.0.8*%
%TF.CreationDate,2025-04-29T22:55:39-07:00*%
%TF.ProjectId,MainBoard_BrooksGen5XMini,4d61696e-426f-4617-9264-5f42726f6f6b,rev?*%
%TF.SameCoordinates,Original*%
%TF.FileFunction,Legend,Top*%
%TF.FilePolarity,Positive*%
%FSLAX46Y46*%
G04 Gerber Fmt 4.6, Leading zero omitted, Abs format (unit mm)*
G04 Created by KiCad (PCBNEW 8.0.8) date 2025-04-29 22:55:39*
%MOMM*%
%LPD*%
G01*
G04 APERTURE LIST*
%ADD10C,0.100000*%
%ADD11C,0.200000*%
%ADD12C,0.300000*%
%ADD13C,0.150000*%
%ADD14C,0.120000*%
G04 APERTURE END LIST*
D10*
X166700000Y-30000000D02*
G75*
G02*
X146700000Y-30000000I-10000000J0D01*
G01*
X146700000Y-30000000D02*
G75*
G02*
X166700000Y-30000000I10000000J0D01*
G01*
X132700000Y-130000000D02*
G75*
G02*
X102700000Y-130000000I-15000000J0D01*
G01*
X102700000Y-130000000D02*
G75*
G02*
X132700000Y-130000000I15000000J0D01*
G01*
X216700000Y-43050002D02*
G75*
G02*
X186700000Y-43050002I-15000000J0D01*
G01*
X186700000Y-43050002D02*
G75*
G02*
X216700000Y-43050002I15000000J0D01*
G01*
X56700000Y-40050002D02*
G75*
G02*
X26700000Y-40050002I-15000000J0D01*
G01*
X26700000Y-40050002D02*
G75*
G02*
X56700000Y-40050002I15000000J0D01*
G01*
X125000000Y-37000000D02*
G75*
G02*
X105000000Y-37000000I-10000000J0D01*
G01*
X105000000Y-37000000D02*
G75*
G02*
X125000000Y-37000000I10000000J0D01*
G01*
X118200000Y-63000000D02*
G75*
G02*
X88200000Y-63000000I-15000000J0D01*
G01*
X88200000Y-63000000D02*
G75*
G02*
X118200000Y-63000000I15000000J0D01*
G01*
X217700000Y-79000000D02*
G75*
G02*
X187700000Y-79000000I-15000000J0D01*
G01*
X187700000Y-79000000D02*
G75*
G02*
X217700000Y-79000000I15000000J0D01*
G01*
X156200000Y-101949998D02*
G75*
G02*
X126200000Y-101949998I-15000000J0D01*
G01*
X126200000Y-101949998D02*
G75*
G02*
X156200000Y-101949998I15000000J0D01*
G01*
X186500000Y-88450001D02*
G75*
G02*
X156500000Y-88450001I-15000000J0D01*
G01*
X156500000Y-88450001D02*
G75*
G02*
X186500000Y-88450001I15000000J0D01*
G01*
X185500000Y-52500003D02*
G75*
G02*
X155500000Y-52500003I-15000000J0D01*
G01*
X155500000Y-52500003D02*
G75*
G02*
X185500000Y-52500003I15000000J0D01*
G01*
X250000000Y-36000003D02*
G75*
G02*
X220000000Y-36000003I-15000000J0D01*
G01*
X220000000Y-36000003D02*
G75*
G02*
X250000000Y-36000003I15000000J0D01*
G01*
X146500000Y-37000000D02*
G75*
G02*
X126500000Y-37000000I-10000000J0D01*
G01*
X126500000Y-37000000D02*
G75*
G02*
X146500000Y-37000000I10000000J0D01*
G01*
X104200000Y-29949998D02*
G75*
G02*
X84200000Y-29949998I-10000000J0D01*
G01*
X84200000Y-29949998D02*
G75*
G02*
X104200000Y-29949998I10000000J0D01*
G01*
X87900000Y-49500003D02*
G75*
G02*
X57900000Y-49500003I-15000000J0D01*
G01*
X57900000Y-49500003D02*
G75*
G02*
X87900000Y-49500003I15000000J0D01*
G01*
X155200000Y-66000000D02*
G75*
G02*
X125200000Y-66000000I-15000000J0D01*
G01*
X125200000Y-66000000D02*
G75*
G02*
X155200000Y-66000000I15000000J0D01*
G01*
X251000000Y-71950001D02*
G75*
G02*
X221000000Y-71950001I-15000000J0D01*
G01*
X221000000Y-71950001D02*
G75*
G02*
X251000000Y-71950001I15000000J0D01*
G01*
D11*
X111072054Y-18055062D02*
X112214911Y-18055062D01*
X111643482Y-20055062D02*
X111643482Y-18055062D01*
X112881578Y-20055062D02*
X112881578Y-18721728D01*
X112881578Y-19102681D02*
X112976816Y-18912204D01*
X112976816Y-18912204D02*
X113072054Y-18816966D01*
X113072054Y-18816966D02*
X113262530Y-18721728D01*
X113262530Y-18721728D02*
X113453007Y-18721728D01*
X114119673Y-20055062D02*
X114119673Y-18721728D01*
X114119673Y-18055062D02*
X114024435Y-18150300D01*
X114024435Y-18150300D02*
X114119673Y-18245538D01*
X114119673Y-18245538D02*
X114214911Y-18150300D01*
X114214911Y-18150300D02*
X114119673Y-18055062D01*
X114119673Y-18055062D02*
X114119673Y-18245538D01*
X114976816Y-19959824D02*
X115167292Y-20055062D01*
X115167292Y-20055062D02*
X115548244Y-20055062D01*
X115548244Y-20055062D02*
X115738721Y-19959824D01*
X115738721Y-19959824D02*
X115833959Y-19769347D01*
X115833959Y-19769347D02*
X115833959Y-19674109D01*
X115833959Y-19674109D02*
X115738721Y-19483633D01*
X115738721Y-19483633D02*
X115548244Y-19388395D01*
X115548244Y-19388395D02*
X115262530Y-19388395D01*
X115262530Y-19388395D02*
X115072054Y-19293157D01*
X115072054Y-19293157D02*
X114976816Y-19102681D01*
X114976816Y-19102681D02*
X114976816Y-19007443D01*
X114976816Y-19007443D02*
X115072054Y-18816966D01*
X115072054Y-18816966D02*
X115262530Y-18721728D01*
X115262530Y-18721728D02*
X115548244Y-18721728D01*
X115548244Y-18721728D02*
X115738721Y-18816966D01*
X116405388Y-18721728D02*
X117167292Y-18721728D01*
X116691102Y-18055062D02*
X116691102Y-19769347D01*
X116691102Y-19769347D02*
X116786340Y-19959824D01*
X116786340Y-19959824D02*
X116976816Y-20055062D01*
X116976816Y-20055062D02*
X117167292Y-20055062D01*
X118691102Y-20055062D02*
X118691102Y-19007443D01*
X118691102Y-19007443D02*
X118595864Y-18816966D01*
X118595864Y-18816966D02*
X118405388Y-18721728D01*
X118405388Y-18721728D02*
X118024435Y-18721728D01*
X118024435Y-18721728D02*
X117833959Y-18816966D01*
X118691102Y-19959824D02*
X118500626Y-20055062D01*
X118500626Y-20055062D02*
X118024435Y-20055062D01*
X118024435Y-20055062D02*
X117833959Y-19959824D01*
X117833959Y-19959824D02*
X117738721Y-19769347D01*
X117738721Y-19769347D02*
X117738721Y-19578871D01*
X117738721Y-19578871D02*
X117833959Y-19388395D01*
X117833959Y-19388395D02*
X118024435Y-19293157D01*
X118024435Y-19293157D02*
X118500626Y-19293157D01*
X118500626Y-19293157D02*
X118691102Y-19197919D01*
X119643483Y-18721728D02*
X119643483Y-20055062D01*
X119643483Y-18912204D02*
X119738721Y-18816966D01*
X119738721Y-18816966D02*
X119929197Y-18721728D01*
X119929197Y-18721728D02*
X120214912Y-18721728D01*
X120214912Y-18721728D02*
X120405388Y-18816966D01*
X120405388Y-18816966D02*
X120500626Y-19007443D01*
X120500626Y-19007443D02*
X120500626Y-20055062D01*
X122976817Y-20055062D02*
X122976817Y-18055062D01*
X122976817Y-18055062D02*
X123643484Y-19483633D01*
X123643484Y-19483633D02*
X124310150Y-18055062D01*
X124310150Y-18055062D02*
X124310150Y-20055062D01*
X126024436Y-19959824D02*
X125833960Y-20055062D01*
X125833960Y-20055062D02*
X125453007Y-20055062D01*
X125453007Y-20055062D02*
X125262531Y-19959824D01*
X125262531Y-19959824D02*
X125167293Y-19769347D01*
X125167293Y-19769347D02*
X125167293Y-19007443D01*
X125167293Y-19007443D02*
X125262531Y-18816966D01*
X125262531Y-18816966D02*
X125453007Y-18721728D01*
X125453007Y-18721728D02*
X125833960Y-18721728D01*
X125833960Y-18721728D02*
X126024436Y-18816966D01*
X126024436Y-18816966D02*
X126119674Y-19007443D01*
X126119674Y-19007443D02*
X126119674Y-19197919D01*
X126119674Y-19197919D02*
X125167293Y-19388395D01*
X127262531Y-20055062D02*
X127072055Y-19959824D01*
X127072055Y-19959824D02*
X126976817Y-19769347D01*
X126976817Y-19769347D02*
X126976817Y-18055062D01*
X127738722Y-18721728D02*
X128500626Y-18721728D01*
X128024436Y-18055062D02*
X128024436Y-19769347D01*
X128024436Y-19769347D02*
X128119674Y-19959824D01*
X128119674Y-19959824D02*
X128310150Y-20055062D01*
X128310150Y-20055062D02*
X128500626Y-20055062D01*
X129453007Y-20055062D02*
X129262531Y-19959824D01*
X129262531Y-19959824D02*
X129167293Y-19864585D01*
X129167293Y-19864585D02*
X129072055Y-19674109D01*
X129072055Y-19674109D02*
X129072055Y-19102681D01*
X129072055Y-19102681D02*
X129167293Y-18912204D01*
X129167293Y-18912204D02*
X129262531Y-18816966D01*
X129262531Y-18816966D02*
X129453007Y-18721728D01*
X129453007Y-18721728D02*
X129738722Y-18721728D01*
X129738722Y-18721728D02*
X129929198Y-18816966D01*
X129929198Y-18816966D02*
X130024436Y-18912204D01*
X130024436Y-18912204D02*
X130119674Y-19102681D01*
X130119674Y-19102681D02*
X130119674Y-19674109D01*
X130119674Y-19674109D02*
X130024436Y-19864585D01*
X130024436Y-19864585D02*
X129929198Y-19959824D01*
X129929198Y-19959824D02*
X129738722Y-20055062D01*
X129738722Y-20055062D02*
X129453007Y-20055062D01*
X130976817Y-18721728D02*
X130976817Y-20055062D01*
X130976817Y-18912204D02*
X131072055Y-18816966D01*
X131072055Y-18816966D02*
X131262531Y-18721728D01*
X131262531Y-18721728D02*
X131548246Y-18721728D01*
X131548246Y-18721728D02*
X131738722Y-18816966D01*
X131738722Y-18816966D02*
X131833960Y-19007443D01*
X131833960Y-19007443D02*
X131833960Y-20055062D01*
X112024435Y-22227331D02*
X111357768Y-22227331D01*
X111357768Y-23274950D02*
X111357768Y-21274950D01*
X111357768Y-21274950D02*
X112310149Y-21274950D01*
X113929197Y-23274950D02*
X113929197Y-22227331D01*
X113929197Y-22227331D02*
X113833959Y-22036854D01*
X113833959Y-22036854D02*
X113643483Y-21941616D01*
X113643483Y-21941616D02*
X113262530Y-21941616D01*
X113262530Y-21941616D02*
X113072054Y-22036854D01*
X113929197Y-23179712D02*
X113738721Y-23274950D01*
X113738721Y-23274950D02*
X113262530Y-23274950D01*
X113262530Y-23274950D02*
X113072054Y-23179712D01*
X113072054Y-23179712D02*
X112976816Y-22989235D01*
X112976816Y-22989235D02*
X112976816Y-22798759D01*
X112976816Y-22798759D02*
X113072054Y-22608283D01*
X113072054Y-22608283D02*
X113262530Y-22513045D01*
X113262530Y-22513045D02*
X113738721Y-22513045D01*
X113738721Y-22513045D02*
X113929197Y-22417807D01*
X114881578Y-23274950D02*
X114881578Y-21941616D01*
X114881578Y-22322569D02*
X114976816Y-22132092D01*
X114976816Y-22132092D02*
X115072054Y-22036854D01*
X115072054Y-22036854D02*
X115262530Y-21941616D01*
X115262530Y-21941616D02*
X115453007Y-21941616D01*
X116976816Y-23274950D02*
X116976816Y-22227331D01*
X116976816Y-22227331D02*
X116881578Y-22036854D01*
X116881578Y-22036854D02*
X116691102Y-21941616D01*
X116691102Y-21941616D02*
X116310149Y-21941616D01*
X116310149Y-21941616D02*
X116119673Y-22036854D01*
X116976816Y-23179712D02*
X116786340Y-23274950D01*
X116786340Y-23274950D02*
X116310149Y-23274950D01*
X116310149Y-23274950D02*
X116119673Y-23179712D01*
X116119673Y-23179712D02*
X116024435Y-22989235D01*
X116024435Y-22989235D02*
X116024435Y-22798759D01*
X116024435Y-22798759D02*
X116119673Y-22608283D01*
X116119673Y-22608283D02*
X116310149Y-22513045D01*
X116310149Y-22513045D02*
X116786340Y-22513045D01*
X116786340Y-22513045D02*
X116976816Y-22417807D01*
X118786340Y-23274950D02*
X118786340Y-21274950D01*
X118786340Y-23179712D02*
X118595864Y-23274950D01*
X118595864Y-23274950D02*
X118214911Y-23274950D01*
X118214911Y-23274950D02*
X118024435Y-23179712D01*
X118024435Y-23179712D02*
X117929197Y-23084473D01*
X117929197Y-23084473D02*
X117833959Y-22893997D01*
X117833959Y-22893997D02*
X117833959Y-22322569D01*
X117833959Y-22322569D02*
X117929197Y-22132092D01*
X117929197Y-22132092D02*
X118024435Y-22036854D01*
X118024435Y-22036854D02*
X118214911Y-21941616D01*
X118214911Y-21941616D02*
X118595864Y-21941616D01*
X118595864Y-21941616D02*
X118786340Y-22036854D01*
X120595864Y-23274950D02*
X120595864Y-22227331D01*
X120595864Y-22227331D02*
X120500626Y-22036854D01*
X120500626Y-22036854D02*
X120310150Y-21941616D01*
X120310150Y-21941616D02*
X119929197Y-21941616D01*
X119929197Y-21941616D02*
X119738721Y-22036854D01*
X120595864Y-23179712D02*
X120405388Y-23274950D01*
X120405388Y-23274950D02*
X119929197Y-23274950D01*
X119929197Y-23274950D02*
X119738721Y-23179712D01*
X119738721Y-23179712D02*
X119643483Y-22989235D01*
X119643483Y-22989235D02*
X119643483Y-22798759D01*
X119643483Y-22798759D02*
X119738721Y-22608283D01*
X119738721Y-22608283D02*
X119929197Y-22513045D01*
X119929197Y-22513045D02*
X120405388Y-22513045D01*
X120405388Y-22513045D02*
X120595864Y-22417807D01*
X121357769Y-21941616D02*
X121833959Y-23274950D01*
X122310150Y-21941616D02*
X121833959Y-23274950D01*
X121833959Y-23274950D02*
X121643483Y-23751140D01*
X121643483Y-23751140D02*
X121548245Y-23846378D01*
X121548245Y-23846378D02*
X121357769Y-23941616D01*
X123738722Y-22227331D02*
X123072055Y-22227331D01*
X123072055Y-23274950D02*
X123072055Y-21274950D01*
X123072055Y-21274950D02*
X124024436Y-21274950D01*
X124786341Y-23274950D02*
X124786341Y-21941616D01*
X124786341Y-21274950D02*
X124691103Y-21370188D01*
X124691103Y-21370188D02*
X124786341Y-21465426D01*
X124786341Y-21465426D02*
X124881579Y-21370188D01*
X124881579Y-21370188D02*
X124786341Y-21274950D01*
X124786341Y-21274950D02*
X124786341Y-21465426D01*
X126595865Y-21941616D02*
X126595865Y-23560664D01*
X126595865Y-23560664D02*
X126500627Y-23751140D01*
X126500627Y-23751140D02*
X126405389Y-23846378D01*
X126405389Y-23846378D02*
X126214912Y-23941616D01*
X126214912Y-23941616D02*
X125929198Y-23941616D01*
X125929198Y-23941616D02*
X125738722Y-23846378D01*
X126595865Y-23179712D02*
X126405389Y-23274950D01*
X126405389Y-23274950D02*
X126024436Y-23274950D01*
X126024436Y-23274950D02*
X125833960Y-23179712D01*
X125833960Y-23179712D02*
X125738722Y-23084473D01*
X125738722Y-23084473D02*
X125643484Y-22893997D01*
X125643484Y-22893997D02*
X125643484Y-22322569D01*
X125643484Y-22322569D02*
X125738722Y-22132092D01*
X125738722Y-22132092D02*
X125833960Y-22036854D01*
X125833960Y-22036854D02*
X126024436Y-21941616D01*
X126024436Y-21941616D02*
X126405389Y-21941616D01*
X126405389Y-21941616D02*
X126595865Y-22036854D01*
X127548246Y-23274950D02*
X127548246Y-21274950D01*
X128405389Y-23274950D02*
X128405389Y-22227331D01*
X128405389Y-22227331D02*
X128310151Y-22036854D01*
X128310151Y-22036854D02*
X128119675Y-21941616D01*
X128119675Y-21941616D02*
X127833960Y-21941616D01*
X127833960Y-21941616D02*
X127643484Y-22036854D01*
X127643484Y-22036854D02*
X127548246Y-22132092D01*
X129072056Y-21941616D02*
X129833960Y-21941616D01*
X129357770Y-21274950D02*
X129357770Y-22989235D01*
X129357770Y-22989235D02*
X129453008Y-23179712D01*
X129453008Y-23179712D02*
X129643484Y-23274950D01*
X129643484Y-23274950D02*
X129833960Y-23274950D01*
X130405389Y-23179712D02*
X130595865Y-23274950D01*
X130595865Y-23274950D02*
X130976817Y-23274950D01*
X130976817Y-23274950D02*
X131167294Y-23179712D01*
X131167294Y-23179712D02*
X131262532Y-22989235D01*
X131262532Y-22989235D02*
X131262532Y-22893997D01*
X131262532Y-22893997D02*
X131167294Y-22703521D01*
X131167294Y-22703521D02*
X130976817Y-22608283D01*
X130976817Y-22608283D02*
X130691103Y-22608283D01*
X130691103Y-22608283D02*
X130500627Y-22513045D01*
X130500627Y-22513045D02*
X130405389Y-22322569D01*
X130405389Y-22322569D02*
X130405389Y-22227331D01*
X130405389Y-22227331D02*
X130500627Y-22036854D01*
X130500627Y-22036854D02*
X130691103Y-21941616D01*
X130691103Y-21941616D02*
X130976817Y-21941616D01*
X130976817Y-21941616D02*
X131167294Y-22036854D01*
X131833961Y-21941616D02*
X132595865Y-21941616D01*
X132119675Y-21274950D02*
X132119675Y-22989235D01*
X132119675Y-22989235D02*
X132214913Y-23179712D01*
X132214913Y-23179712D02*
X132405389Y-23274950D01*
X132405389Y-23274950D02*
X132595865Y-23274950D01*
X133262532Y-23274950D02*
X133262532Y-21941616D01*
X133262532Y-21274950D02*
X133167294Y-21370188D01*
X133167294Y-21370188D02*
X133262532Y-21465426D01*
X133262532Y-21465426D02*
X133357770Y-21370188D01*
X133357770Y-21370188D02*
X133262532Y-21274950D01*
X133262532Y-21274950D02*
X133262532Y-21465426D01*
X135072056Y-23179712D02*
X134881580Y-23274950D01*
X134881580Y-23274950D02*
X134500627Y-23274950D01*
X134500627Y-23274950D02*
X134310151Y-23179712D01*
X134310151Y-23179712D02*
X134214913Y-23084473D01*
X134214913Y-23084473D02*
X134119675Y-22893997D01*
X134119675Y-22893997D02*
X134119675Y-22322569D01*
X134119675Y-22322569D02*
X134214913Y-22132092D01*
X134214913Y-22132092D02*
X134310151Y-22036854D01*
X134310151Y-22036854D02*
X134500627Y-21941616D01*
X134500627Y-21941616D02*
X134881580Y-21941616D01*
X134881580Y-21941616D02*
X135072056Y-22036854D01*
X135929199Y-23274950D02*
X135929199Y-21274950D01*
X136119675Y-22513045D02*
X136691104Y-23274950D01*
X136691104Y-21941616D02*
X135929199Y-22703521D01*
X138881581Y-21941616D02*
X139357771Y-23274950D01*
X139357771Y-23274950D02*
X139833962Y-21941616D01*
X141643486Y-23274950D02*
X140500629Y-23274950D01*
X141072057Y-23274950D02*
X141072057Y-21274950D01*
X141072057Y-21274950D02*
X140881581Y-21560664D01*
X140881581Y-21560664D02*
X140691105Y-21751140D01*
X140691105Y-21751140D02*
X140500629Y-21846378D01*
X142500629Y-23084473D02*
X142595867Y-23179712D01*
X142595867Y-23179712D02*
X142500629Y-23274950D01*
X142500629Y-23274950D02*
X142405391Y-23179712D01*
X142405391Y-23179712D02*
X142500629Y-23084473D01*
X142500629Y-23084473D02*
X142500629Y-23274950D01*
X144500629Y-23274950D02*
X143357772Y-23274950D01*
X143929200Y-23274950D02*
X143929200Y-21274950D01*
X143929200Y-21274950D02*
X143738724Y-21560664D01*
X143738724Y-21560664D02*
X143548248Y-21751140D01*
X143548248Y-21751140D02*
X143357772Y-21846378D01*
X112405387Y-24590076D02*
X112214911Y-24494838D01*
X112214911Y-24494838D02*
X111929197Y-24494838D01*
X111929197Y-24494838D02*
X111643482Y-24590076D01*
X111643482Y-24590076D02*
X111453006Y-24780552D01*
X111453006Y-24780552D02*
X111357768Y-24971028D01*
X111357768Y-24971028D02*
X111262530Y-25351980D01*
X111262530Y-25351980D02*
X111262530Y-25637695D01*
X111262530Y-25637695D02*
X111357768Y-26018647D01*
X111357768Y-26018647D02*
X111453006Y-26209123D01*
X111453006Y-26209123D02*
X111643482Y-26399600D01*
X111643482Y-26399600D02*
X111929197Y-26494838D01*
X111929197Y-26494838D02*
X112119673Y-26494838D01*
X112119673Y-26494838D02*
X112405387Y-26399600D01*
X112405387Y-26399600D02*
X112500625Y-26304361D01*
X112500625Y-26304361D02*
X112500625Y-25637695D01*
X112500625Y-25637695D02*
X112119673Y-25637695D01*
X114119673Y-26399600D02*
X113929197Y-26494838D01*
X113929197Y-26494838D02*
X113548244Y-26494838D01*
X113548244Y-26494838D02*
X113357768Y-26399600D01*
X113357768Y-26399600D02*
X113262530Y-26209123D01*
X113262530Y-26209123D02*
X113262530Y-25447219D01*
X113262530Y-25447219D02*
X113357768Y-25256742D01*
X113357768Y-25256742D02*
X113548244Y-25161504D01*
X113548244Y-25161504D02*
X113929197Y-25161504D01*
X113929197Y-25161504D02*
X114119673Y-25256742D01*
X114119673Y-25256742D02*
X114214911Y-25447219D01*
X114214911Y-25447219D02*
X114214911Y-25637695D01*
X114214911Y-25637695D02*
X113262530Y-25828171D01*
X115072054Y-25161504D02*
X115072054Y-26494838D01*
X115072054Y-25351980D02*
X115167292Y-25256742D01*
X115167292Y-25256742D02*
X115357768Y-25161504D01*
X115357768Y-25161504D02*
X115643483Y-25161504D01*
X115643483Y-25161504D02*
X115833959Y-25256742D01*
X115833959Y-25256742D02*
X115929197Y-25447219D01*
X115929197Y-25447219D02*
X115929197Y-26494838D01*
X116881578Y-25732933D02*
X118405388Y-25732933D01*
X120310149Y-24494838D02*
X119357768Y-24494838D01*
X119357768Y-24494838D02*
X119262530Y-25447219D01*
X119262530Y-25447219D02*
X119357768Y-25351980D01*
X119357768Y-25351980D02*
X119548244Y-25256742D01*
X119548244Y-25256742D02*
X120024435Y-25256742D01*
X120024435Y-25256742D02*
X120214911Y-25351980D01*
X120214911Y-25351980D02*
X120310149Y-25447219D01*
X120310149Y-25447219D02*
X120405387Y-25637695D01*
X120405387Y-25637695D02*
X120405387Y-26113885D01*
X120405387Y-26113885D02*
X120310149Y-26304361D01*
X120310149Y-26304361D02*
X120214911Y-26399600D01*
X120214911Y-26399600D02*
X120024435Y-26494838D01*
X120024435Y-26494838D02*
X119548244Y-26494838D01*
X119548244Y-26494838D02*
X119357768Y-26399600D01*
X119357768Y-26399600D02*
X119262530Y-26304361D01*
X121072054Y-24494838D02*
X122405387Y-26494838D01*
X122405387Y-24494838D02*
X121072054Y-26494838D01*
D12*
X252037019Y-132998809D02*
X252132257Y-132713095D01*
X252132257Y-132713095D02*
X252227495Y-132617857D01*
X252227495Y-132617857D02*
X252417971Y-132522619D01*
X252417971Y-132522619D02*
X252703685Y-132522619D01*
X252703685Y-132522619D02*
X252894161Y-132617857D01*
X252894161Y-132617857D02*
X252989400Y-132713095D01*
X252989400Y-132713095D02*
X253084638Y-132903571D01*
X253084638Y-132903571D02*
X253084638Y-133665476D01*
X253084638Y-133665476D02*
X251084638Y-133665476D01*
X251084638Y-133665476D02*
X251084638Y-132998809D01*
X251084638Y-132998809D02*
X251179876Y-132808333D01*
X251179876Y-132808333D02*
X251275114Y-132713095D01*
X251275114Y-132713095D02*
X251465590Y-132617857D01*
X251465590Y-132617857D02*
X251656066Y-132617857D01*
X251656066Y-132617857D02*
X251846542Y-132713095D01*
X251846542Y-132713095D02*
X251941780Y-132808333D01*
X251941780Y-132808333D02*
X252037019Y-132998809D01*
X252037019Y-132998809D02*
X252037019Y-133665476D01*
X253084638Y-131665476D02*
X251751304Y-131665476D01*
X252132257Y-131665476D02*
X251941780Y-131570238D01*
X251941780Y-131570238D02*
X251846542Y-131475000D01*
X251846542Y-131475000D02*
X251751304Y-131284524D01*
X251751304Y-131284524D02*
X251751304Y-131094047D01*
X253084638Y-130141667D02*
X252989400Y-130332143D01*
X252989400Y-130332143D02*
X252894161Y-130427381D01*
X252894161Y-130427381D02*
X252703685Y-130522619D01*
X252703685Y-130522619D02*
X252132257Y-130522619D01*
X252132257Y-130522619D02*
X251941780Y-130427381D01*
X251941780Y-130427381D02*
X251846542Y-130332143D01*
X251846542Y-130332143D02*
X251751304Y-130141667D01*
X251751304Y-130141667D02*
X251751304Y-129855952D01*
X251751304Y-129855952D02*
X251846542Y-129665476D01*
X251846542Y-129665476D02*
X251941780Y-129570238D01*
X251941780Y-129570238D02*
X252132257Y-129475000D01*
X252132257Y-129475000D02*
X252703685Y-129475000D01*
X252703685Y-129475000D02*
X252894161Y-129570238D01*
X252894161Y-129570238D02*
X252989400Y-129665476D01*
X252989400Y-129665476D02*
X253084638Y-129855952D01*
X253084638Y-129855952D02*
X253084638Y-130141667D01*
X253084638Y-128332143D02*
X252989400Y-128522619D01*
X252989400Y-128522619D02*
X252894161Y-128617857D01*
X252894161Y-128617857D02*
X252703685Y-128713095D01*
X252703685Y-128713095D02*
X252132257Y-128713095D01*
X252132257Y-128713095D02*
X251941780Y-128617857D01*
X251941780Y-128617857D02*
X251846542Y-128522619D01*
X251846542Y-128522619D02*
X251751304Y-128332143D01*
X251751304Y-128332143D02*
X251751304Y-128046428D01*
X251751304Y-128046428D02*
X251846542Y-127855952D01*
X251846542Y-127855952D02*
X251941780Y-127760714D01*
X251941780Y-127760714D02*
X252132257Y-127665476D01*
X252132257Y-127665476D02*
X252703685Y-127665476D01*
X252703685Y-127665476D02*
X252894161Y-127760714D01*
X252894161Y-127760714D02*
X252989400Y-127855952D01*
X252989400Y-127855952D02*
X253084638Y-128046428D01*
X253084638Y-128046428D02*
X253084638Y-128332143D01*
X253084638Y-126808333D02*
X251084638Y-126808333D01*
X252322733Y-126617857D02*
X253084638Y-126046428D01*
X251751304Y-126046428D02*
X252513209Y-126808333D01*
X251179876Y-122617856D02*
X251084638Y-122808332D01*
X251084638Y-122808332D02*
X251084638Y-123094046D01*
X251084638Y-123094046D02*
X251179876Y-123379761D01*
X251179876Y-123379761D02*
X251370352Y-123570237D01*
X251370352Y-123570237D02*
X251560828Y-123665475D01*
X251560828Y-123665475D02*
X251941780Y-123760713D01*
X251941780Y-123760713D02*
X252227495Y-123760713D01*
X252227495Y-123760713D02*
X252608447Y-123665475D01*
X252608447Y-123665475D02*
X252798923Y-123570237D01*
X252798923Y-123570237D02*
X252989400Y-123379761D01*
X252989400Y-123379761D02*
X253084638Y-123094046D01*
X253084638Y-123094046D02*
X253084638Y-122903570D01*
X253084638Y-122903570D02*
X252989400Y-122617856D01*
X252989400Y-122617856D02*
X252894161Y-122522618D01*
X252894161Y-122522618D02*
X252227495Y-122522618D01*
X252227495Y-122522618D02*
X252227495Y-122903570D01*
X252989400Y-120903570D02*
X253084638Y-121094046D01*
X253084638Y-121094046D02*
X253084638Y-121474999D01*
X253084638Y-121474999D02*
X252989400Y-121665475D01*
X252989400Y-121665475D02*
X252798923Y-121760713D01*
X252798923Y-121760713D02*
X252037019Y-121760713D01*
X252037019Y-121760713D02*
X251846542Y-121665475D01*
X251846542Y-121665475D02*
X251751304Y-121474999D01*
X251751304Y-121474999D02*
X251751304Y-121094046D01*
X251751304Y-121094046D02*
X251846542Y-120903570D01*
X251846542Y-120903570D02*
X252037019Y-120808332D01*
X252037019Y-120808332D02*
X252227495Y-120808332D01*
X252227495Y-120808332D02*
X252417971Y-121760713D01*
X251751304Y-119951189D02*
X253084638Y-119951189D01*
X251941780Y-119951189D02*
X251846542Y-119855951D01*
X251846542Y-119855951D02*
X251751304Y-119665475D01*
X251751304Y-119665475D02*
X251751304Y-119379760D01*
X251751304Y-119379760D02*
X251846542Y-119189284D01*
X251846542Y-119189284D02*
X252037019Y-119094046D01*
X252037019Y-119094046D02*
X253084638Y-119094046D01*
X252322733Y-118141665D02*
X252322733Y-116617856D01*
X251084638Y-114713094D02*
X251084638Y-115665475D01*
X251084638Y-115665475D02*
X252037019Y-115760713D01*
X252037019Y-115760713D02*
X251941780Y-115665475D01*
X251941780Y-115665475D02*
X251846542Y-115474999D01*
X251846542Y-115474999D02*
X251846542Y-114998808D01*
X251846542Y-114998808D02*
X251941780Y-114808332D01*
X251941780Y-114808332D02*
X252037019Y-114713094D01*
X252037019Y-114713094D02*
X252227495Y-114617856D01*
X252227495Y-114617856D02*
X252703685Y-114617856D01*
X252703685Y-114617856D02*
X252894161Y-114713094D01*
X252894161Y-114713094D02*
X252989400Y-114808332D01*
X252989400Y-114808332D02*
X253084638Y-114998808D01*
X253084638Y-114998808D02*
X253084638Y-115474999D01*
X253084638Y-115474999D02*
X252989400Y-115665475D01*
X252989400Y-115665475D02*
X252894161Y-115760713D01*
X251084638Y-113951189D02*
X253084638Y-112617856D01*
X251084638Y-112617856D02*
X253084638Y-113951189D01*
X253084638Y-110332141D02*
X251084638Y-110332141D01*
X251084638Y-110332141D02*
X252513209Y-109665474D01*
X252513209Y-109665474D02*
X251084638Y-108998808D01*
X251084638Y-108998808D02*
X253084638Y-108998808D01*
X253084638Y-108046427D02*
X251751304Y-108046427D01*
X251084638Y-108046427D02*
X251179876Y-108141665D01*
X251179876Y-108141665D02*
X251275114Y-108046427D01*
X251275114Y-108046427D02*
X251179876Y-107951189D01*
X251179876Y-107951189D02*
X251084638Y-108046427D01*
X251084638Y-108046427D02*
X251275114Y-108046427D01*
X251751304Y-107094046D02*
X253084638Y-107094046D01*
X251941780Y-107094046D02*
X251846542Y-106998808D01*
X251846542Y-106998808D02*
X251751304Y-106808332D01*
X251751304Y-106808332D02*
X251751304Y-106522617D01*
X251751304Y-106522617D02*
X251846542Y-106332141D01*
X251846542Y-106332141D02*
X252037019Y-106236903D01*
X252037019Y-106236903D02*
X253084638Y-106236903D01*
X253084638Y-105284522D02*
X251751304Y-105284522D01*
X251084638Y-105284522D02*
X251179876Y-105379760D01*
X251179876Y-105379760D02*
X251275114Y-105284522D01*
X251275114Y-105284522D02*
X251179876Y-105189284D01*
X251179876Y-105189284D02*
X251084638Y-105284522D01*
X251084638Y-105284522D02*
X251275114Y-105284522D01*
D10*
X246371115Y-105102580D02*
X246371115Y-104293057D01*
X246371115Y-104293057D02*
X246323496Y-104197819D01*
X246323496Y-104197819D02*
X246275877Y-104150200D01*
X246275877Y-104150200D02*
X246180639Y-104102580D01*
X246180639Y-104102580D02*
X245990163Y-104102580D01*
X245990163Y-104102580D02*
X245894925Y-104150200D01*
X245894925Y-104150200D02*
X245847306Y-104197819D01*
X245847306Y-104197819D02*
X245799687Y-104293057D01*
X245799687Y-104293057D02*
X245799687Y-105102580D01*
X245371115Y-104150200D02*
X245228258Y-104102580D01*
X245228258Y-104102580D02*
X244990163Y-104102580D01*
X244990163Y-104102580D02*
X244894925Y-104150200D01*
X244894925Y-104150200D02*
X244847306Y-104197819D01*
X244847306Y-104197819D02*
X244799687Y-104293057D01*
X244799687Y-104293057D02*
X244799687Y-104388295D01*
X244799687Y-104388295D02*
X244847306Y-104483533D01*
X244847306Y-104483533D02*
X244894925Y-104531152D01*
X244894925Y-104531152D02*
X244990163Y-104578771D01*
X244990163Y-104578771D02*
X245180639Y-104626390D01*
X245180639Y-104626390D02*
X245275877Y-104674009D01*
X245275877Y-104674009D02*
X245323496Y-104721628D01*
X245323496Y-104721628D02*
X245371115Y-104816866D01*
X245371115Y-104816866D02*
X245371115Y-104912104D01*
X245371115Y-104912104D02*
X245323496Y-105007342D01*
X245323496Y-105007342D02*
X245275877Y-105054961D01*
X245275877Y-105054961D02*
X245180639Y-105102580D01*
X245180639Y-105102580D02*
X244942544Y-105102580D01*
X244942544Y-105102580D02*
X244799687Y-105054961D01*
X244037782Y-104626390D02*
X243894925Y-104578771D01*
X243894925Y-104578771D02*
X243847306Y-104531152D01*
X243847306Y-104531152D02*
X243799687Y-104435914D01*
X243799687Y-104435914D02*
X243799687Y-104293057D01*
X243799687Y-104293057D02*
X243847306Y-104197819D01*
X243847306Y-104197819D02*
X243894925Y-104150200D01*
X243894925Y-104150200D02*
X243990163Y-104102580D01*
X243990163Y-104102580D02*
X244371115Y-104102580D01*
X244371115Y-104102580D02*
X244371115Y-105102580D01*
X244371115Y-105102580D02*
X244037782Y-105102580D01*
X244037782Y-105102580D02*
X243942544Y-105054961D01*
X243942544Y-105054961D02*
X243894925Y-105007342D01*
X243894925Y-105007342D02*
X243847306Y-104912104D01*
X243847306Y-104912104D02*
X243847306Y-104816866D01*
X243847306Y-104816866D02*
X243894925Y-104721628D01*
X243894925Y-104721628D02*
X243942544Y-104674009D01*
X243942544Y-104674009D02*
X244037782Y-104626390D01*
X244037782Y-104626390D02*
X244371115Y-104626390D01*
D13*
X272916666Y-86624819D02*
X272916666Y-87339104D01*
X272916666Y-87339104D02*
X272869047Y-87481961D01*
X272869047Y-87481961D02*
X272773809Y-87577200D01*
X272773809Y-87577200D02*
X272630952Y-87624819D01*
X272630952Y-87624819D02*
X272535714Y-87624819D01*
X273821428Y-86624819D02*
X273630952Y-86624819D01*
X273630952Y-86624819D02*
X273535714Y-86672438D01*
X273535714Y-86672438D02*
X273488095Y-86720057D01*
X273488095Y-86720057D02*
X273392857Y-86862914D01*
X273392857Y-86862914D02*
X273345238Y-87053390D01*
X273345238Y-87053390D02*
X273345238Y-87434342D01*
X273345238Y-87434342D02*
X273392857Y-87529580D01*
X273392857Y-87529580D02*
X273440476Y-87577200D01*
X273440476Y-87577200D02*
X273535714Y-87624819D01*
X273535714Y-87624819D02*
X273726190Y-87624819D01*
X273726190Y-87624819D02*
X273821428Y-87577200D01*
X273821428Y-87577200D02*
X273869047Y-87529580D01*
X273869047Y-87529580D02*
X273916666Y-87434342D01*
X273916666Y-87434342D02*
X273916666Y-87196247D01*
X273916666Y-87196247D02*
X273869047Y-87101009D01*
X273869047Y-87101009D02*
X273821428Y-87053390D01*
X273821428Y-87053390D02*
X273726190Y-87005771D01*
X273726190Y-87005771D02*
X273535714Y-87005771D01*
X273535714Y-87005771D02*
X273440476Y-87053390D01*
X273440476Y-87053390D02*
X273392857Y-87101009D01*
X273392857Y-87101009D02*
X273345238Y-87196247D01*
X254249819Y-83583333D02*
X254964104Y-83583333D01*
X254964104Y-83583333D02*
X255106961Y-83630952D01*
X255106961Y-83630952D02*
X255202200Y-83726190D01*
X255202200Y-83726190D02*
X255249819Y-83869047D01*
X255249819Y-83869047D02*
X255249819Y-83964285D01*
X254249819Y-82630952D02*
X254249819Y-83107142D01*
X254249819Y-83107142D02*
X254726009Y-83154761D01*
X254726009Y-83154761D02*
X254678390Y-83107142D01*
X254678390Y-83107142D02*
X254630771Y-83011904D01*
X254630771Y-83011904D02*
X254630771Y-82773809D01*
X254630771Y-82773809D02*
X254678390Y-82678571D01*
X254678390Y-82678571D02*
X254726009Y-82630952D01*
X254726009Y-82630952D02*
X254821247Y-82583333D01*
X254821247Y-82583333D02*
X255059342Y-82583333D01*
X255059342Y-82583333D02*
X255154580Y-82630952D01*
X255154580Y-82630952D02*
X255202200Y-82678571D01*
X255202200Y-82678571D02*
X255249819Y-82773809D01*
X255249819Y-82773809D02*
X255249819Y-83011904D01*
X255249819Y-83011904D02*
X255202200Y-83107142D01*
X255202200Y-83107142D02*
X255154580Y-83154761D01*
X175324819Y-131083333D02*
X176039104Y-131083333D01*
X176039104Y-131083333D02*
X176181961Y-131130952D01*
X176181961Y-131130952D02*
X176277200Y-131226190D01*
X176277200Y-131226190D02*
X176324819Y-131369047D01*
X176324819Y-131369047D02*
X176324819Y-131464285D01*
X175658152Y-130178571D02*
X176324819Y-130178571D01*
X175277200Y-130416666D02*
X175991485Y-130654761D01*
X175991485Y-130654761D02*
X175991485Y-130035714D01*
D10*
X139961905Y-100957419D02*
X139961905Y-101766942D01*
X139961905Y-101766942D02*
X140009524Y-101862180D01*
X140009524Y-101862180D02*
X140057143Y-101909800D01*
X140057143Y-101909800D02*
X140152381Y-101957419D01*
X140152381Y-101957419D02*
X140342857Y-101957419D01*
X140342857Y-101957419D02*
X140438095Y-101909800D01*
X140438095Y-101909800D02*
X140485714Y-101862180D01*
X140485714Y-101862180D02*
X140533333Y-101766942D01*
X140533333Y-101766942D02*
X140533333Y-100957419D01*
X140961905Y-101052657D02*
X141009524Y-101005038D01*
X141009524Y-101005038D02*
X141104762Y-100957419D01*
X141104762Y-100957419D02*
X141342857Y-100957419D01*
X141342857Y-100957419D02*
X141438095Y-101005038D01*
X141438095Y-101005038D02*
X141485714Y-101052657D01*
X141485714Y-101052657D02*
X141533333Y-101147895D01*
X141533333Y-101147895D02*
X141533333Y-101243133D01*
X141533333Y-101243133D02*
X141485714Y-101385990D01*
X141485714Y-101385990D02*
X140914286Y-101957419D01*
X140914286Y-101957419D02*
X141533333Y-101957419D01*
X141914286Y-101052657D02*
X141961905Y-101005038D01*
X141961905Y-101005038D02*
X142057143Y-100957419D01*
X142057143Y-100957419D02*
X142295238Y-100957419D01*
X142295238Y-100957419D02*
X142390476Y-101005038D01*
X142390476Y-101005038D02*
X142438095Y-101052657D01*
X142438095Y-101052657D02*
X142485714Y-101147895D01*
X142485714Y-101147895D02*
X142485714Y-101243133D01*
X142485714Y-101243133D02*
X142438095Y-101385990D01*
X142438095Y-101385990D02*
X141866667Y-101957419D01*
X141866667Y-101957419D02*
X142485714Y-101957419D01*
D13*
X52896666Y-68624819D02*
X52896666Y-69339104D01*
X52896666Y-69339104D02*
X52849047Y-69481961D01*
X52849047Y-69481961D02*
X52753809Y-69577200D01*
X52753809Y-69577200D02*
X52610952Y-69624819D01*
X52610952Y-69624819D02*
X52515714Y-69624819D01*
X53325238Y-68720057D02*
X53372857Y-68672438D01*
X53372857Y-68672438D02*
X53468095Y-68624819D01*
X53468095Y-68624819D02*
X53706190Y-68624819D01*
X53706190Y-68624819D02*
X53801428Y-68672438D01*
X53801428Y-68672438D02*
X53849047Y-68720057D01*
X53849047Y-68720057D02*
X53896666Y-68815295D01*
X53896666Y-68815295D02*
X53896666Y-68910533D01*
X53896666Y-68910533D02*
X53849047Y-69053390D01*
X53849047Y-69053390D02*
X53277619Y-69624819D01*
X53277619Y-69624819D02*
X53896666Y-69624819D01*
D10*
X200461905Y-42007421D02*
X200461905Y-42816944D01*
X200461905Y-42816944D02*
X200509524Y-42912182D01*
X200509524Y-42912182D02*
X200557143Y-42959802D01*
X200557143Y-42959802D02*
X200652381Y-43007421D01*
X200652381Y-43007421D02*
X200842857Y-43007421D01*
X200842857Y-43007421D02*
X200938095Y-42959802D01*
X200938095Y-42959802D02*
X200985714Y-42912182D01*
X200985714Y-42912182D02*
X201033333Y-42816944D01*
X201033333Y-42816944D02*
X201033333Y-42007421D01*
X201414286Y-42007421D02*
X202033333Y-42007421D01*
X202033333Y-42007421D02*
X201700000Y-42388373D01*
X201700000Y-42388373D02*
X201842857Y-42388373D01*
X201842857Y-42388373D02*
X201938095Y-42435992D01*
X201938095Y-42435992D02*
X201985714Y-42483611D01*
X201985714Y-42483611D02*
X202033333Y-42578849D01*
X202033333Y-42578849D02*
X202033333Y-42816944D01*
X202033333Y-42816944D02*
X201985714Y-42912182D01*
X201985714Y-42912182D02*
X201938095Y-42959802D01*
X201938095Y-42959802D02*
X201842857Y-43007421D01*
X201842857Y-43007421D02*
X201557143Y-43007421D01*
X201557143Y-43007421D02*
X201461905Y-42959802D01*
X201461905Y-42959802D02*
X201414286Y-42912182D01*
X202985714Y-43007421D02*
X202414286Y-43007421D01*
X202700000Y-43007421D02*
X202700000Y-42007421D01*
X202700000Y-42007421D02*
X202604762Y-42150278D01*
X202604762Y-42150278D02*
X202509524Y-42245516D01*
X202509524Y-42245516D02*
X202414286Y-42293135D01*
X116461905Y-128957419D02*
X116461905Y-129766942D01*
X116461905Y-129766942D02*
X116509524Y-129862180D01*
X116509524Y-129862180D02*
X116557143Y-129909800D01*
X116557143Y-129909800D02*
X116652381Y-129957419D01*
X116652381Y-129957419D02*
X116842857Y-129957419D01*
X116842857Y-129957419D02*
X116938095Y-129909800D01*
X116938095Y-129909800D02*
X116985714Y-129862180D01*
X116985714Y-129862180D02*
X117033333Y-129766942D01*
X117033333Y-129766942D02*
X117033333Y-128957419D01*
X117414286Y-128957419D02*
X118033333Y-128957419D01*
X118033333Y-128957419D02*
X117700000Y-129338371D01*
X117700000Y-129338371D02*
X117842857Y-129338371D01*
X117842857Y-129338371D02*
X117938095Y-129385990D01*
X117938095Y-129385990D02*
X117985714Y-129433609D01*
X117985714Y-129433609D02*
X118033333Y-129528847D01*
X118033333Y-129528847D02*
X118033333Y-129766942D01*
X118033333Y-129766942D02*
X117985714Y-129862180D01*
X117985714Y-129862180D02*
X117938095Y-129909800D01*
X117938095Y-129909800D02*
X117842857Y-129957419D01*
X117842857Y-129957419D02*
X117557143Y-129957419D01*
X117557143Y-129957419D02*
X117461905Y-129909800D01*
X117461905Y-129909800D02*
X117414286Y-129862180D01*
X118414286Y-129052657D02*
X118461905Y-129005038D01*
X118461905Y-129005038D02*
X118557143Y-128957419D01*
X118557143Y-128957419D02*
X118795238Y-128957419D01*
X118795238Y-128957419D02*
X118890476Y-129005038D01*
X118890476Y-129005038D02*
X118938095Y-129052657D01*
X118938095Y-129052657D02*
X118985714Y-129147895D01*
X118985714Y-129147895D02*
X118985714Y-129243133D01*
X118985714Y-129243133D02*
X118938095Y-129385990D01*
X118938095Y-129385990D02*
X118366667Y-129957419D01*
X118366667Y-129957419D02*
X118985714Y-129957419D01*
X113761905Y-35957419D02*
X113761905Y-36766942D01*
X113761905Y-36766942D02*
X113809524Y-36862180D01*
X113809524Y-36862180D02*
X113857143Y-36909800D01*
X113857143Y-36909800D02*
X113952381Y-36957419D01*
X113952381Y-36957419D02*
X114142857Y-36957419D01*
X114142857Y-36957419D02*
X114238095Y-36909800D01*
X114238095Y-36909800D02*
X114285714Y-36862180D01*
X114285714Y-36862180D02*
X114333333Y-36766942D01*
X114333333Y-36766942D02*
X114333333Y-35957419D01*
X114761905Y-36052657D02*
X114809524Y-36005038D01*
X114809524Y-36005038D02*
X114904762Y-35957419D01*
X114904762Y-35957419D02*
X115142857Y-35957419D01*
X115142857Y-35957419D02*
X115238095Y-36005038D01*
X115238095Y-36005038D02*
X115285714Y-36052657D01*
X115285714Y-36052657D02*
X115333333Y-36147895D01*
X115333333Y-36147895D02*
X115333333Y-36243133D01*
X115333333Y-36243133D02*
X115285714Y-36385990D01*
X115285714Y-36385990D02*
X114714286Y-36957419D01*
X114714286Y-36957419D02*
X115333333Y-36957419D01*
X116238095Y-35957419D02*
X115761905Y-35957419D01*
X115761905Y-35957419D02*
X115714286Y-36433609D01*
X115714286Y-36433609D02*
X115761905Y-36385990D01*
X115761905Y-36385990D02*
X115857143Y-36338371D01*
X115857143Y-36338371D02*
X116095238Y-36338371D01*
X116095238Y-36338371D02*
X116190476Y-36385990D01*
X116190476Y-36385990D02*
X116238095Y-36433609D01*
X116238095Y-36433609D02*
X116285714Y-36528847D01*
X116285714Y-36528847D02*
X116285714Y-36766942D01*
X116285714Y-36766942D02*
X116238095Y-36862180D01*
X116238095Y-36862180D02*
X116190476Y-36909800D01*
X116190476Y-36909800D02*
X116095238Y-36957419D01*
X116095238Y-36957419D02*
X115857143Y-36957419D01*
X115857143Y-36957419D02*
X115761905Y-36909800D01*
X115761905Y-36909800D02*
X115714286Y-36862180D01*
D13*
X171274819Y-27488094D02*
X170274819Y-27488094D01*
X170274819Y-27488094D02*
X170274819Y-27249999D01*
X170274819Y-27249999D02*
X170322438Y-27107142D01*
X170322438Y-27107142D02*
X170417676Y-27011904D01*
X170417676Y-27011904D02*
X170512914Y-26964285D01*
X170512914Y-26964285D02*
X170703390Y-26916666D01*
X170703390Y-26916666D02*
X170846247Y-26916666D01*
X170846247Y-26916666D02*
X171036723Y-26964285D01*
X171036723Y-26964285D02*
X171131961Y-27011904D01*
X171131961Y-27011904D02*
X171227200Y-27107142D01*
X171227200Y-27107142D02*
X171274819Y-27249999D01*
X171274819Y-27249999D02*
X171274819Y-27488094D01*
X170608152Y-26059523D02*
X171274819Y-26059523D01*
X170227200Y-26297618D02*
X170941485Y-26535713D01*
X170941485Y-26535713D02*
X170941485Y-25916666D01*
D10*
X40938095Y-39007421D02*
X40938095Y-39816944D01*
X40938095Y-39816944D02*
X40985714Y-39912182D01*
X40985714Y-39912182D02*
X41033333Y-39959802D01*
X41033333Y-39959802D02*
X41128571Y-40007421D01*
X41128571Y-40007421D02*
X41319047Y-40007421D01*
X41319047Y-40007421D02*
X41414285Y-39959802D01*
X41414285Y-39959802D02*
X41461904Y-39912182D01*
X41461904Y-39912182D02*
X41509523Y-39816944D01*
X41509523Y-39816944D02*
X41509523Y-39007421D01*
X41938095Y-39102659D02*
X41985714Y-39055040D01*
X41985714Y-39055040D02*
X42080952Y-39007421D01*
X42080952Y-39007421D02*
X42319047Y-39007421D01*
X42319047Y-39007421D02*
X42414285Y-39055040D01*
X42414285Y-39055040D02*
X42461904Y-39102659D01*
X42461904Y-39102659D02*
X42509523Y-39197897D01*
X42509523Y-39197897D02*
X42509523Y-39293135D01*
X42509523Y-39293135D02*
X42461904Y-39435992D01*
X42461904Y-39435992D02*
X41890476Y-40007421D01*
X41890476Y-40007421D02*
X42509523Y-40007421D01*
X155461905Y-28957419D02*
X155461905Y-29766942D01*
X155461905Y-29766942D02*
X155509524Y-29862180D01*
X155509524Y-29862180D02*
X155557143Y-29909800D01*
X155557143Y-29909800D02*
X155652381Y-29957419D01*
X155652381Y-29957419D02*
X155842857Y-29957419D01*
X155842857Y-29957419D02*
X155938095Y-29909800D01*
X155938095Y-29909800D02*
X155985714Y-29862180D01*
X155985714Y-29862180D02*
X156033333Y-29766942D01*
X156033333Y-29766942D02*
X156033333Y-28957419D01*
X156414286Y-28957419D02*
X157033333Y-28957419D01*
X157033333Y-28957419D02*
X156700000Y-29338371D01*
X156700000Y-29338371D02*
X156842857Y-29338371D01*
X156842857Y-29338371D02*
X156938095Y-29385990D01*
X156938095Y-29385990D02*
X156985714Y-29433609D01*
X156985714Y-29433609D02*
X157033333Y-29528847D01*
X157033333Y-29528847D02*
X157033333Y-29766942D01*
X157033333Y-29766942D02*
X156985714Y-29862180D01*
X156985714Y-29862180D02*
X156938095Y-29909800D01*
X156938095Y-29909800D02*
X156842857Y-29957419D01*
X156842857Y-29957419D02*
X156557143Y-29957419D01*
X156557143Y-29957419D02*
X156461905Y-29909800D01*
X156461905Y-29909800D02*
X156414286Y-29862180D01*
X157366667Y-28957419D02*
X157985714Y-28957419D01*
X157985714Y-28957419D02*
X157652381Y-29338371D01*
X157652381Y-29338371D02*
X157795238Y-29338371D01*
X157795238Y-29338371D02*
X157890476Y-29385990D01*
X157890476Y-29385990D02*
X157938095Y-29433609D01*
X157938095Y-29433609D02*
X157985714Y-29528847D01*
X157985714Y-29528847D02*
X157985714Y-29766942D01*
X157985714Y-29766942D02*
X157938095Y-29862180D01*
X157938095Y-29862180D02*
X157890476Y-29909800D01*
X157890476Y-29909800D02*
X157795238Y-29957419D01*
X157795238Y-29957419D02*
X157509524Y-29957419D01*
X157509524Y-29957419D02*
X157414286Y-29909800D01*
X157414286Y-29909800D02*
X157366667Y-29862180D01*
X201461905Y-77957419D02*
X201461905Y-78766942D01*
X201461905Y-78766942D02*
X201509524Y-78862180D01*
X201509524Y-78862180D02*
X201557143Y-78909800D01*
X201557143Y-78909800D02*
X201652381Y-78957419D01*
X201652381Y-78957419D02*
X201842857Y-78957419D01*
X201842857Y-78957419D02*
X201938095Y-78909800D01*
X201938095Y-78909800D02*
X201985714Y-78862180D01*
X201985714Y-78862180D02*
X202033333Y-78766942D01*
X202033333Y-78766942D02*
X202033333Y-77957419D01*
X202414286Y-77957419D02*
X203033333Y-77957419D01*
X203033333Y-77957419D02*
X202700000Y-78338371D01*
X202700000Y-78338371D02*
X202842857Y-78338371D01*
X202842857Y-78338371D02*
X202938095Y-78385990D01*
X202938095Y-78385990D02*
X202985714Y-78433609D01*
X202985714Y-78433609D02*
X203033333Y-78528847D01*
X203033333Y-78528847D02*
X203033333Y-78766942D01*
X203033333Y-78766942D02*
X202985714Y-78862180D01*
X202985714Y-78862180D02*
X202938095Y-78909800D01*
X202938095Y-78909800D02*
X202842857Y-78957419D01*
X202842857Y-78957419D02*
X202557143Y-78957419D01*
X202557143Y-78957419D02*
X202461905Y-78909800D01*
X202461905Y-78909800D02*
X202414286Y-78862180D01*
X203652381Y-77957419D02*
X203747619Y-77957419D01*
X203747619Y-77957419D02*
X203842857Y-78005038D01*
X203842857Y-78005038D02*
X203890476Y-78052657D01*
X203890476Y-78052657D02*
X203938095Y-78147895D01*
X203938095Y-78147895D02*
X203985714Y-78338371D01*
X203985714Y-78338371D02*
X203985714Y-78576466D01*
X203985714Y-78576466D02*
X203938095Y-78766942D01*
X203938095Y-78766942D02*
X203890476Y-78862180D01*
X203890476Y-78862180D02*
X203842857Y-78909800D01*
X203842857Y-78909800D02*
X203747619Y-78957419D01*
X203747619Y-78957419D02*
X203652381Y-78957419D01*
X203652381Y-78957419D02*
X203557143Y-78909800D01*
X203557143Y-78909800D02*
X203509524Y-78862180D01*
X203509524Y-78862180D02*
X203461905Y-78766942D01*
X203461905Y-78766942D02*
X203414286Y-78576466D01*
X203414286Y-78576466D02*
X203414286Y-78338371D01*
X203414286Y-78338371D02*
X203461905Y-78147895D01*
X203461905Y-78147895D02*
X203509524Y-78052657D01*
X203509524Y-78052657D02*
X203557143Y-78005038D01*
X203557143Y-78005038D02*
X203652381Y-77957419D01*
D13*
X176491666Y-27589819D02*
X176491666Y-28304104D01*
X176491666Y-28304104D02*
X176444047Y-28446961D01*
X176444047Y-28446961D02*
X176348809Y-28542200D01*
X176348809Y-28542200D02*
X176205952Y-28589819D01*
X176205952Y-28589819D02*
X176110714Y-28589819D01*
X176872619Y-27589819D02*
X177491666Y-27589819D01*
X177491666Y-27589819D02*
X177158333Y-27970771D01*
X177158333Y-27970771D02*
X177301190Y-27970771D01*
X177301190Y-27970771D02*
X177396428Y-28018390D01*
X177396428Y-28018390D02*
X177444047Y-28066009D01*
X177444047Y-28066009D02*
X177491666Y-28161247D01*
X177491666Y-28161247D02*
X177491666Y-28399342D01*
X177491666Y-28399342D02*
X177444047Y-28494580D01*
X177444047Y-28494580D02*
X177396428Y-28542200D01*
X177396428Y-28542200D02*
X177301190Y-28589819D01*
X177301190Y-28589819D02*
X177015476Y-28589819D01*
X177015476Y-28589819D02*
X176920238Y-28542200D01*
X176920238Y-28542200D02*
X176872619Y-28494580D01*
X175634819Y-27717857D02*
X175158628Y-28051190D01*
X175634819Y-28289285D02*
X174634819Y-28289285D01*
X174634819Y-28289285D02*
X174634819Y-27908333D01*
X174634819Y-27908333D02*
X174682438Y-27813095D01*
X174682438Y-27813095D02*
X174730057Y-27765476D01*
X174730057Y-27765476D02*
X174825295Y-27717857D01*
X174825295Y-27717857D02*
X174968152Y-27717857D01*
X174968152Y-27717857D02*
X175063390Y-27765476D01*
X175063390Y-27765476D02*
X175111009Y-27813095D01*
X175111009Y-27813095D02*
X175158628Y-27908333D01*
X175158628Y-27908333D02*
X175158628Y-28289285D01*
X175634819Y-26765476D02*
X175634819Y-27336904D01*
X175634819Y-27051190D02*
X174634819Y-27051190D01*
X174634819Y-27051190D02*
X174777676Y-27146428D01*
X174777676Y-27146428D02*
X174872914Y-27241666D01*
X174872914Y-27241666D02*
X174920533Y-27336904D01*
X174634819Y-25860714D02*
X174634819Y-26336904D01*
X174634819Y-26336904D02*
X175111009Y-26384523D01*
X175111009Y-26384523D02*
X175063390Y-26336904D01*
X175063390Y-26336904D02*
X175015771Y-26241666D01*
X175015771Y-26241666D02*
X175015771Y-26003571D01*
X175015771Y-26003571D02*
X175063390Y-25908333D01*
X175063390Y-25908333D02*
X175111009Y-25860714D01*
X175111009Y-25860714D02*
X175206247Y-25813095D01*
X175206247Y-25813095D02*
X175444342Y-25813095D01*
X175444342Y-25813095D02*
X175539580Y-25860714D01*
X175539580Y-25860714D02*
X175587200Y-25908333D01*
X175587200Y-25908333D02*
X175634819Y-26003571D01*
X175634819Y-26003571D02*
X175634819Y-26241666D01*
X175634819Y-26241666D02*
X175587200Y-26336904D01*
X175587200Y-26336904D02*
X175539580Y-26384523D01*
D10*
X138961905Y-64957419D02*
X138961905Y-65766942D01*
X138961905Y-65766942D02*
X139009524Y-65862180D01*
X139009524Y-65862180D02*
X139057143Y-65909800D01*
X139057143Y-65909800D02*
X139152381Y-65957419D01*
X139152381Y-65957419D02*
X139342857Y-65957419D01*
X139342857Y-65957419D02*
X139438095Y-65909800D01*
X139438095Y-65909800D02*
X139485714Y-65862180D01*
X139485714Y-65862180D02*
X139533333Y-65766942D01*
X139533333Y-65766942D02*
X139533333Y-64957419D01*
X139961905Y-65052657D02*
X140009524Y-65005038D01*
X140009524Y-65005038D02*
X140104762Y-64957419D01*
X140104762Y-64957419D02*
X140342857Y-64957419D01*
X140342857Y-64957419D02*
X140438095Y-65005038D01*
X140438095Y-65005038D02*
X140485714Y-65052657D01*
X140485714Y-65052657D02*
X140533333Y-65147895D01*
X140533333Y-65147895D02*
X140533333Y-65243133D01*
X140533333Y-65243133D02*
X140485714Y-65385990D01*
X140485714Y-65385990D02*
X139914286Y-65957419D01*
X139914286Y-65957419D02*
X140533333Y-65957419D01*
X140866667Y-64957419D02*
X141485714Y-64957419D01*
X141485714Y-64957419D02*
X141152381Y-65338371D01*
X141152381Y-65338371D02*
X141295238Y-65338371D01*
X141295238Y-65338371D02*
X141390476Y-65385990D01*
X141390476Y-65385990D02*
X141438095Y-65433609D01*
X141438095Y-65433609D02*
X141485714Y-65528847D01*
X141485714Y-65528847D02*
X141485714Y-65766942D01*
X141485714Y-65766942D02*
X141438095Y-65862180D01*
X141438095Y-65862180D02*
X141390476Y-65909800D01*
X141390476Y-65909800D02*
X141295238Y-65957419D01*
X141295238Y-65957419D02*
X141009524Y-65957419D01*
X141009524Y-65957419D02*
X140914286Y-65909800D01*
X140914286Y-65909800D02*
X140866667Y-65862180D01*
X71661905Y-48457422D02*
X71661905Y-49266945D01*
X71661905Y-49266945D02*
X71709524Y-49362183D01*
X71709524Y-49362183D02*
X71757143Y-49409803D01*
X71757143Y-49409803D02*
X71852381Y-49457422D01*
X71852381Y-49457422D02*
X72042857Y-49457422D01*
X72042857Y-49457422D02*
X72138095Y-49409803D01*
X72138095Y-49409803D02*
X72185714Y-49362183D01*
X72185714Y-49362183D02*
X72233333Y-49266945D01*
X72233333Y-49266945D02*
X72233333Y-48457422D01*
X72661905Y-48552660D02*
X72709524Y-48505041D01*
X72709524Y-48505041D02*
X72804762Y-48457422D01*
X72804762Y-48457422D02*
X73042857Y-48457422D01*
X73042857Y-48457422D02*
X73138095Y-48505041D01*
X73138095Y-48505041D02*
X73185714Y-48552660D01*
X73185714Y-48552660D02*
X73233333Y-48647898D01*
X73233333Y-48647898D02*
X73233333Y-48743136D01*
X73233333Y-48743136D02*
X73185714Y-48885993D01*
X73185714Y-48885993D02*
X72614286Y-49457422D01*
X72614286Y-49457422D02*
X73233333Y-49457422D01*
X74090476Y-48790755D02*
X74090476Y-49457422D01*
X73852381Y-48409803D02*
X73614286Y-49124088D01*
X73614286Y-49124088D02*
X74233333Y-49124088D01*
D13*
X176774819Y-27488094D02*
X175774819Y-27488094D01*
X175774819Y-27488094D02*
X175774819Y-27249999D01*
X175774819Y-27249999D02*
X175822438Y-27107142D01*
X175822438Y-27107142D02*
X175917676Y-27011904D01*
X175917676Y-27011904D02*
X176012914Y-26964285D01*
X176012914Y-26964285D02*
X176203390Y-26916666D01*
X176203390Y-26916666D02*
X176346247Y-26916666D01*
X176346247Y-26916666D02*
X176536723Y-26964285D01*
X176536723Y-26964285D02*
X176631961Y-27011904D01*
X176631961Y-27011904D02*
X176727200Y-27107142D01*
X176727200Y-27107142D02*
X176774819Y-27249999D01*
X176774819Y-27249999D02*
X176774819Y-27488094D01*
X175774819Y-26583332D02*
X175774819Y-25964285D01*
X175774819Y-25964285D02*
X176155771Y-26297618D01*
X176155771Y-26297618D02*
X176155771Y-26154761D01*
X176155771Y-26154761D02*
X176203390Y-26059523D01*
X176203390Y-26059523D02*
X176251009Y-26011904D01*
X176251009Y-26011904D02*
X176346247Y-25964285D01*
X176346247Y-25964285D02*
X176584342Y-25964285D01*
X176584342Y-25964285D02*
X176679580Y-26011904D01*
X176679580Y-26011904D02*
X176727200Y-26059523D01*
X176727200Y-26059523D02*
X176774819Y-26154761D01*
X176774819Y-26154761D02*
X176774819Y-26440475D01*
X176774819Y-26440475D02*
X176727200Y-26535713D01*
X176727200Y-26535713D02*
X176679580Y-26583332D01*
D10*
X233761905Y-34957422D02*
X233761905Y-35766945D01*
X233761905Y-35766945D02*
X233809524Y-35862183D01*
X233809524Y-35862183D02*
X233857143Y-35909803D01*
X233857143Y-35909803D02*
X233952381Y-35957422D01*
X233952381Y-35957422D02*
X234142857Y-35957422D01*
X234142857Y-35957422D02*
X234238095Y-35909803D01*
X234238095Y-35909803D02*
X234285714Y-35862183D01*
X234285714Y-35862183D02*
X234333333Y-35766945D01*
X234333333Y-35766945D02*
X234333333Y-34957422D01*
X234714286Y-34957422D02*
X235333333Y-34957422D01*
X235333333Y-34957422D02*
X235000000Y-35338374D01*
X235000000Y-35338374D02*
X235142857Y-35338374D01*
X235142857Y-35338374D02*
X235238095Y-35385993D01*
X235238095Y-35385993D02*
X235285714Y-35433612D01*
X235285714Y-35433612D02*
X235333333Y-35528850D01*
X235333333Y-35528850D02*
X235333333Y-35766945D01*
X235333333Y-35766945D02*
X235285714Y-35862183D01*
X235285714Y-35862183D02*
X235238095Y-35909803D01*
X235238095Y-35909803D02*
X235142857Y-35957422D01*
X235142857Y-35957422D02*
X234857143Y-35957422D01*
X234857143Y-35957422D02*
X234761905Y-35909803D01*
X234761905Y-35909803D02*
X234714286Y-35862183D01*
X236238095Y-34957422D02*
X235761905Y-34957422D01*
X235761905Y-34957422D02*
X235714286Y-35433612D01*
X235714286Y-35433612D02*
X235761905Y-35385993D01*
X235761905Y-35385993D02*
X235857143Y-35338374D01*
X235857143Y-35338374D02*
X236095238Y-35338374D01*
X236095238Y-35338374D02*
X236190476Y-35385993D01*
X236190476Y-35385993D02*
X236238095Y-35433612D01*
X236238095Y-35433612D02*
X236285714Y-35528850D01*
X236285714Y-35528850D02*
X236285714Y-35766945D01*
X236285714Y-35766945D02*
X236238095Y-35862183D01*
X236238095Y-35862183D02*
X236190476Y-35909803D01*
X236190476Y-35909803D02*
X236095238Y-35957422D01*
X236095238Y-35957422D02*
X235857143Y-35957422D01*
X235857143Y-35957422D02*
X235761905Y-35909803D01*
X235761905Y-35909803D02*
X235714286Y-35862183D01*
X170261905Y-87407420D02*
X170261905Y-88216943D01*
X170261905Y-88216943D02*
X170309524Y-88312181D01*
X170309524Y-88312181D02*
X170357143Y-88359801D01*
X170357143Y-88359801D02*
X170452381Y-88407420D01*
X170452381Y-88407420D02*
X170642857Y-88407420D01*
X170642857Y-88407420D02*
X170738095Y-88359801D01*
X170738095Y-88359801D02*
X170785714Y-88312181D01*
X170785714Y-88312181D02*
X170833333Y-88216943D01*
X170833333Y-88216943D02*
X170833333Y-87407420D01*
X171261905Y-87502658D02*
X171309524Y-87455039D01*
X171309524Y-87455039D02*
X171404762Y-87407420D01*
X171404762Y-87407420D02*
X171642857Y-87407420D01*
X171642857Y-87407420D02*
X171738095Y-87455039D01*
X171738095Y-87455039D02*
X171785714Y-87502658D01*
X171785714Y-87502658D02*
X171833333Y-87597896D01*
X171833333Y-87597896D02*
X171833333Y-87693134D01*
X171833333Y-87693134D02*
X171785714Y-87835991D01*
X171785714Y-87835991D02*
X171214286Y-88407420D01*
X171214286Y-88407420D02*
X171833333Y-88407420D01*
X172690476Y-87407420D02*
X172500000Y-87407420D01*
X172500000Y-87407420D02*
X172404762Y-87455039D01*
X172404762Y-87455039D02*
X172357143Y-87502658D01*
X172357143Y-87502658D02*
X172261905Y-87645515D01*
X172261905Y-87645515D02*
X172214286Y-87835991D01*
X172214286Y-87835991D02*
X172214286Y-88216943D01*
X172214286Y-88216943D02*
X172261905Y-88312181D01*
X172261905Y-88312181D02*
X172309524Y-88359801D01*
X172309524Y-88359801D02*
X172404762Y-88407420D01*
X172404762Y-88407420D02*
X172595238Y-88407420D01*
X172595238Y-88407420D02*
X172690476Y-88359801D01*
X172690476Y-88359801D02*
X172738095Y-88312181D01*
X172738095Y-88312181D02*
X172785714Y-88216943D01*
X172785714Y-88216943D02*
X172785714Y-87978848D01*
X172785714Y-87978848D02*
X172738095Y-87883610D01*
X172738095Y-87883610D02*
X172690476Y-87835991D01*
X172690476Y-87835991D02*
X172595238Y-87788372D01*
X172595238Y-87788372D02*
X172404762Y-87788372D01*
X172404762Y-87788372D02*
X172309524Y-87835991D01*
X172309524Y-87835991D02*
X172261905Y-87883610D01*
X172261905Y-87883610D02*
X172214286Y-87978848D01*
X101961905Y-61957419D02*
X101961905Y-62766942D01*
X101961905Y-62766942D02*
X102009524Y-62862180D01*
X102009524Y-62862180D02*
X102057143Y-62909800D01*
X102057143Y-62909800D02*
X102152381Y-62957419D01*
X102152381Y-62957419D02*
X102342857Y-62957419D01*
X102342857Y-62957419D02*
X102438095Y-62909800D01*
X102438095Y-62909800D02*
X102485714Y-62862180D01*
X102485714Y-62862180D02*
X102533333Y-62766942D01*
X102533333Y-62766942D02*
X102533333Y-61957419D01*
X102961905Y-62052657D02*
X103009524Y-62005038D01*
X103009524Y-62005038D02*
X103104762Y-61957419D01*
X103104762Y-61957419D02*
X103342857Y-61957419D01*
X103342857Y-61957419D02*
X103438095Y-62005038D01*
X103438095Y-62005038D02*
X103485714Y-62052657D01*
X103485714Y-62052657D02*
X103533333Y-62147895D01*
X103533333Y-62147895D02*
X103533333Y-62243133D01*
X103533333Y-62243133D02*
X103485714Y-62385990D01*
X103485714Y-62385990D02*
X102914286Y-62957419D01*
X102914286Y-62957419D02*
X103533333Y-62957419D01*
X104104762Y-62385990D02*
X104009524Y-62338371D01*
X104009524Y-62338371D02*
X103961905Y-62290752D01*
X103961905Y-62290752D02*
X103914286Y-62195514D01*
X103914286Y-62195514D02*
X103914286Y-62147895D01*
X103914286Y-62147895D02*
X103961905Y-62052657D01*
X103961905Y-62052657D02*
X104009524Y-62005038D01*
X104009524Y-62005038D02*
X104104762Y-61957419D01*
X104104762Y-61957419D02*
X104295238Y-61957419D01*
X104295238Y-61957419D02*
X104390476Y-62005038D01*
X104390476Y-62005038D02*
X104438095Y-62052657D01*
X104438095Y-62052657D02*
X104485714Y-62147895D01*
X104485714Y-62147895D02*
X104485714Y-62195514D01*
X104485714Y-62195514D02*
X104438095Y-62290752D01*
X104438095Y-62290752D02*
X104390476Y-62338371D01*
X104390476Y-62338371D02*
X104295238Y-62385990D01*
X104295238Y-62385990D02*
X104104762Y-62385990D01*
X104104762Y-62385990D02*
X104009524Y-62433609D01*
X104009524Y-62433609D02*
X103961905Y-62481228D01*
X103961905Y-62481228D02*
X103914286Y-62576466D01*
X103914286Y-62576466D02*
X103914286Y-62766942D01*
X103914286Y-62766942D02*
X103961905Y-62862180D01*
X103961905Y-62862180D02*
X104009524Y-62909800D01*
X104009524Y-62909800D02*
X104104762Y-62957419D01*
X104104762Y-62957419D02*
X104295238Y-62957419D01*
X104295238Y-62957419D02*
X104390476Y-62909800D01*
X104390476Y-62909800D02*
X104438095Y-62862180D01*
X104438095Y-62862180D02*
X104485714Y-62766942D01*
X104485714Y-62766942D02*
X104485714Y-62576466D01*
X104485714Y-62576466D02*
X104438095Y-62481228D01*
X104438095Y-62481228D02*
X104390476Y-62433609D01*
X104390476Y-62433609D02*
X104295238Y-62385990D01*
X169261905Y-51457422D02*
X169261905Y-52266945D01*
X169261905Y-52266945D02*
X169309524Y-52362183D01*
X169309524Y-52362183D02*
X169357143Y-52409803D01*
X169357143Y-52409803D02*
X169452381Y-52457422D01*
X169452381Y-52457422D02*
X169642857Y-52457422D01*
X169642857Y-52457422D02*
X169738095Y-52409803D01*
X169738095Y-52409803D02*
X169785714Y-52362183D01*
X169785714Y-52362183D02*
X169833333Y-52266945D01*
X169833333Y-52266945D02*
X169833333Y-51457422D01*
X170261905Y-51552660D02*
X170309524Y-51505041D01*
X170309524Y-51505041D02*
X170404762Y-51457422D01*
X170404762Y-51457422D02*
X170642857Y-51457422D01*
X170642857Y-51457422D02*
X170738095Y-51505041D01*
X170738095Y-51505041D02*
X170785714Y-51552660D01*
X170785714Y-51552660D02*
X170833333Y-51647898D01*
X170833333Y-51647898D02*
X170833333Y-51743136D01*
X170833333Y-51743136D02*
X170785714Y-51885993D01*
X170785714Y-51885993D02*
X170214286Y-52457422D01*
X170214286Y-52457422D02*
X170833333Y-52457422D01*
X171166667Y-51457422D02*
X171833333Y-51457422D01*
X171833333Y-51457422D02*
X171404762Y-52457422D01*
X135061905Y-36007421D02*
X135061905Y-36816944D01*
X135061905Y-36816944D02*
X135109524Y-36912182D01*
X135109524Y-36912182D02*
X135157143Y-36959802D01*
X135157143Y-36959802D02*
X135252381Y-37007421D01*
X135252381Y-37007421D02*
X135442857Y-37007421D01*
X135442857Y-37007421D02*
X135538095Y-36959802D01*
X135538095Y-36959802D02*
X135585714Y-36912182D01*
X135585714Y-36912182D02*
X135633333Y-36816944D01*
X135633333Y-36816944D02*
X135633333Y-36007421D01*
X136061905Y-36102659D02*
X136109524Y-36055040D01*
X136109524Y-36055040D02*
X136204762Y-36007421D01*
X136204762Y-36007421D02*
X136442857Y-36007421D01*
X136442857Y-36007421D02*
X136538095Y-36055040D01*
X136538095Y-36055040D02*
X136585714Y-36102659D01*
X136585714Y-36102659D02*
X136633333Y-36197897D01*
X136633333Y-36197897D02*
X136633333Y-36293135D01*
X136633333Y-36293135D02*
X136585714Y-36435992D01*
X136585714Y-36435992D02*
X136014286Y-37007421D01*
X136014286Y-37007421D02*
X136633333Y-37007421D01*
X137109524Y-37007421D02*
X137300000Y-37007421D01*
X137300000Y-37007421D02*
X137395238Y-36959802D01*
X137395238Y-36959802D02*
X137442857Y-36912182D01*
X137442857Y-36912182D02*
X137538095Y-36769325D01*
X137538095Y-36769325D02*
X137585714Y-36578849D01*
X137585714Y-36578849D02*
X137585714Y-36197897D01*
X137585714Y-36197897D02*
X137538095Y-36102659D01*
X137538095Y-36102659D02*
X137490476Y-36055040D01*
X137490476Y-36055040D02*
X137395238Y-36007421D01*
X137395238Y-36007421D02*
X137204762Y-36007421D01*
X137204762Y-36007421D02*
X137109524Y-36055040D01*
X137109524Y-36055040D02*
X137061905Y-36102659D01*
X137061905Y-36102659D02*
X137014286Y-36197897D01*
X137014286Y-36197897D02*
X137014286Y-36435992D01*
X137014286Y-36435992D02*
X137061905Y-36531230D01*
X137061905Y-36531230D02*
X137109524Y-36578849D01*
X137109524Y-36578849D02*
X137204762Y-36626468D01*
X137204762Y-36626468D02*
X137395238Y-36626468D01*
X137395238Y-36626468D02*
X137490476Y-36578849D01*
X137490476Y-36578849D02*
X137538095Y-36531230D01*
X137538095Y-36531230D02*
X137585714Y-36435992D01*
X92761905Y-28957419D02*
X92761905Y-29766942D01*
X92761905Y-29766942D02*
X92809524Y-29862180D01*
X92809524Y-29862180D02*
X92857143Y-29909800D01*
X92857143Y-29909800D02*
X92952381Y-29957419D01*
X92952381Y-29957419D02*
X93142857Y-29957419D01*
X93142857Y-29957419D02*
X93238095Y-29909800D01*
X93238095Y-29909800D02*
X93285714Y-29862180D01*
X93285714Y-29862180D02*
X93333333Y-29766942D01*
X93333333Y-29766942D02*
X93333333Y-28957419D01*
X93761905Y-29052657D02*
X93809524Y-29005038D01*
X93809524Y-29005038D02*
X93904762Y-28957419D01*
X93904762Y-28957419D02*
X94142857Y-28957419D01*
X94142857Y-28957419D02*
X94238095Y-29005038D01*
X94238095Y-29005038D02*
X94285714Y-29052657D01*
X94285714Y-29052657D02*
X94333333Y-29147895D01*
X94333333Y-29147895D02*
X94333333Y-29243133D01*
X94333333Y-29243133D02*
X94285714Y-29385990D01*
X94285714Y-29385990D02*
X93714286Y-29957419D01*
X93714286Y-29957419D02*
X94333333Y-29957419D01*
X95285714Y-29957419D02*
X94714286Y-29957419D01*
X95000000Y-29957419D02*
X95000000Y-28957419D01*
X95000000Y-28957419D02*
X94904762Y-29100276D01*
X94904762Y-29100276D02*
X94809524Y-29195514D01*
X94809524Y-29195514D02*
X94714286Y-29243133D01*
D13*
X80857142Y-81289580D02*
X80809523Y-81337200D01*
X80809523Y-81337200D02*
X80666666Y-81384819D01*
X80666666Y-81384819D02*
X80571428Y-81384819D01*
X80571428Y-81384819D02*
X80428571Y-81337200D01*
X80428571Y-81337200D02*
X80333333Y-81241961D01*
X80333333Y-81241961D02*
X80285714Y-81146723D01*
X80285714Y-81146723D02*
X80238095Y-80956247D01*
X80238095Y-80956247D02*
X80238095Y-80813390D01*
X80238095Y-80813390D02*
X80285714Y-80622914D01*
X80285714Y-80622914D02*
X80333333Y-80527676D01*
X80333333Y-80527676D02*
X80428571Y-80432438D01*
X80428571Y-80432438D02*
X80571428Y-80384819D01*
X80571428Y-80384819D02*
X80666666Y-80384819D01*
X80666666Y-80384819D02*
X80809523Y-80432438D01*
X80809523Y-80432438D02*
X80857142Y-80480057D01*
X81714285Y-80718152D02*
X81714285Y-81384819D01*
X81476190Y-80337200D02*
X81238095Y-81051485D01*
X81238095Y-81051485D02*
X81857142Y-81051485D01*
X82428571Y-80384819D02*
X82523809Y-80384819D01*
X82523809Y-80384819D02*
X82619047Y-80432438D01*
X82619047Y-80432438D02*
X82666666Y-80480057D01*
X82666666Y-80480057D02*
X82714285Y-80575295D01*
X82714285Y-80575295D02*
X82761904Y-80765771D01*
X82761904Y-80765771D02*
X82761904Y-81003866D01*
X82761904Y-81003866D02*
X82714285Y-81194342D01*
X82714285Y-81194342D02*
X82666666Y-81289580D01*
X82666666Y-81289580D02*
X82619047Y-81337200D01*
X82619047Y-81337200D02*
X82523809Y-81384819D01*
X82523809Y-81384819D02*
X82428571Y-81384819D01*
X82428571Y-81384819D02*
X82333333Y-81337200D01*
X82333333Y-81337200D02*
X82285714Y-81289580D01*
X82285714Y-81289580D02*
X82238095Y-81194342D01*
X82238095Y-81194342D02*
X82190476Y-81003866D01*
X82190476Y-81003866D02*
X82190476Y-80765771D01*
X82190476Y-80765771D02*
X82238095Y-80575295D01*
X82238095Y-80575295D02*
X82285714Y-80480057D01*
X82285714Y-80480057D02*
X82333333Y-80432438D01*
X82333333Y-80432438D02*
X82428571Y-80384819D01*
D10*
X234761905Y-70957419D02*
X234761905Y-71766942D01*
X234761905Y-71766942D02*
X234809524Y-71862180D01*
X234809524Y-71862180D02*
X234857143Y-71909800D01*
X234857143Y-71909800D02*
X234952381Y-71957419D01*
X234952381Y-71957419D02*
X235142857Y-71957419D01*
X235142857Y-71957419D02*
X235238095Y-71909800D01*
X235238095Y-71909800D02*
X235285714Y-71862180D01*
X235285714Y-71862180D02*
X235333333Y-71766942D01*
X235333333Y-71766942D02*
X235333333Y-70957419D01*
X235714286Y-70957419D02*
X236333333Y-70957419D01*
X236333333Y-70957419D02*
X236000000Y-71338371D01*
X236000000Y-71338371D02*
X236142857Y-71338371D01*
X236142857Y-71338371D02*
X236238095Y-71385990D01*
X236238095Y-71385990D02*
X236285714Y-71433609D01*
X236285714Y-71433609D02*
X236333333Y-71528847D01*
X236333333Y-71528847D02*
X236333333Y-71766942D01*
X236333333Y-71766942D02*
X236285714Y-71862180D01*
X236285714Y-71862180D02*
X236238095Y-71909800D01*
X236238095Y-71909800D02*
X236142857Y-71957419D01*
X236142857Y-71957419D02*
X235857143Y-71957419D01*
X235857143Y-71957419D02*
X235761905Y-71909800D01*
X235761905Y-71909800D02*
X235714286Y-71862180D01*
X237190476Y-71290752D02*
X237190476Y-71957419D01*
X236952381Y-70909800D02*
X236714286Y-71624085D01*
X236714286Y-71624085D02*
X237333333Y-71624085D01*
D13*
X175274819Y-27166666D02*
X174798628Y-27499999D01*
X175274819Y-27738094D02*
X174274819Y-27738094D01*
X174274819Y-27738094D02*
X174274819Y-27357142D01*
X174274819Y-27357142D02*
X174322438Y-27261904D01*
X174322438Y-27261904D02*
X174370057Y-27214285D01*
X174370057Y-27214285D02*
X174465295Y-27166666D01*
X174465295Y-27166666D02*
X174608152Y-27166666D01*
X174608152Y-27166666D02*
X174703390Y-27214285D01*
X174703390Y-27214285D02*
X174751009Y-27261904D01*
X174751009Y-27261904D02*
X174798628Y-27357142D01*
X174798628Y-27357142D02*
X174798628Y-27738094D01*
X175274819Y-26214285D02*
X175274819Y-26785713D01*
X175274819Y-26499999D02*
X174274819Y-26499999D01*
X174274819Y-26499999D02*
X174417676Y-26595237D01*
X174417676Y-26595237D02*
X174512914Y-26690475D01*
X174512914Y-26690475D02*
X174560533Y-26785713D01*
X80532142Y-79884819D02*
X80198809Y-79408628D01*
X79960714Y-79884819D02*
X79960714Y-78884819D01*
X79960714Y-78884819D02*
X80341666Y-78884819D01*
X80341666Y-78884819D02*
X80436904Y-78932438D01*
X80436904Y-78932438D02*
X80484523Y-78980057D01*
X80484523Y-78980057D02*
X80532142Y-79075295D01*
X80532142Y-79075295D02*
X80532142Y-79218152D01*
X80532142Y-79218152D02*
X80484523Y-79313390D01*
X80484523Y-79313390D02*
X80436904Y-79361009D01*
X80436904Y-79361009D02*
X80341666Y-79408628D01*
X80341666Y-79408628D02*
X79960714Y-79408628D01*
X80865476Y-78884819D02*
X81484523Y-78884819D01*
X81484523Y-78884819D02*
X81151190Y-79265771D01*
X81151190Y-79265771D02*
X81294047Y-79265771D01*
X81294047Y-79265771D02*
X81389285Y-79313390D01*
X81389285Y-79313390D02*
X81436904Y-79361009D01*
X81436904Y-79361009D02*
X81484523Y-79456247D01*
X81484523Y-79456247D02*
X81484523Y-79694342D01*
X81484523Y-79694342D02*
X81436904Y-79789580D01*
X81436904Y-79789580D02*
X81389285Y-79837200D01*
X81389285Y-79837200D02*
X81294047Y-79884819D01*
X81294047Y-79884819D02*
X81008333Y-79884819D01*
X81008333Y-79884819D02*
X80913095Y-79837200D01*
X80913095Y-79837200D02*
X80865476Y-79789580D01*
X81865476Y-78980057D02*
X81913095Y-78932438D01*
X81913095Y-78932438D02*
X82008333Y-78884819D01*
X82008333Y-78884819D02*
X82246428Y-78884819D01*
X82246428Y-78884819D02*
X82341666Y-78932438D01*
X82341666Y-78932438D02*
X82389285Y-78980057D01*
X82389285Y-78980057D02*
X82436904Y-79075295D01*
X82436904Y-79075295D02*
X82436904Y-79170533D01*
X82436904Y-79170533D02*
X82389285Y-79313390D01*
X82389285Y-79313390D02*
X81817857Y-79884819D01*
X81817857Y-79884819D02*
X82436904Y-79884819D01*
D14*
%TO.C,U37*%
X230675000Y-139475000D02*
X270675000Y-139475000D01*
X270675000Y-139475000D02*
X270675000Y-99475000D01*
X230675000Y-99475000D02*
X230675000Y-139475000D01*
X270675000Y-99475000D02*
X230675000Y-99475000D01*
D10*
X230675000Y-139475000D02*
X270675000Y-139475000D01*
X270675000Y-99475000D01*
X230675000Y-99475000D01*
X230675000Y-139475000D01*
X241675000Y-103975000D02*
X251675000Y-103975000D01*
X251675000Y-99475000D01*
X241675000Y-99475000D01*
X241675000Y-103975000D01*
D14*
%TO.C,J6*%
X271920000Y-88170000D02*
X273250000Y-88170000D01*
X271920000Y-89500000D02*
X271920000Y-88170000D01*
X271920000Y-90770000D02*
X271920000Y-90830000D01*
X271920000Y-90770000D02*
X274580000Y-90770000D01*
X271920000Y-90830000D02*
X274580000Y-90830000D01*
X274580000Y-90770000D02*
X274580000Y-90830000D01*
%TO.C,J5*%
X258395000Y-81920000D02*
X273695000Y-81920000D01*
X273695000Y-84580000D02*
X273695000Y-81920000D01*
X258395000Y-84580000D02*
X258395000Y-81920000D01*
X258395000Y-84580000D02*
X273695000Y-84580000D01*
X257125000Y-84580000D02*
X255795000Y-84580000D01*
X255795000Y-84580000D02*
X255795000Y-83250000D01*
%TO.C,J4*%
X176870000Y-132080000D02*
X176870000Y-130750000D01*
X178200000Y-132080000D02*
X176870000Y-132080000D01*
X179470000Y-132080000D02*
X187150000Y-132080000D01*
X179470000Y-132080000D02*
X179470000Y-129420000D01*
X187150000Y-132080000D02*
X187150000Y-129420000D01*
X179470000Y-129420000D02*
X187150000Y-129420000D01*
%TO.C,U22*%
D10*
X134200000Y-95000000D02*
X148200000Y-95000000D01*
X148200000Y-109000000D01*
X134200000Y-109000000D01*
X134200000Y-95000000D01*
D14*
%TO.C,J2*%
X50630000Y-70170000D02*
X51960000Y-70170000D01*
X50630000Y-71500000D02*
X50630000Y-70170000D01*
X50630000Y-72770000D02*
X50630000Y-77910000D01*
X50630000Y-72770000D02*
X53230000Y-72770000D01*
X50630000Y-77910000D02*
X55830000Y-77910000D01*
X53230000Y-70170000D02*
X55830000Y-70170000D01*
X53230000Y-72770000D02*
X53230000Y-70170000D01*
X55830000Y-70170000D02*
X55830000Y-77910000D01*
%TO.C,U31*%
D10*
X194700000Y-36050002D02*
X208700000Y-36050002D01*
X208700000Y-50050002D01*
X194700000Y-50050002D01*
X194700000Y-36050002D01*
%TO.C,U32*%
X110700000Y-123000000D02*
X124700000Y-123000000D01*
X124700000Y-137000000D01*
X110700000Y-137000000D01*
X110700000Y-123000000D01*
%TO.C,U25*%
X108000000Y-30000000D02*
X122000000Y-30000000D01*
X122000000Y-44000000D01*
X108000000Y-44000000D01*
X108000000Y-30000000D01*
D14*
%TO.C,D4*%
X171515000Y-25950000D02*
X171515000Y-28235000D01*
X171515000Y-28235000D02*
X172985000Y-28235000D01*
X172985000Y-28235000D02*
X172985000Y-25950000D01*
%TO.C,U2*%
D10*
X34700000Y-33050002D02*
X48700000Y-33050002D01*
X48700000Y-47050002D01*
X34700000Y-47050002D01*
X34700000Y-33050002D01*
%TO.C,U33*%
X149700000Y-23000000D02*
X163700000Y-23000000D01*
X163700000Y-37000000D01*
X149700000Y-37000000D01*
X149700000Y-23000000D01*
%TO.C,U30*%
X195700000Y-72000000D02*
X209700000Y-72000000D01*
X209700000Y-86000000D01*
X195700000Y-86000000D01*
X195700000Y-72000000D01*
D11*
%TO.C,J3*%
X170530000Y-16900000D02*
X170530000Y-18180000D01*
X170530000Y-22150000D02*
X170530000Y-20900000D01*
X179470000Y-18180000D02*
X179470000Y-16900000D01*
X179470000Y-22150000D02*
X179470000Y-20900000D01*
X178350000Y-25500000D02*
G75*
G02*
X178150000Y-25500000I-100000J0D01*
G01*
X178150000Y-25500000D02*
G75*
G02*
X178350000Y-25500000I100000J0D01*
G01*
D14*
%TO.C,R15*%
X173227500Y-26837742D02*
X173227500Y-27312258D01*
X174272500Y-26837742D02*
X174272500Y-27312258D01*
%TO.C,U23*%
D10*
X133200000Y-59000000D02*
X147200000Y-59000000D01*
X147200000Y-73000000D01*
X133200000Y-73000000D01*
X133200000Y-59000000D01*
%TO.C,U24*%
X65900000Y-42500003D02*
X79900000Y-42500003D01*
X79900000Y-56500003D01*
X65900000Y-56500003D01*
X65900000Y-42500003D01*
D14*
%TO.C,D3*%
X177015000Y-25950000D02*
X177015000Y-28235000D01*
X177015000Y-28235000D02*
X178485000Y-28235000D01*
X178485000Y-28235000D02*
X178485000Y-25950000D01*
%TO.C,U35*%
D10*
X228000000Y-29000003D02*
X242000000Y-29000003D01*
X242000000Y-43000003D01*
X228000000Y-43000003D01*
X228000000Y-29000003D01*
%TO.C,U26*%
X164500000Y-81450001D02*
X178500000Y-81450001D01*
X178500000Y-95450001D01*
X164500000Y-95450001D01*
X164500000Y-81450001D01*
%TO.C,U28*%
X96200000Y-56000000D02*
X110200000Y-56000000D01*
X110200000Y-70000000D01*
X96200000Y-70000000D01*
X96200000Y-56000000D01*
%TO.C,U27*%
X163500000Y-45500003D02*
X177500000Y-45500003D01*
X177500000Y-59500003D01*
X163500000Y-59500003D01*
X163500000Y-45500003D01*
%TO.C,U29*%
X129300000Y-30050002D02*
X143300000Y-30050002D01*
X143300000Y-44050002D01*
X129300000Y-44050002D01*
X129300000Y-30050002D01*
%TO.C,U21*%
X87000000Y-23000000D02*
X101000000Y-23000000D01*
X101000000Y-37000000D01*
X87000000Y-37000000D01*
X87000000Y-23000000D01*
D14*
%TO.C,C40*%
X81640580Y-78990000D02*
X81359420Y-78990000D01*
X81640580Y-80010000D02*
X81359420Y-80010000D01*
%TO.C,U34*%
D10*
X229000000Y-65000000D02*
X243000000Y-65000000D01*
X243000000Y-79000000D01*
X229000000Y-79000000D01*
X229000000Y-65000000D01*
D14*
%TO.C,R1*%
X175727500Y-27237258D02*
X175727500Y-26762742D01*
X176772500Y-27237258D02*
X176772500Y-26762742D01*
%TO.C,R32*%
X81412258Y-77477500D02*
X80937742Y-77477500D01*
X81412258Y-78522500D02*
X80937742Y-78522500D01*
%TD*%
M02*
