%TF.GenerationSoftware,KiCad,Pcbnew,8.0.8*%
%TF.CreationDate,2025-04-29T22:55:39-07:00*%
%TF.ProjectId,MainBoard_BrooksGen5XMini,4d61696e-426f-4617-9264-5f42726f6f6b,rev?*%
%TF.SameCoordinates,Original*%
%TF.FileFunction,Soldermask,Bot*%
%TF.FilePolarity,Negative*%
%FSLAX46Y46*%
G04 Gerber Fmt 4.6, Leading zero omitted, Abs format (unit mm)*
G04 Created by KiCad (PCBNEW 8.0.8) date 2025-04-29 22:55:39*
%MOMM*%
%LPD*%
G01*
G04 APERTURE LIST*
G04 Aperture macros list*
%AMRoundRect*
0 Rectangle with rounded corners*
0 $1 Rounding radius*
0 $2 $3 $4 $5 $6 $7 $8 $9 X,Y pos of 4 corners*
0 Add a 4 corners polygon primitive as box body*
4,1,4,$2,$3,$4,$5,$6,$7,$8,$9,$2,$3,0*
0 Add four circle primitives for the rounded corners*
1,1,$1+$1,$2,$3*
1,1,$1+$1,$4,$5*
1,1,$1+$1,$6,$7*
1,1,$1+$1,$8,$9*
0 Add four rect primitives between the rounded corners*
20,1,$1+$1,$2,$3,$4,$5,0*
20,1,$1+$1,$4,$5,$6,$7,0*
20,1,$1+$1,$6,$7,$8,$9,0*
20,1,$1+$1,$8,$9,$2,$3,0*%
%AMRotRect*
0 Rectangle, with rotation*
0 The origin of the aperture is its center*
0 $1 length*
0 $2 width*
0 $3 Rotation angle, in degrees counterclockwise*
0 Add horizontal line*
21,1,$1,$2,0,0,$3*%
G04 Aperture macros list end*
%ADD10C,0.010000*%
%ADD11C,2.000000*%
%ADD12R,1.700000X1.700000*%
%ADD13O,1.700000X1.700000*%
%ADD14C,1.530000*%
%ADD15C,0.650000*%
%ADD16O,1.204000X2.304000*%
%ADD17O,1.204000X2.004000*%
%ADD18RoundRect,0.225000X0.225000X0.250000X-0.225000X0.250000X-0.225000X-0.250000X0.225000X-0.250000X0*%
%ADD19R,1.500000X0.550000*%
%ADD20R,0.550000X1.500000*%
%ADD21RoundRect,0.200000X-0.275000X0.200000X-0.275000X-0.200000X0.275000X-0.200000X0.275000X0.200000X0*%
%ADD22RoundRect,0.225000X0.250000X-0.225000X0.250000X0.225000X-0.250000X0.225000X-0.250000X-0.225000X0*%
%ADD23R,1.000000X0.599999*%
%ADD24RoundRect,0.225000X-0.250000X0.225000X-0.250000X-0.225000X0.250000X-0.225000X0.250000X0.225000X0*%
%ADD25RoundRect,0.200000X-0.200000X-0.275000X0.200000X-0.275000X0.200000X0.275000X-0.200000X0.275000X0*%
%ADD26RoundRect,0.225000X-0.225000X-0.250000X0.225000X-0.250000X0.225000X0.250000X-0.225000X0.250000X0*%
%ADD27RoundRect,0.200000X0.200000X0.275000X-0.200000X0.275000X-0.200000X-0.275000X0.200000X-0.275000X0*%
%ADD28RoundRect,0.225000X-0.017678X0.335876X-0.335876X0.017678X0.017678X-0.335876X0.335876X-0.017678X0*%
%ADD29RoundRect,0.200000X0.275000X-0.200000X0.275000X0.200000X-0.275000X0.200000X-0.275000X-0.200000X0*%
%ADD30RoundRect,0.100000X0.130000X0.100000X-0.130000X0.100000X-0.130000X-0.100000X0.130000X-0.100000X0*%
%ADD31R,0.355600X1.422400*%
%ADD32R,1.000000X1.700000*%
%ADD33RoundRect,0.218750X-0.256250X0.218750X-0.256250X-0.218750X0.256250X-0.218750X0.256250X0.218750X0*%
%ADD34O,2.004000X1.204000*%
%ADD35O,2.304000X1.204000*%
%ADD36RoundRect,0.225000X-0.335876X-0.017678X-0.017678X-0.335876X0.335876X0.017678X0.017678X0.335876X0*%
%ADD37RotRect,1.400000X1.200000X45.000000*%
%ADD38RoundRect,0.218750X0.218750X0.256250X-0.218750X0.256250X-0.218750X-0.256250X0.218750X-0.256250X0*%
G04 APERTURE END LIST*
D10*
%TO.C,J1*%
X28420000Y-100790000D02*
X27170000Y-100790000D01*
X27170000Y-100090000D01*
X28420000Y-100090000D01*
X28420000Y-100790000D01*
G36*
X28420000Y-100790000D02*
G01*
X27170000Y-100790000D01*
X27170000Y-100090000D01*
X28420000Y-100090000D01*
X28420000Y-100790000D01*
G37*
X28420000Y-99990000D02*
X27170000Y-99990000D01*
X27170000Y-99290000D01*
X28420000Y-99290000D01*
X28420000Y-99990000D01*
G36*
X28420000Y-99990000D02*
G01*
X27170000Y-99990000D01*
X27170000Y-99290000D01*
X28420000Y-99290000D01*
X28420000Y-99990000D01*
G37*
X28420000Y-99190000D02*
X27170000Y-99190000D01*
X27170000Y-98790000D01*
X28420000Y-98790000D01*
X28420000Y-99190000D01*
G36*
X28420000Y-99190000D02*
G01*
X27170000Y-99190000D01*
X27170000Y-98790000D01*
X28420000Y-98790000D01*
X28420000Y-99190000D01*
G37*
X28420000Y-98690000D02*
X27170000Y-98690000D01*
X27170000Y-98290000D01*
X28420000Y-98290000D01*
X28420000Y-98690000D01*
G36*
X28420000Y-98690000D02*
G01*
X27170000Y-98690000D01*
X27170000Y-98290000D01*
X28420000Y-98290000D01*
X28420000Y-98690000D01*
G37*
X28420000Y-98190000D02*
X27170000Y-98190000D01*
X27170000Y-97790000D01*
X28420000Y-97790000D01*
X28420000Y-98190000D01*
G36*
X28420000Y-98190000D02*
G01*
X27170000Y-98190000D01*
X27170000Y-97790000D01*
X28420000Y-97790000D01*
X28420000Y-98190000D01*
G37*
X28420000Y-97690000D02*
X27170000Y-97690000D01*
X27170000Y-97290000D01*
X28420000Y-97290000D01*
X28420000Y-97690000D01*
G36*
X28420000Y-97690000D02*
G01*
X27170000Y-97690000D01*
X27170000Y-97290000D01*
X28420000Y-97290000D01*
X28420000Y-97690000D01*
G37*
X28420000Y-97190000D02*
X27170000Y-97190000D01*
X27170000Y-96790000D01*
X28420000Y-96790000D01*
X28420000Y-97190000D01*
G36*
X28420000Y-97190000D02*
G01*
X27170000Y-97190000D01*
X27170000Y-96790000D01*
X28420000Y-96790000D01*
X28420000Y-97190000D01*
G37*
X28420000Y-96690000D02*
X27170000Y-96690000D01*
X27170000Y-96290000D01*
X28420000Y-96290000D01*
X28420000Y-96690000D01*
G36*
X28420000Y-96690000D02*
G01*
X27170000Y-96690000D01*
X27170000Y-96290000D01*
X28420000Y-96290000D01*
X28420000Y-96690000D01*
G37*
X28420000Y-96190000D02*
X27170000Y-96190000D01*
X27170000Y-95790000D01*
X28420000Y-95790000D01*
X28420000Y-96190000D01*
G36*
X28420000Y-96190000D02*
G01*
X27170000Y-96190000D01*
X27170000Y-95790000D01*
X28420000Y-95790000D01*
X28420000Y-96190000D01*
G37*
X28420000Y-95690000D02*
X27170000Y-95690000D01*
X27170000Y-95290000D01*
X28420000Y-95290000D01*
X28420000Y-95690000D01*
G36*
X28420000Y-95690000D02*
G01*
X27170000Y-95690000D01*
X27170000Y-95290000D01*
X28420000Y-95290000D01*
X28420000Y-95690000D01*
G37*
X28420000Y-95190000D02*
X27170000Y-95190000D01*
X27170000Y-94490000D01*
X28420000Y-94490000D01*
X28420000Y-95190000D01*
G36*
X28420000Y-95190000D02*
G01*
X27170000Y-95190000D01*
X27170000Y-94490000D01*
X28420000Y-94490000D01*
X28420000Y-95190000D01*
G37*
X28420000Y-94390000D02*
X27170000Y-94390000D01*
X27170000Y-93690000D01*
X28420000Y-93690000D01*
X28420000Y-94390000D01*
G36*
X28420000Y-94390000D02*
G01*
X27170000Y-94390000D01*
X27170000Y-93690000D01*
X28420000Y-93690000D01*
X28420000Y-94390000D01*
G37*
%TD*%
D11*
%TO.C,U37*%
X238075000Y-137075000D03*
X240575000Y-137075000D03*
X243075000Y-137075000D03*
X245575000Y-137075000D03*
X248075000Y-137075000D03*
X250575000Y-137075000D03*
X253075000Y-137075000D03*
X255575000Y-137075000D03*
X258075000Y-137075000D03*
X260575000Y-137075000D03*
X263075000Y-137075000D03*
X268075000Y-132075000D03*
X268075000Y-129575000D03*
X268075000Y-127075000D03*
X268075000Y-124575000D03*
X268075000Y-122075000D03*
X268075000Y-119575000D03*
X268075000Y-117075000D03*
X268075000Y-114575000D03*
X268075000Y-112075000D03*
X268075000Y-109575000D03*
X268075000Y-107075000D03*
X263075000Y-102075000D03*
X260575000Y-102075000D03*
X258075000Y-102075000D03*
X255575000Y-102075000D03*
X253075000Y-102075000D03*
X250575000Y-102075000D03*
X248075000Y-102075000D03*
X245575000Y-102075000D03*
X243075000Y-102075000D03*
X240575000Y-102075000D03*
X238075000Y-102075000D03*
X233075000Y-107075000D03*
X233075000Y-109575000D03*
X233075000Y-112075000D03*
X233075000Y-114575000D03*
X233075000Y-117075000D03*
X233075000Y-119575000D03*
X233075000Y-122075000D03*
X233075000Y-124575000D03*
X233075000Y-127075000D03*
X233125000Y-129575000D03*
X233125000Y-132125000D03*
%TD*%
D12*
%TO.C,J6*%
X273250000Y-89500000D03*
%TD*%
D13*
%TO.C,J5*%
X272365000Y-83250000D03*
X269825000Y-83250000D03*
X267285000Y-83250000D03*
X264745000Y-83250000D03*
X262205000Y-83250000D03*
X259665000Y-83250000D03*
D12*
X257125000Y-83250000D03*
%TD*%
%TO.C,J4*%
X178200000Y-130750000D03*
D13*
X180740000Y-130750000D03*
X183280000Y-130750000D03*
X185820000Y-130750000D03*
%TD*%
D14*
%TO.C,U22*%
X136200000Y-102000000D03*
X146200000Y-102000000D03*
%TD*%
D12*
%TO.C,J2*%
X51960000Y-71500000D03*
D13*
X54500000Y-71500000D03*
X51960000Y-74040000D03*
X54500000Y-74040000D03*
X51960000Y-76580000D03*
X54500000Y-76580000D03*
%TD*%
D14*
%TO.C,U31*%
X196700000Y-43050002D03*
X206700000Y-43050002D03*
%TD*%
%TO.C,U32*%
X112700000Y-130000000D03*
X122700000Y-130000000D03*
%TD*%
%TO.C,U25*%
X110000000Y-37000000D03*
X120000000Y-37000000D03*
%TD*%
%TO.C,U2*%
X36700000Y-40050002D03*
X46700000Y-40050002D03*
%TD*%
%TO.C,U33*%
X151700000Y-30000000D03*
X161700000Y-30000000D03*
%TD*%
%TO.C,U30*%
X197700000Y-79000000D03*
X207700000Y-79000000D03*
%TD*%
D15*
%TO.C,J3*%
X177890000Y-23180000D03*
X172110000Y-23180000D03*
D16*
X179320000Y-23680000D03*
X170680000Y-23680000D03*
D17*
X179320000Y-19500000D03*
X170680000Y-19500000D03*
%TD*%
D14*
%TO.C,U23*%
X135200000Y-66000000D03*
X145200000Y-66000000D03*
%TD*%
%TO.C,U24*%
X67900000Y-49500003D03*
X77900000Y-49500003D03*
%TD*%
%TO.C,U35*%
X230000000Y-36000003D03*
X240000000Y-36000003D03*
%TD*%
%TO.C,U26*%
X166500000Y-88450001D03*
X176500000Y-88450001D03*
%TD*%
%TO.C,U28*%
X98200000Y-63000000D03*
X108200000Y-63000000D03*
%TD*%
%TO.C,U27*%
X165500000Y-52500003D03*
X175500000Y-52500003D03*
%TD*%
%TO.C,U29*%
X131300000Y-37050002D03*
X141300000Y-37050002D03*
%TD*%
%TO.C,U21*%
X89000000Y-30000000D03*
X99000000Y-30000000D03*
%TD*%
%TO.C,U34*%
X231000000Y-72000000D03*
X241000000Y-72000000D03*
%TD*%
D18*
%TO.C,C30*%
X84275000Y-89000000D03*
X82725000Y-89000000D03*
%TD*%
D19*
%TO.C,U20*%
X48800000Y-102500000D03*
X48800000Y-101700000D03*
X48800000Y-100900000D03*
X48800000Y-100100000D03*
X48800000Y-99300000D03*
X48800000Y-98500000D03*
X48800000Y-97700000D03*
X48800000Y-96900000D03*
X48800000Y-96100000D03*
X48800000Y-95300000D03*
X48800000Y-94500000D03*
D20*
X50500000Y-92800000D03*
X51300000Y-92800000D03*
X52100000Y-92800000D03*
X52900000Y-92800000D03*
X53700000Y-92800000D03*
X54500000Y-92800000D03*
X55300000Y-92800000D03*
X56100000Y-92800000D03*
X56900000Y-92800000D03*
X57700000Y-92800000D03*
X58500000Y-92800000D03*
D19*
X60200000Y-94500000D03*
X60200000Y-95300000D03*
X60200000Y-96100000D03*
X60200000Y-96900000D03*
X60200000Y-97700000D03*
X60200000Y-98500000D03*
X60200000Y-99300000D03*
X60200000Y-100100000D03*
X60200000Y-100900000D03*
X60200000Y-101700000D03*
X60200000Y-102500000D03*
D20*
X58500000Y-104200000D03*
X57700000Y-104200000D03*
X56900000Y-104200000D03*
X56100000Y-104200000D03*
X55300000Y-104200000D03*
X54500000Y-104200000D03*
X53700000Y-104200000D03*
X52900000Y-104200000D03*
X52100000Y-104200000D03*
X51300000Y-104200000D03*
X50500000Y-104200000D03*
%TD*%
D21*
%TO.C,R12*%
X184000000Y-59675000D03*
X184000000Y-61325000D03*
%TD*%
D22*
%TO.C,C24*%
X181500000Y-74775000D03*
X181500000Y-73225000D03*
%TD*%
D23*
%TO.C,U15*%
X157900000Y-29049999D03*
X157900000Y-30949998D03*
X155500000Y-30000000D03*
%TD*%
D24*
%TO.C,C41*%
X82500000Y-73225000D03*
X82500000Y-74775000D03*
%TD*%
D23*
%TO.C,U4*%
X171700000Y-51549999D03*
X171700000Y-53449998D03*
X169300000Y-52500000D03*
%TD*%
%TO.C,U18*%
X137500000Y-36099999D03*
X137500000Y-37999998D03*
X135100000Y-37050000D03*
%TD*%
D22*
%TO.C,C7*%
X50800000Y-91000000D03*
X50800000Y-89450000D03*
%TD*%
D23*
%TO.C,U12*%
X142400000Y-101049999D03*
X142400000Y-102949998D03*
X140000000Y-102000000D03*
%TD*%
D21*
%TO.C,R31*%
X79500000Y-73175000D03*
X79500000Y-74825000D03*
%TD*%
D25*
%TO.C,R8*%
X178500000Y-61500000D03*
X180150000Y-61500000D03*
%TD*%
D18*
%TO.C,C17*%
X188275000Y-63500000D03*
X186725000Y-63500000D03*
%TD*%
D26*
%TO.C,C14*%
X178725000Y-60000000D03*
X180275000Y-60000000D03*
%TD*%
D23*
%TO.C,U6*%
X236200000Y-35049999D03*
X236200000Y-36949998D03*
X233800000Y-36000000D03*
%TD*%
D27*
%TO.C,R25*%
X82825000Y-80500000D03*
X81175000Y-80500000D03*
%TD*%
D28*
%TO.C,C10*%
X53060140Y-86108489D03*
X51964124Y-87204505D03*
%TD*%
D29*
%TO.C,R18*%
X183000000Y-75000000D03*
X183000000Y-73350000D03*
%TD*%
D30*
%TO.C,*%
X31860000Y-91540000D03*
%TD*%
D31*
%TO.C,U3*%
X74725001Y-79655200D03*
X75374999Y-79655200D03*
X76025001Y-79655200D03*
X76674999Y-79655200D03*
X77324998Y-79655200D03*
X77974999Y-79655200D03*
X78624998Y-79655200D03*
X79274999Y-79655200D03*
X79274999Y-85344800D03*
X78625001Y-85344800D03*
X77974999Y-85344800D03*
X77325001Y-85344800D03*
X76675002Y-85344800D03*
X76025001Y-85344800D03*
X75375002Y-85344800D03*
X74725001Y-85344800D03*
%TD*%
D25*
%TO.C,R29*%
X73675000Y-74500000D03*
X75325000Y-74500000D03*
%TD*%
D27*
%TO.C,R14*%
X191825000Y-64000000D03*
X190175000Y-64000000D03*
%TD*%
%TO.C,R3*%
X31365000Y-98040000D03*
X29715000Y-98040000D03*
%TD*%
D29*
%TO.C,R20*%
X186000000Y-75825000D03*
X186000000Y-74175000D03*
%TD*%
D27*
%TO.C,R9*%
X31500000Y-99500000D03*
X29850000Y-99500000D03*
%TD*%
D32*
%TO.C,SW_RESET1*%
X42900000Y-86350000D03*
X42900000Y-92650000D03*
X46700000Y-86350000D03*
X46700000Y-92650000D03*
%TD*%
D29*
%TO.C,R19*%
X184500000Y-78825000D03*
X184500000Y-77175000D03*
%TD*%
D33*
%TO.C,D6*%
X29500000Y-91962500D03*
X29500000Y-93537500D03*
%TD*%
D34*
%TO.C,J1*%
X23040000Y-92920000D03*
X23040000Y-101560000D03*
D35*
X27220000Y-92920000D03*
X27220000Y-101560000D03*
D15*
X26720000Y-94350000D03*
X26720000Y-100130000D03*
%TD*%
D24*
%TO.C,C3*%
X51300000Y-106225000D03*
X51300000Y-107775000D03*
%TD*%
D22*
%TO.C,C9*%
X177000000Y-69775000D03*
X177000000Y-68225000D03*
%TD*%
D36*
%TO.C,C8*%
X55964124Y-86108489D03*
X57060140Y-87204505D03*
%TD*%
D21*
%TO.C,R11*%
X182000000Y-59175000D03*
X182000000Y-60825000D03*
%TD*%
D26*
%TO.C,C11*%
X44525000Y-99000000D03*
X46075000Y-99000000D03*
%TD*%
D22*
%TO.C,C25*%
X186500000Y-78775000D03*
X186500000Y-77225000D03*
%TD*%
D24*
%TO.C,C39*%
X81000000Y-73225000D03*
X81000000Y-74775000D03*
%TD*%
%TO.C,C4*%
X58800000Y-106225000D03*
X58800000Y-107775000D03*
%TD*%
%TO.C,C34*%
X69500000Y-76725000D03*
X69500000Y-78275000D03*
%TD*%
D18*
%TO.C,C16*%
X187275000Y-60500000D03*
X185725000Y-60500000D03*
%TD*%
D23*
%TO.C,U11*%
X141400000Y-65049999D03*
X141400000Y-66949998D03*
X139000000Y-66000000D03*
%TD*%
%TO.C,U10*%
X104400000Y-62049999D03*
X104400000Y-63949998D03*
X102000000Y-63000000D03*
%TD*%
D24*
%TO.C,C2*%
X70000000Y-83500000D03*
X70000000Y-85050000D03*
%TD*%
D25*
%TO.C,R7*%
X61975000Y-102500000D03*
X63625000Y-102500000D03*
%TD*%
D23*
%TO.C,U14*%
X237200000Y-70999999D03*
X237200000Y-72899998D03*
X234800000Y-71950000D03*
%TD*%
D37*
%TO.C,Y2*%
X53168629Y-88868629D03*
X54724264Y-87312994D03*
X55855635Y-88444365D03*
X54300000Y-90000000D03*
%TD*%
D29*
%TO.C,R26*%
X79500000Y-91325000D03*
X79500000Y-89675000D03*
%TD*%
D23*
%TO.C,U19*%
X203900000Y-78049999D03*
X203900000Y-79949998D03*
X201500000Y-79000000D03*
%TD*%
D38*
%TO.C,D5*%
X31537500Y-101250000D03*
X29962500Y-101250000D03*
%TD*%
D22*
%TO.C,C32*%
X81000000Y-91275000D03*
X81000000Y-89725000D03*
%TD*%
D23*
%TO.C,U16*%
X95200000Y-29049999D03*
X95200000Y-30949998D03*
X92800000Y-30000000D03*
%TD*%
D22*
%TO.C,C20*%
X178000000Y-72775000D03*
X178000000Y-71225000D03*
%TD*%
D31*
%TO.C,U1*%
X180569801Y-65130199D03*
X181219799Y-65130199D03*
X181869801Y-65130199D03*
X182519799Y-65130199D03*
X183169798Y-65130199D03*
X183819799Y-65130199D03*
X184469798Y-65130199D03*
X185119799Y-65130199D03*
X185119799Y-70819799D03*
X184469801Y-70819799D03*
X183819799Y-70819799D03*
X183169801Y-70819799D03*
X182519802Y-70819799D03*
X181869801Y-70819799D03*
X181219802Y-70819799D03*
X180569801Y-70819799D03*
%TD*%
D27*
%TO.C,R13*%
X187325000Y-62000000D03*
X185675000Y-62000000D03*
%TD*%
D23*
%TO.C,U13*%
X172700000Y-87499999D03*
X172700000Y-89399998D03*
X170300000Y-88450000D03*
%TD*%
D30*
%TO.C,D2*%
X31860000Y-91540000D03*
X31220000Y-91540000D03*
%TD*%
D26*
%TO.C,C15*%
X181225000Y-57500000D03*
X182775000Y-57500000D03*
%TD*%
D25*
%TO.C,R34*%
X71675000Y-83500000D03*
X73325000Y-83500000D03*
%TD*%
D23*
%TO.C,U7*%
X118900000Y-129049999D03*
X118900000Y-130949998D03*
X116500000Y-130000000D03*
%TD*%
D18*
%TO.C,C31*%
X83775000Y-82000000D03*
X82225000Y-82000000D03*
%TD*%
D27*
%TO.C,R5*%
X34865000Y-91540000D03*
X33215000Y-91540000D03*
%TD*%
D23*
%TO.C,U17*%
X116200000Y-36049999D03*
X116200000Y-37949998D03*
X113800000Y-37000000D03*
%TD*%
D26*
%TO.C,C1*%
X71725000Y-85500000D03*
X73275000Y-85500000D03*
%TD*%
D21*
%TO.C,R27*%
X178500000Y-68175000D03*
X178500000Y-69825000D03*
%TD*%
D18*
%TO.C,C18*%
X191775000Y-62500000D03*
X190225000Y-62500000D03*
%TD*%
D22*
%TO.C,C19*%
X176500000Y-73275000D03*
X176500000Y-71725000D03*
%TD*%
D25*
%TO.C,R2*%
X29715000Y-96540000D03*
X31365000Y-96540000D03*
%TD*%
D23*
%TO.C,U9*%
X42900000Y-39099999D03*
X42900000Y-40999998D03*
X40500000Y-40050000D03*
%TD*%
D22*
%TO.C,C6*%
X62300000Y-94775000D03*
X62300000Y-93225000D03*
%TD*%
D26*
%TO.C,C37*%
X73725000Y-76000000D03*
X75275000Y-76000000D03*
%TD*%
D23*
%TO.C,U8*%
X74100000Y-48549999D03*
X74100000Y-50449998D03*
X71700000Y-49500000D03*
%TD*%
D24*
%TO.C,C38*%
X76000000Y-71225000D03*
X76000000Y-72775000D03*
%TD*%
D21*
%TO.C,R30*%
X77500000Y-73175000D03*
X77500000Y-74825000D03*
%TD*%
D25*
%TO.C,R10*%
X32215000Y-93540000D03*
X33865000Y-93540000D03*
%TD*%
D22*
%TO.C,C12*%
X175500000Y-69775000D03*
X175500000Y-68225000D03*
%TD*%
D29*
%TO.C,R6*%
X48800000Y-87825000D03*
X48800000Y-86175000D03*
%TD*%
D27*
%TO.C,R24*%
X84325000Y-87500000D03*
X82675000Y-87500000D03*
%TD*%
%TO.C,R33*%
X83325000Y-76500000D03*
X81675000Y-76500000D03*
%TD*%
D24*
%TO.C,C26*%
X187500000Y-72725000D03*
X187500000Y-74275000D03*
%TD*%
D23*
%TO.C,U5*%
X202900000Y-42099999D03*
X202900000Y-43999998D03*
X200500000Y-43050000D03*
%TD*%
D18*
%TO.C,C5*%
X46075000Y-97500000D03*
X44525000Y-97500000D03*
%TD*%
D37*
%TO.C,*%
X53168629Y-88868629D03*
%TD*%
D24*
%TO.C,C33*%
X71000000Y-77500000D03*
X71000000Y-79050000D03*
%TD*%
M02*
