%TF.GenerationSoftware,KiCad,Pcbnew,8.0.8*%
%TF.CreationDate,2025-04-29T22:55:39-07:00*%
%TF.ProjectId,MainBoard_BrooksGen5XMini,4d61696e-426f-4617-9264-5f42726f6f6b,rev?*%
%TF.SameCoordinates,Original*%
%TF.FileFunction,Paste,Top*%
%TF.FilePolarity,Positive*%
%FSLAX46Y46*%
G04 Gerber Fmt 4.6, Leading zero omitted, Abs format (unit mm)*
G04 Created by KiCad (PCBNEW 8.0.8) date 2025-04-29 22:55:39*
%MOMM*%
%LPD*%
G01*
G04 APERTURE LIST*
G04 Aperture macros list*
%AMRoundRect*
0 Rectangle with rounded corners*
0 $1 Rounding radius*
0 $2 $3 $4 $5 $6 $7 $8 $9 X,Y pos of 4 corners*
0 Add a 4 corners polygon primitive as box body*
4,1,4,$2,$3,$4,$5,$6,$7,$8,$9,$2,$3,0*
0 Add four circle primitives for the rounded corners*
1,1,$1+$1,$2,$3*
1,1,$1+$1,$4,$5*
1,1,$1+$1,$6,$7*
1,1,$1+$1,$8,$9*
0 Add four rect primitives between the rounded corners*
20,1,$1+$1,$2,$3,$4,$5,0*
20,1,$1+$1,$4,$5,$6,$7,0*
20,1,$1+$1,$6,$7,$8,$9,0*
20,1,$1+$1,$8,$9,$2,$3,0*%
G04 Aperture macros list end*
%ADD10R,1.524000X2.600000*%
%ADD11R,2.600000X1.524000*%
%ADD12RoundRect,0.218750X0.256250X-0.218750X0.256250X0.218750X-0.256250X0.218750X-0.256250X-0.218750X0*%
%ADD13R,0.600000X1.150000*%
%ADD14R,0.300000X1.150000*%
%ADD15RoundRect,0.200000X-0.275000X0.200000X-0.275000X-0.200000X0.275000X-0.200000X0.275000X0.200000X0*%
%ADD16RoundRect,0.225000X0.225000X0.250000X-0.225000X0.250000X-0.225000X-0.250000X0.225000X-0.250000X0*%
%ADD17RoundRect,0.200000X0.275000X-0.200000X0.275000X0.200000X-0.275000X0.200000X-0.275000X-0.200000X0*%
%ADD18RoundRect,0.200000X0.200000X0.275000X-0.200000X0.275000X-0.200000X-0.275000X0.200000X-0.275000X0*%
G04 APERTURE END LIST*
D10*
%TO.C,U37*%
X238075000Y-138925000D03*
X240575000Y-138925000D03*
X243075000Y-138925000D03*
X245575000Y-138925000D03*
X248075000Y-138925000D03*
X250575000Y-138925000D03*
X253075000Y-138925000D03*
X255575000Y-138925000D03*
X258075000Y-138925000D03*
X260575000Y-138925000D03*
X263075000Y-138925000D03*
D11*
X270025000Y-132075000D03*
X270025000Y-129575000D03*
X270025000Y-127075000D03*
X270025000Y-124575000D03*
X270025000Y-122075000D03*
X270025000Y-119575000D03*
X270025000Y-117075000D03*
X270025000Y-114575000D03*
X270025000Y-112075000D03*
X270025000Y-109575000D03*
X269975000Y-107025000D03*
D10*
X263075000Y-100125000D03*
X260575000Y-100125000D03*
X258075000Y-100125000D03*
X255575000Y-100125000D03*
X253075000Y-100125000D03*
X250575000Y-100125000D03*
X248075000Y-100125000D03*
X245575000Y-100125000D03*
X243075000Y-100175000D03*
X240525000Y-100175000D03*
X238075000Y-100125000D03*
D11*
X231225000Y-107025000D03*
X231225000Y-109575000D03*
X231225000Y-112075000D03*
X231225000Y-114525000D03*
X231225000Y-117075000D03*
X231225000Y-119575000D03*
X231225000Y-122075000D03*
X231225000Y-124575000D03*
X231225000Y-127075000D03*
X231225000Y-129575000D03*
X231225000Y-132125000D03*
%TD*%
D12*
%TO.C,D4*%
X172250000Y-27537500D03*
X172250000Y-25962500D03*
%TD*%
D13*
%TO.C,J3*%
X178200000Y-24255000D03*
X177400000Y-24255000D03*
D14*
X176250000Y-24255000D03*
X175250000Y-24255000D03*
X174750000Y-24255000D03*
X173750000Y-24255000D03*
D13*
X171800000Y-24255000D03*
X172600000Y-24255000D03*
D14*
X173250000Y-24255000D03*
X174250000Y-24255000D03*
X175750000Y-24255000D03*
X176750000Y-24255000D03*
%TD*%
D15*
%TO.C,R15*%
X173750000Y-26250000D03*
X173750000Y-27900000D03*
%TD*%
D12*
%TO.C,D3*%
X177750000Y-27537500D03*
X177750000Y-25962500D03*
%TD*%
D16*
%TO.C,C40*%
X82275000Y-79500000D03*
X80725000Y-79500000D03*
%TD*%
D17*
%TO.C,R1*%
X176250000Y-27825000D03*
X176250000Y-26175000D03*
%TD*%
D18*
%TO.C,R32*%
X82000000Y-78000000D03*
X80350000Y-78000000D03*
%TD*%
M02*
